M48
; DRILL file {KiCad 5.1.5+dfsg1-2build2} date jue 23 dic 2021 23:12:38
; FORMAT={-:-/ absolute / inch / decimal}
; #@! TF.CreationDate,2021-12-23T23:12:38-03:00
; #@! TF.GenerationSoftware,Kicad,Pcbnew,5.1.5+dfsg1-2build2
; #@! TF.FileFunction,Plated,1,4,PTH
FMAT,2
INCH
T1C0.0118
T2C0.0350
T3C0.0354
T4C0.0394
T5C0.0472
T6C0.0551
T7C0.0791
%
G90
G05
T1
X6.2563Y-3.4307
X6.2646Y-3.6673
X6.2705Y-3.4114
X6.2949Y-3.4031
X6.3213Y-2.3673
X6.322Y-2.4638
X6.326Y-1.7496
X6.3323Y-3.2744
X6.3323Y-3.7028
X6.3339Y-1.7933
X6.3528Y-2.1618
X6.3654Y-3.1571
X6.3807Y-3.3327
X6.3811Y-3.2839
X6.3839Y-3.6677
X6.4205Y-4.2299
X6.4291Y-1.9516
X6.4453Y-4.215
X6.4465Y-1.622
X6.4701Y-2.1476
X6.4902Y-1.9161
X6.4976Y-2.6291
X6.5083Y-2.2291
X6.5163Y-3.5634
X6.5181Y-2.0831
X6.5197Y-1.8535
X6.5205Y-3.0654
X6.5248Y-2.6413
X6.5382Y-3.4244
X6.539Y-2.3701
X6.5425Y-2.9484
X6.5433Y-2.45
X6.5476Y-2.5177
X6.552Y-2.3004
X6.5543Y-2.7957
X6.5547Y-3.0256
X6.5579Y-2.8839
X6.5709Y-3.5039
X6.572Y-1.7209
X6.5854Y-2.6287
X6.5862Y-1.4516
X6.5917Y-3.2823
X6.5953Y-3.9059
X6.6098Y-1.4862
X6.6175Y-3.563
X6.6189Y-3.5134
X6.6205Y-1.8319
X6.6283Y-1.5315
X6.6406Y-4.0035
X6.6434Y-1.4084
X6.6524Y-1.6525
X6.6579Y-1.8386
X6.6618Y-2.0193
X6.6634Y-4.1039
X6.665Y-2.3118
X6.665Y-2.5193
X6.665Y-2.813
X6.6673Y-2.8882
X6.6697Y-2.5921
X6.6709Y-4.1283
X6.6764Y-3.8252
X6.6882Y-1.0953
X6.7028Y-3.7787
X6.7059Y-2.4114
X6.7118Y-2.1272
X6.7128Y-1.6831
X6.7134Y-2.2276
X6.7138Y-2.4807
X6.7138Y-2.663
X6.7142Y-1.8126
X6.7146Y-1.5772
X6.715Y-2.3717
X6.7205Y-2.7146
X6.7283Y-2.9972
X6.7344Y-1.5418
X6.7349Y-1.4722
X6.7354Y-1.8701
X6.737Y-2.1142
X6.7646Y-1.502
X6.765Y-1.0949
X6.7742Y-3.1055
X6.7795Y-1.885
X6.787Y-1.3972
X6.7904Y-3.2827
X6.7941Y-2.6531
X6.7992Y-1.7886
X6.8031Y-3.5689
X6.8063Y-1.561
X6.8067Y-1.3299
X6.8071Y-1.8421
X6.8071Y-3.3823
X6.8118Y-1.4811
X6.826Y-2.0583
X6.8272Y-1.9031
X6.8346Y-3.174
X6.8397Y-1.3351
X6.8441Y-1.3701
X6.8484Y-3.248
X6.8531Y-2.6941
X6.8535Y-2.4559
X6.8547Y-1.6909
X6.8606Y-2.9937
X6.8669Y-1.6346
X6.8708Y-1.8429
X6.8764Y-3.2579
X6.885Y-2.7402
X6.887Y-1.7319
X6.8925Y-3.3063
X6.8949Y-1.1142
X6.8949Y-1.302
X6.9126Y-0.8299
X6.9193Y-2.3957
X6.9199Y-2.6327
X6.9303Y-1.6374
X6.9312Y-1.7344
X6.9531Y-0.8748
X6.9539Y-1.3398
X6.9575Y-1.7437
X6.963Y-1.6858
X6.9732Y-3.5236
X6.9764Y-1.1835
X6.9791Y-2.4638
X6.989Y-3.3236
X7.0039Y-4.1807
X7.0075Y-1.239
X7.0098Y-3.4343
X7.0138Y-1.6402
X7.0244Y-1.8319
X7.0291Y-1.5894
X7.0331Y-3.0417
X7.0417Y-2.3579
X7.0417Y-2.4069
X7.0417Y-2.4531
X7.0417Y-2.5569
X7.0508Y-2.272
X7.0512Y-4.1409
X7.0555Y-1.6358
X7.0587Y-2.1386
X7.0661Y-1.5681
X7.0705Y-3.0409
X7.074Y-1.3772
X7.0768Y-3.2232
X7.0957Y-1.502
X7.1051Y-1.6756
X7.1051Y-3.3634
X7.1123Y-2.8608
X7.1197Y-1.615
X7.1328Y-2.4709
X7.1587Y-2.7217
X7.163Y-2.3299
X7.1657Y-1.5787
X7.1714Y-2.8017
X7.1715Y-2.2325
X7.1929Y-1.3539
X7.1961Y-2.6004
X7.2106Y-1.5949
X7.2236Y-2.8287
X7.2339Y-2.7256
X7.2472Y-2.2921
X7.2472Y-2.5035
X7.2484Y-1.5764
X7.2693Y-2.0484
X7.2732Y-2.1717
X7.2819Y-2.372
X7.2843Y-1.3539
X7.2854Y-1.6362
X7.2935Y-2.5008
X7.2956Y-2.451
X7.2969Y-1.5413
X7.2997Y-2.4278
X7.3135Y-2.7345
X7.3213Y-3.0091
X7.3358Y-1.5882
X7.3366Y-3.0851
X7.3461Y-2.822
X7.3594Y-2.2799
X7.361Y-1.4035
X7.361Y-2.2291
X7.3612Y-1.9778
X7.3612Y-2.1278
X7.3636Y-2.5675
X7.3636Y-2.6175
X7.3646Y-2.3268
X7.376Y-2.7657
X7.3874Y-3.1638
X7.3976Y-1.5252
X7.3984Y-3.3374
X7.4094Y-2.5043
X7.4256Y-2.1974
X7.4264Y-2.7791
X7.4276Y-2.0803
X7.4335Y-2.3283
X7.4421Y-1.0374
X7.4421Y-1.3217
X7.4606Y-2.4656
X7.478Y-2.2441
X7.4831Y-2.5161
X7.4902Y-2.3295
X7.4911Y-2.3801
X7.502Y-3.2445
X7.5028Y-2.1925
X7.5051Y-1.524
X7.5055Y-2.5425
X7.5063Y-2.4965
X7.5146Y-3.2012
X7.5236Y-2.5606
X7.5295Y-2.0988
X7.5303Y-2.6031
X7.5339Y-3.1016
X7.5474Y-2.8171
X7.5539Y-2.9185
X7.5693Y-2.2685
X7.5693Y-2.3762
X7.5878Y-3.4016
X7.6047Y-3.2598
X7.6126Y-2.2841
X7.6126Y-2.3957
X7.6134Y-2.6389
X7.6323Y-2.3256
X7.6331Y-2.3768
X7.6346Y-2.8648
X7.648Y-3.374
X7.6516Y-2.0409
X7.6583Y-2.5268
X7.6606Y-2.687
X7.6634Y-1.8154
X7.6811Y-2.0984
X7.6894Y-2.328
X7.6939Y-2.2801
X7.6949Y-2.4303
X7.6996Y-2.2291
X7.7016Y-1.8197
X7.7047Y-2.948
X7.7378Y-2.7278
X7.7378Y-2.7534
X7.7402Y-1.9071
X7.7413Y-2.6173
X7.7413Y-2.6793
X7.7472Y-1.6894
X7.7492Y-2.3906
X7.7598Y-2.9142
X7.7602Y-2.2811
X7.7642Y-2.5406
X7.7783Y-2.2992
X7.7835Y-2.3909
X7.7894Y-1.8346
X7.7913Y-1.9933
X7.7925Y-2.2398
X7.7974Y-2.448
X7.8051Y-2.7437
X7.8106Y-2.2217
X7.8169Y-2.3224
X7.8213Y-2.4864
X7.823Y-2.448
X7.8244Y-1.7732
X7.8252Y-2.3673
X7.8324Y-2.3448
X7.8402Y-2.8744
X7.8417Y-2.4717
X7.8425Y-2.613
X7.8465Y-0.8886
X7.861Y-2.1575
X7.8614Y-2.0394
X7.8671Y-2.6898
X7.8673Y-2.35
X7.8764Y-3.0654
X7.8783Y-1.7717
X7.8831Y-2.8218
X7.8877Y-2.522
X7.9126Y-1.7681
X7.9185Y-2.5295
X7.9232Y-2.7795
X7.9236Y-2.6185
X7.9246Y-2.5925
X7.9306Y-2.8562
X7.9461Y-2.7406
X7.9665Y-2.9366
X7.969Y-2.8303
X7.9701Y-2.6336
X7.9783Y-2.1161
X7.985Y-1.5933
X7.9941Y-2.0961
X8.0101Y-2.8526
X8.0154Y-2.6346
X8.028Y-2.1202
X8.0311Y-2.6638
X8.0321Y-2.5568
X8.0323Y-2.7264
X8.0398Y-1.5917
X8.0433Y-1.6984
X8.0488Y-2.5799
X8.0496Y-2.1106
X8.0594Y-2.8728
X8.0614Y-2.072
X8.0669Y-1.3165
X8.0867Y-2.0627
X8.0877Y-2.7559
X8.0917Y-2.6543
X8.0933Y-3.0815
X8.1083Y-2.0724
X8.128Y-2.563
X8.139Y-3.0291
X8.1425Y-2.8311
X8.1437Y-2.7638
X8.1476Y-2.0492
X8.148Y-1.8028
X8.1486Y-2.6035
X8.1657Y-2.1091
X8.1658Y-2.5524
X8.1825Y-2.5691
X8.1825Y-2.5691
X8.1894Y-1.7642
X8.2012Y-1.9283
X8.2098Y-1.5366
X8.2171Y-2.7575
X8.2336Y-3.2264
X8.2343Y-1.8028
X8.2362Y-2.7909
X8.2362Y-2.6154
X8.2681Y-2.8602
X8.2694Y-2.9596
X8.2697Y-2.6819
X8.2751Y-2.6362
X8.2783Y-1.7783
X8.3094Y-1.5382
X8.3134Y-2.4932
X8.3152Y-2.64
X8.3197Y-2.2679
X8.3197Y-2.2935
X8.3205Y-2.4451
X8.3205Y-2.4707
X8.326Y-1.7996
X8.326Y-2.7858
X8.3268Y-1.8362
X8.3433Y-1.0957
X8.3516Y-2.3102
X8.3539Y-1.6272
X8.3559Y-1.6031
X8.3646Y-1.563
X8.3692Y-1.8731
X8.3693Y-2.7661
X8.3721Y-2.4957
X8.3799Y-2.7098
X8.3898Y-2.6677
X8.3913Y-1.7465
X8.3917Y-1.4488
X8.3917Y-1.6681
X8.4071Y-3.0059
X8.42Y-2.4874
X8.4402Y-1.6311
X8.4406Y-2.1236
X8.4429Y-1.5642
X8.444Y-1.7379
X8.4445Y-1.5992
X8.472Y-1.4449
X8.485Y-2.3945
X8.487Y-3.0543
X8.4906Y-2.5012
X8.4933Y-1.7732
X8.5161Y-2.7453
X8.5284Y-2.1642
X8.5312Y-1.4311
X8.5358Y-2.5618
X8.5445Y-1.387
X8.5579Y-1.5634
X8.5713Y-2.4433
X8.5724Y-2.4791
X8.5843Y-2.9087
X8.5937Y-1.1488
X8.5961Y-1.0654
X8.6039Y-2.2657
X8.6323Y-1.6016
X8.6469Y-2.165
X8.6496Y-2.1031
X8.6929Y-3.2543
X8.6957Y-1.6248
X8.7197Y-1.2425
X8.7244Y-3.124
X8.7366Y-2.1882
X8.7437Y-3.0575
X8.7594Y-0.837
X8.785Y-3.0957
X8.7858Y-2.2327
X8.8551Y-3.0854
X8.9327Y-3.2031
X9.0354Y-3.4346
X9.0449Y-3.4701
X9.0543Y-2.7276
X9.1311Y-2.698
X9.2157Y-3.4303
X9.398Y-1.7854
X9.4161Y-1.4189
X9.4346Y-1.9394
X9.4667Y-1.2994
X9.5244Y-1.7846
X9.5417Y-1.511
X9.565Y-1.511
X9.5673Y-1.4732
X9.5689Y-1.422
X9.5878Y-1.7429
X9.6228Y-1.8484
X9.6661Y-1.6469
X9.6681Y-1.9878
X9.6913Y-1.6406
X9.6984Y-1.1146
X9.6984Y-1.2513
X9.6988Y-1.7791
X9.7142Y-2.0705
X9.7335Y-1.7681
X9.7449Y-1.6413
X9.7575Y-1.826
X9.765Y-1.5524
X9.7673Y-1.6815
X9.7673Y-1.7169
X9.7972Y-1.3248
X9.8209Y-2.4236
X9.8217Y-1.3248
X9.8228Y-1.628
X9.8327Y-1.9953
X9.8441Y-2.1031
X9.8465Y-1.628
X9.8705Y-1.5449
X9.8815Y-2.2386
X9.9059Y-1.3028
X9.9232Y-2.2299
X9.9244Y-1.6331
X9.9512Y-1.265
T2
X8.2772Y-3.9539
X8.3772Y-3.9539
X8.9547Y-3.9555
X9.0547Y-3.9555
X9.6378Y-3.9571
X9.7378Y-3.9571
X7.5941Y-3.9535
X7.6941Y-3.9535
T4
X6.3429Y-0.8307
X6.3429Y-0.9307
X6.4429Y-0.8307
X6.4429Y-0.9307
X6.5429Y-0.8307
X6.5429Y-0.9307
X6.6429Y-0.8307
X6.6429Y-0.9307
X6.7429Y-0.8307
X6.7429Y-0.9307
X6.8429Y-0.8307
X6.8429Y-0.9307
X7.4276Y-3.6362
X7.5276Y-3.6362
X7.6276Y-3.6362
X6.9583Y-1.9469
X6.9583Y-2.0469
X8.8083Y-3.6366
X8.9083Y-3.6366
X9.0083Y-3.6366
X8.8524Y-1.4189
X8.8524Y-1.5189
X8.8524Y-1.6189
X8.8524Y-1.7189
X8.8524Y-1.8189
X8.8524Y-1.9189
X8.9524Y-1.4189
X8.9524Y-1.5189
X8.9524Y-1.6189
X8.9524Y-1.7189
X8.9524Y-1.8189
X8.9524Y-1.9189
X9.8256Y-2.1689
X9.8256Y-2.2689
X9.8256Y-2.3689
X9.0126Y-0.8311
X9.0126Y-0.9311
X9.1126Y-0.8311
X9.1126Y-0.9311
X9.2126Y-0.8311
X9.2126Y-0.9311
X9.3126Y-0.8311
X9.3126Y-0.9311
X9.4126Y-0.8311
X9.4126Y-0.9311
X9.5126Y-0.8311
X9.5126Y-0.9311
X7.3142Y-1.75
X7.3142Y-1.85
X9.8331Y-1.7264
X9.8331Y-1.8264
X9.8331Y-1.9264
X8.122Y-0.8315
X8.122Y-0.9315
X8.222Y-0.8315
X8.222Y-0.9315
X8.322Y-0.8315
X8.322Y-0.9315
X8.422Y-0.8315
X8.422Y-0.9315
X8.522Y-0.8315
X8.522Y-0.9315
X8.622Y-0.8315
X8.622Y-0.9315
X6.3Y-2.2146
X6.3Y-2.3146
X6.3Y-2.4146
X6.3Y-2.5146
X6.3Y-2.6146
X6.3Y-2.7146
X6.4Y-2.2146
X6.4Y-2.3146
X6.4Y-2.4146
X6.4Y-2.5146
X6.4Y-2.6146
X6.4Y-2.7146
X7.4638Y-1.6921
X7.4638Y-1.7921
X9.4563Y-3.6398
X9.5563Y-3.6398
X9.6563Y-3.6398
X7.2331Y-0.8307
X7.2331Y-0.9307
X7.3331Y-0.8307
X7.3331Y-0.9307
X7.4331Y-0.8307
X7.4331Y-0.9307
X7.5331Y-0.8307
X7.5331Y-0.9307
X7.6331Y-0.8307
X7.6331Y-0.9307
X7.7331Y-0.8307
X7.7331Y-0.9307
X6.3736Y-1.2693
X6.4736Y-1.2693
X6.3732Y-1.4185
X6.4732Y-1.4185
X6.285Y-1.5728
X6.385Y-1.5728
X6.485Y-1.5728
X9.4909Y-1.7248
X9.4909Y-1.8248
X9.4909Y-1.9248
X6.3744Y-1.1244
X6.4744Y-1.1244
X9.6681Y-1.726
X9.6681Y-1.826
X9.6681Y-1.926
X8.1193Y-3.6386
X8.2193Y-3.6386
X8.3193Y-3.6386
X7.1669Y-1.7508
X7.1669Y-1.8508
T5
X9.8287Y-3.0154
X9.8287Y-3.1154
X6.8862Y-3.9413
X6.9862Y-3.9413
X9.8287Y-2.7634
X9.8287Y-2.8634
T6
X9.1543Y-3.6394
X9.3047Y-2.0736
X9.3031Y-2.3681
X8.4697Y-3.6433
X9.3059Y-2.5165
X9.3035Y-2.2213
X9.8374Y-3.6402
X7.7736Y-3.6433
T7
X8.0772Y-4.1539
X8.4772Y-4.1539
X8.7547Y-4.1555
X9.1547Y-4.1555
X9.4378Y-4.1571
X9.8378Y-4.1571
X7.3941Y-4.1535
X7.7941Y-4.1535
T3
G00X6.4106Y-4.3217
M15
G01X6.4106Y-4.3846
M16
G05
G00X6.8594Y-4.3217
M15
G01X6.8594Y-4.3846
M16
G05
T0
M30
