M48
; DRILL file {KiCad 5.1.5+dfsg1-2build2} date dom 07 nov 2021 20:55:26
; FORMAT={-:-/ absolute / inch / decimal}
; #@! TF.CreationDate,2021-11-07T20:55:26-03:00
; #@! TF.GenerationSoftware,Kicad,Pcbnew,5.1.5+dfsg1-2build2
; #@! TF.FileFunction,Plated,1,4,PTH
FMAT,2
INCH
T1C0.0118
T2C0.0157
T3C0.0350
T4C0.0354
T5C0.0394
T6C0.0472
T7C0.0791
%
G90
G05
T1
X6.2567Y-3.4311
X6.2618Y-3.6669
X6.2709Y-3.4118
X6.2945Y-3.4039
X6.3213Y-2.3673
X6.322Y-2.4638
X6.326Y-1.7496
X6.3339Y-1.7933
X6.3354Y-4.3169
X6.3358Y-4.3465
X6.3358Y-4.3811
X6.3382Y-3.7047
X6.3457Y-3.315
X6.3528Y-2.1618
X6.3787Y-3.3311
X6.3827Y-3.2839
X6.3827Y-3.6693
X6.4291Y-1.9516
X6.4315Y-4.226
X6.4386Y-4.1925
X6.4465Y-1.622
X6.4488Y-3.1488
X6.4701Y-2.1476
X6.4709Y-4.3531
X6.4902Y-1.9161
X6.4976Y-2.6291
X6.5083Y-2.2291
X6.5173Y-3.5622
X6.5181Y-2.0831
X6.5197Y-1.8535
X6.5213Y-3.0665
X6.5248Y-2.6413
X6.5382Y-3.4244
X6.539Y-2.3701
X6.5425Y-2.9484
X6.5433Y-2.45
X6.5476Y-2.5177
X6.552Y-2.3004
X6.5543Y-2.7957
X6.5547Y-3.0256
X6.5579Y-2.8839
X6.5618Y-1.474
X6.5709Y-3.5039
X6.5732Y-1.6646
X6.5854Y-2.6287
X6.5906Y-3.2854
X6.5949Y-3.9071
X6.6157Y-1.6783
X6.6165Y-3.5157
X6.6171Y-3.5632
X6.6205Y-1.8319
X6.6217Y-1.5232
X6.6339Y-1.0398
X6.6406Y-4.0039
X6.6434Y-1.4084
X6.6492Y-1.4646
X6.6579Y-1.8386
X6.6618Y-2.0193
X6.665Y-2.3118
X6.665Y-2.5193
X6.665Y-2.813
X6.6673Y-2.8882
X6.6697Y-2.5921
X6.6697Y-3.6984
X6.6709Y-1.3657
X6.676Y-3.826
X6.6823Y-1.5089
X6.687Y-1.8173
X6.6882Y-1.0953
X6.6925Y-4.0657
X6.7059Y-2.4114
X6.7063Y-4.1417
X6.7071Y-1.5559
X6.7079Y-1.624
X6.7102Y-4.0988
X6.7118Y-2.1272
X6.7128Y-1.6831
X6.7189Y-1.4453
X6.7205Y-2.7146
X6.7217Y-1.3965
X6.722Y-3.0051
X6.7349Y-1.4722
X6.7354Y-1.8701
X6.7354Y-2.2618
X6.737Y-2.1142
X6.7421Y-1.5677
X6.7646Y-1.502
X6.765Y-1.0949
X6.7732Y-3.1047
X6.774Y-1.8169
X6.7756Y-1.5626
X6.7795Y-1.5937
X6.7795Y-1.885
X6.787Y-1.3972
X6.789Y-3.2843
X6.8031Y-1.5217
X6.8055Y-1.6457
X6.8063Y-1.561
X6.8063Y-3.3811
X6.8067Y-1.3299
X6.8118Y-1.4811
X6.813Y-3.328
X6.8157Y-1.7634
X6.826Y-2.0583
X6.8272Y-1.9031
X6.8397Y-1.3351
X6.8435Y-1.7541
X6.8441Y-1.3701
X6.8488Y-3.2465
X6.8602Y-4.2587
X6.8606Y-1.7319
X6.861Y-2.9941
X6.8642Y-2.38
X6.8654Y-2.3196
X6.8669Y-1.6346
X6.8764Y-3.2567
X6.8929Y-3.3047
X6.8949Y-1.1142
X6.8949Y-1.302
X6.8953Y-3.4764
X6.8969Y-4.2724
X6.9126Y-0.8299
X6.9161Y-1.3201
X6.9185Y-4.4012
X6.9205Y-4.3457
X6.9303Y-1.6374
X6.9312Y-1.7344
X6.9358Y-3.3894
X6.9445Y-3.1335
X6.9531Y-0.8748
X6.9531Y-1.2118
X6.9539Y-1.3398
X6.9575Y-1.7437
X6.963Y-1.6858
X6.9764Y-1.1835
X7.0039Y-2.4744
X7.0075Y-1.239
X7.0109Y-2.5281
X7.0291Y-1.5894
X7.0315Y-3.0417
X7.0363Y-1.9747
X7.0394Y-2.1803
X7.048Y-1.6626
X7.0504Y-2.2224
X7.0555Y-1.6358
X7.0661Y-1.5681
X7.0732Y-3.5335
X7.0732Y-3.5335
X7.074Y-1.3772
X7.074Y-3.3917
X7.0768Y-3.2228
X7.085Y-2.4163
X7.0862Y-1.5858
X7.0957Y-1.502
X7.1004Y-2.9575
X7.1098Y-1.9205
X7.1126Y-2.1211
X7.1197Y-1.615
X7.1343Y-2.5491
X7.135Y-2.6071
X7.1465Y-2.3484
X7.148Y-2.3154
X7.1673Y-1.5795
X7.1732Y-2.0874
X7.1736Y-2.2406
X7.1772Y-3.0665
X7.1894Y-1.7894
X7.1902Y-1.8929
X7.1929Y-1.3539
X7.2106Y-1.5949
X7.2173Y-1.8846
X7.2177Y-2.6219
X7.224Y-1.8004
X7.228Y-2.3524
X7.2366Y-2.985
X7.2484Y-1.5764
X7.25Y-2.0004
X7.2606Y-1.9189
X7.2701Y-2.2165
X7.2724Y-2.2465
X7.2843Y-1.3539
X7.2854Y-1.6362
X7.2898Y-2.1972
X7.2969Y-1.5413
X7.3142Y-2.4209
X7.3177Y-2.3457
X7.3339Y-2.685
X7.3358Y-1.5882
X7.3449Y-2.0699
X7.361Y-1.4035
X7.3917Y-2.1244
X7.3976Y-1.5252
X7.3984Y-2.0969
X7.4091Y-2.5618
X7.4114Y-2.5898
X7.412Y-2.5065
X7.4272Y-3.2445
X7.4409Y-2.1082
X7.4413Y-2.1685
X7.4429Y-2.2465
X7.4465Y-0.7902
X7.4465Y-0.9689
X7.4646Y-2.3937
X7.465Y-2.6205
X7.4791Y-0.9689
X7.4906Y-1.6713
X7.4972Y-2.6626
X7.5051Y-1.524
X7.5075Y-0.789
X7.5098Y-0.9689
X7.5161Y-2.1848
X7.5185Y-2.3654
X7.5425Y-2.3939
X7.5669Y-2.2469
X7.5697Y-2.5445
X7.5975Y-2.11
X7.5984Y-3.1642
X7.6126Y-2.2476
X7.6161Y-0.8654
X7.6165Y-2.687
X7.6201Y-2.3747
X7.6201Y-2.4293
X7.6276Y-2.2252
X7.6276Y-3.2791
X7.6516Y-2.0409
X7.6571Y-2.528
X7.6575Y-2.2055
X7.6618Y-2.7358
X7.6634Y-1.8154
X7.6741Y-3.1273
X7.678Y-2.3728
X7.6791Y-2.4291
X7.6937Y-2.248
X7.7016Y-1.8197
X7.7075Y-2.126
X7.7075Y-2.3134
X7.7091Y-3.2268
X7.7106Y-2.0957
X7.7137Y-2.1977
X7.7205Y-2.3457
X7.7213Y-0.8724
X7.7323Y-2.1831
X7.7402Y-1.9071
X7.7413Y-2.6173
X7.7413Y-2.6793
X7.7472Y-1.6894
X7.748Y-2.3093
X7.7522Y-3.0457
X7.7614Y-2.7425
X7.7665Y-3.026
X7.7748Y-2.4937
X7.7866Y-2.3093
X7.7894Y-1.8346
X7.7913Y-1.9933
X7.7942Y-2.3591
X7.8083Y-2.789
X7.8138Y-2.1614
X7.8154Y-1.1646
X7.8213Y-2.4864
X7.8236Y-1.8244
X7.8244Y-1.7732
X7.8343Y-2.3362
X7.8374Y-3.0654
X7.852Y-0.9992
X7.8614Y-2.0394
X7.8626Y-2.2016
X7.867Y-2.4079
X7.8716Y-2.6012
X7.8748Y-1.7681
X7.8799Y-2.3102
X7.8811Y-2.4283
X7.8819Y-2.3882
X7.9Y-2.3693
X7.9126Y-1.7681
X7.9185Y-2.5295
X7.9232Y-2.7795
X7.9236Y-2.6185
X7.9246Y-2.5925
X7.9379Y-2.8635
X7.9665Y-2.9366
X7.9701Y-2.5728
X7.9701Y-2.6346
X7.9783Y-2.1161
X7.985Y-1.5933
X7.9941Y-2.0961
X8.0094Y-2.5724
X8.0101Y-2.8526
X8.0102Y-2.6311
X8.028Y-2.1202
X8.0311Y-2.6638
X8.0321Y-2.5568
X8.0323Y-2.7264
X8.0488Y-2.5799
X8.0496Y-2.1106
X8.05Y-1.7484
X8.0594Y-2.8728
X8.0614Y-2.072
X8.0752Y-2.7862
X8.0877Y-2.7559
X8.1047Y-2.0484
X8.1083Y-2.0724
X8.128Y-2.563
X8.1365Y-2.0719
X8.1425Y-2.8311
X8.1437Y-2.7638
X8.148Y-1.8028
X8.1539Y-2.594
X8.1654Y-3.2252
X8.1658Y-2.5524
X8.1669Y-2.1031
X8.1689Y-2.0713
X8.1689Y-2.8634
X8.1758Y-2.6169
X8.1894Y-1.7642
X8.2012Y-1.9283
X8.2098Y-1.5366
X8.2171Y-2.7575
X8.2232Y-1.6823
X8.2336Y-3.2264
X8.2343Y-1.8028
X8.2362Y-2.7909
X8.2579Y-2.6232
X8.263Y-1.8646
X8.2642Y-1.4681
X8.2642Y-1.6567
X8.287Y-1.9429
X8.2898Y-2.8437
X8.3085Y-2.6412
X8.3088Y-2.2646
X8.3091Y-1.7669
X8.3094Y-1.5382
X8.3134Y-2.4932
X8.3205Y-2.4451
X8.3205Y-2.4707
X8.3209Y-2.2848
X8.3209Y-2.3094
X8.3217Y-2.6018
X8.3228Y-1.7287
X8.3394Y-2.735
X8.3583Y-1.6421
X8.3646Y-1.563
X8.3689Y-1.6894
X8.3692Y-1.8731
X8.3721Y-2.4957
X8.3827Y-2.7154
X8.3913Y-1.7465
X8.3917Y-1.4488
X8.3917Y-1.6681
X8.3973Y-2.4705
X8.4406Y-2.1236
X8.4429Y-1.5642
X8.444Y-1.7379
X8.4441Y-2.3471
X8.4512Y-1.6398
X8.4594Y-1.8102
X8.472Y-1.4449
X8.485Y-2.3945
X8.4882Y-1.2004
X8.4906Y-2.5012
X8.5246Y-2.3339
X8.5284Y-2.1642
X8.5358Y-2.5618
X8.5579Y-1.5634
X8.563Y-2.2654
X8.5724Y-2.4791
X8.5909Y-1.7091
X8.5941Y-1.6366
X8.6Y-2.4043
X8.6075Y-1.6894
X8.6469Y-2.165
X8.6496Y-2.1031
X8.6913Y-3.2528
X8.7366Y-2.1882
X8.7858Y-2.2327
X8.8476Y-2.5217
X8.8685Y-1.4646
X9.1469Y-3.0461
X9.2988Y-2.8929
X9.3366Y-1.0913
X9.3425Y-1.1752
X9.3531Y-2.839
X9.3693Y-3.213
X9.398Y-1.7854
X9.4213Y-3.5898
X9.4346Y-1.9394
X9.4516Y-1.4543
X9.4543Y-1.2197
X9.4917Y-3.2449
X9.5047Y-3.5413
X9.5063Y-3.637
X9.5122Y-0.8736
X9.5244Y-1.7846
X9.5417Y-1.511
X9.5437Y-3.25
X9.565Y-1.511
X9.5673Y-1.4732
X9.5689Y-1.422
X9.5874Y-3.5374
X9.5878Y-1.7429
X9.6024Y-1.2547
X9.6051Y-0.8748
X9.6118Y-3.6354
X9.6228Y-2.5815
X9.6264Y-3.5469
X9.6453Y-1.4154
X9.6661Y-1.6469
X9.6681Y-1.9878
X9.6811Y-3.6441
X9.6858Y-3.5398
X9.6913Y-1.6406
X9.6984Y-1.2513
X9.6988Y-1.7791
X9.7087Y-1.0012
X9.7209Y-1.0618
X9.7291Y-0.9724
X9.7295Y-3.5866
X9.7335Y-1.7681
X9.735Y-2.5354
X9.7439Y-1.3246
X9.7449Y-1.6413
X9.7559Y-2.5551
X9.765Y-1.5524
X9.7673Y-1.6815
X9.7673Y-1.7169
X9.7972Y-1.3248
X9.7988Y-1.0504
X9.7988Y-1.1976
X9.8059Y-0.9457
X9.8209Y-2.4236
X9.8217Y-1.3248
X9.8228Y-1.628
X9.824Y-1.0941
X9.8327Y-1.9953
X9.8409Y-1.2563
X9.8441Y-2.1031
X9.8465Y-1.628
X9.848Y-1.3185
X9.8677Y-1.4197
X9.8705Y-1.5449
X9.8815Y-2.2386
X9.8984Y-0.9508
X9.9059Y-1.3028
X9.9157Y-1.5228
X9.9232Y-2.2299
X9.9244Y-1.0665
X9.9244Y-1.6331
X9.9512Y-1.265
X9.9547Y-1.3909
X9.978Y-0.7846
X9.9807Y-1.2028
T2
X7.387Y-3.5398
X7.424Y-3.898
X7.424Y-3.9878
X7.4248Y-3.9441
X7.4378Y-3.6575
X7.5319Y-3.5283
X7.5701Y-3.6449
X7.6177Y-3.9429
X7.6291Y-3.6575
X7.6701Y-3.6362
X7.6866Y-3.5862
X7.8228Y-3.8957
X7.8232Y-3.9957
X7.824Y-3.9425
X7.9134Y-3.9382
X8.1252Y-3.9795
X8.1307Y-3.5256
X8.1315Y-3.6508
X8.1323Y-3.9079
X8.2358Y-3.5232
X8.2626Y-3.6409
X8.3209Y-3.937
X8.3217Y-3.8815
X8.3217Y-3.989
X8.365Y-3.6327
X8.3657Y-3.5472
X8.3815Y-3.5862
X8.8079Y-3.8921
X8.8083Y-3.9803
X8.8114Y-3.9346
X9.0028Y-3.8894
X9.0031Y-3.9689
X9.4831Y-3.9882
X9.4858Y-3.8874
X9.4866Y-3.9382
X9.672Y-3.9402
X9.678Y-3.8945
X9.6783Y-3.9862
T3
X7.4217Y-3.5937
X7.5217Y-3.5937
X7.5217Y-3.6937
X7.6217Y-3.5937
X8.1161Y-3.5886
X8.2161Y-3.5886
X8.2161Y-3.6886
X8.3161Y-3.5886
X9.4807Y-3.5886
X9.5807Y-3.5886
X9.5807Y-3.6886
X9.6807Y-3.5886
X8.802Y-3.5882
X8.902Y-3.5882
X8.902Y-3.6882
X9.002Y-3.5882
T5
X6.3744Y-1.1244
X6.4744Y-1.1244
X8.4185Y-0.8303
X8.4185Y-0.9303
X8.5185Y-0.8303
X8.5185Y-0.9303
X8.6185Y-0.8303
X8.6185Y-0.9303
X8.7185Y-0.8303
X8.7185Y-0.9303
X8.8185Y-0.8303
X8.8185Y-0.9303
X8.9185Y-0.8303
X8.9185Y-0.9303
X9.8331Y-1.7264
X9.8331Y-1.8264
X9.8331Y-1.9264
X6.3Y-2.2146
X6.3Y-2.3146
X6.3Y-2.4146
X6.3Y-2.5146
X6.3Y-2.6146
X6.3Y-2.7146
X6.4Y-2.2146
X6.4Y-2.3146
X6.4Y-2.4146
X6.4Y-2.5146
X6.4Y-2.6146
X6.4Y-2.7146
X6.9441Y-1.9465
X6.9441Y-2.0465
X6.3732Y-1.4185
X6.4732Y-1.4185
X9.6681Y-1.726
X9.6681Y-1.826
X9.6681Y-1.926
X7.4209Y-1.674
X7.4209Y-1.774
X9.4563Y-3.3476
X9.5563Y-3.3476
X9.6563Y-3.3476
X8.8083Y-3.3445
X8.9083Y-3.3445
X9.0083Y-3.3445
X9.4563Y-0.8299
X9.4563Y-0.9299
X9.5563Y-0.8299
X9.5563Y-0.9299
X9.6563Y-0.8299
X9.6563Y-0.9299
X9.7563Y-0.8299
X9.7563Y-0.9299
X9.8563Y-0.8299
X9.8563Y-0.9299
X9.9563Y-0.8299
X9.9563Y-0.9299
X8.6433Y-1.5323
X8.6871Y-1.6222
X8.731Y-1.712
X8.7332Y-1.4884
X8.7748Y-1.8019
X8.777Y-1.5783
X8.8187Y-1.8918
X8.8209Y-1.6682
X8.8625Y-1.9817
X8.8647Y-1.7581
X8.9085Y-1.848
X8.9524Y-1.9378
X7.1283Y-1.7516
X7.1283Y-1.8516
X8.1193Y-3.3465
X8.2193Y-3.3465
X8.3193Y-3.3465
X7.3803Y-0.8303
X7.3803Y-0.9303
X7.4803Y-0.8303
X7.4803Y-0.9303
X7.5803Y-0.8303
X7.5803Y-0.9303
X7.6803Y-0.8303
X7.6803Y-0.9303
X7.7803Y-0.8303
X7.7803Y-0.9303
X7.8803Y-0.8303
X7.8803Y-0.9303
X6.3114Y-1.5724
X6.4114Y-1.5724
X6.5114Y-1.5724
X7.2752Y-1.7524
X7.2752Y-1.8524
X9.4909Y-1.7248
X9.4909Y-1.8248
X9.4909Y-1.9248
X9.8256Y-2.1689
X9.8256Y-2.2689
X9.8256Y-2.3689
X6.3736Y-1.2693
X6.4736Y-1.2693
X6.3429Y-0.8307
X6.3429Y-0.9307
X6.4429Y-0.8307
X6.4429Y-0.9307
X6.5429Y-0.8307
X6.5429Y-0.9307
X6.6429Y-0.8307
X6.6429Y-0.9307
X6.7429Y-0.8307
X6.7429Y-0.9307
X6.8429Y-0.8307
X6.8429Y-0.9307
X7.4276Y-3.3441
X7.5276Y-3.3441
X7.6276Y-3.3441
T6
X9.8287Y-3.0154
X9.8287Y-3.1154
X9.8287Y-2.7634
X9.8287Y-2.8634
T7
X7.3217Y-3.9437
X7.7217Y-3.9437
X8.0161Y-3.9386
X8.4161Y-3.9386
X9.3807Y-3.9386
X9.7807Y-3.9386
X8.702Y-3.9382
X9.102Y-3.9382
T4
G00X6.4106Y-4.3217
M15
G01X6.4106Y-4.3846
M16
G05
G00X6.8594Y-4.3217
M15
G01X6.8594Y-4.3846
M16
G05
T0
M30
