G04 #@! TF.GenerationSoftware,KiCad,Pcbnew,5.1.5+dfsg1-2build2*
G04 #@! TF.CreationDate,2021-12-23T23:12:40-03:00*
G04 #@! TF.ProjectId,board_test,626f6172-645f-4746-9573-742e6b696361,rev?*
G04 #@! TF.SameCoordinates,Original*
G04 #@! TF.FileFunction,Soldermask,Bot*
G04 #@! TF.FilePolarity,Negative*
%FSLAX46Y46*%
G04 Gerber Fmt 4.6, Leading zero omitted, Abs format (unit mm)*
G04 Created by KiCad (PCBNEW 5.1.5+dfsg1-2build2) date 2021-12-23 23:12:40*
%MOMM*%
%LPD*%
G04 APERTURE LIST*
%ADD10C,0.100000*%
G04 APERTURE END LIST*
D10*
G36*
X163026228Y-108783483D02*
G01*
X163214922Y-108840723D01*
X163388815Y-108933671D01*
X163541239Y-109058761D01*
X163666329Y-109211185D01*
X163759277Y-109385078D01*
X163816517Y-109573772D01*
X163831000Y-109720825D01*
X163831000Y-111419175D01*
X163816517Y-111566228D01*
X163759277Y-111754922D01*
X163666329Y-111928815D01*
X163541239Y-112081239D01*
X163388815Y-112206329D01*
X163214921Y-112299277D01*
X163026227Y-112356517D01*
X162830000Y-112375843D01*
X162633772Y-112356517D01*
X162445078Y-112299277D01*
X162271185Y-112206329D01*
X162118761Y-112081239D01*
X161993671Y-111928815D01*
X161900723Y-111754921D01*
X161843483Y-111566227D01*
X161829000Y-111419174D01*
X161829000Y-109720825D01*
X161843483Y-109573769D01*
X161900722Y-109385081D01*
X161993672Y-109211185D01*
X162118762Y-109058761D01*
X162271186Y-108933671D01*
X162445079Y-108840723D01*
X162633773Y-108783483D01*
X162830000Y-108764157D01*
X163026228Y-108783483D01*
G37*
G36*
X174426228Y-108783483D02*
G01*
X174614922Y-108840723D01*
X174788815Y-108933671D01*
X174941239Y-109058761D01*
X175066329Y-109211185D01*
X175159277Y-109385078D01*
X175216517Y-109573772D01*
X175231000Y-109720825D01*
X175231000Y-111419175D01*
X175216517Y-111566228D01*
X175159277Y-111754922D01*
X175066329Y-111928815D01*
X174941239Y-112081239D01*
X174788815Y-112206329D01*
X174614921Y-112299277D01*
X174426227Y-112356517D01*
X174230000Y-112375843D01*
X174033772Y-112356517D01*
X173845078Y-112299277D01*
X173671185Y-112206329D01*
X173518761Y-112081239D01*
X173393671Y-111928815D01*
X173300723Y-111754921D01*
X173243483Y-111566227D01*
X173229000Y-111419174D01*
X173229000Y-109720825D01*
X173243483Y-109573769D01*
X173300722Y-109385081D01*
X173393672Y-109211185D01*
X173518762Y-109058761D01*
X173671186Y-108933671D01*
X173845079Y-108840723D01*
X174033773Y-108783483D01*
X174230000Y-108764157D01*
X174426228Y-108783483D01*
G37*
G36*
X170966601Y-109984397D02*
G01*
X171005305Y-109992096D01*
X171037340Y-110005365D01*
X171114680Y-110037400D01*
X171213115Y-110103173D01*
X171296827Y-110186885D01*
X171362600Y-110285320D01*
X171407904Y-110394696D01*
X171431000Y-110510805D01*
X171431000Y-110629195D01*
X171407904Y-110745304D01*
X171362600Y-110854680D01*
X171296827Y-110953115D01*
X171213115Y-111036827D01*
X171114680Y-111102600D01*
X171037340Y-111134635D01*
X171005305Y-111147904D01*
X170966601Y-111155603D01*
X170889195Y-111171000D01*
X170770805Y-111171000D01*
X170693399Y-111155603D01*
X170654695Y-111147904D01*
X170622660Y-111134635D01*
X170545320Y-111102600D01*
X170446885Y-111036827D01*
X170363173Y-110953115D01*
X170297400Y-110854680D01*
X170252096Y-110745304D01*
X170229000Y-110629195D01*
X170229000Y-110510805D01*
X170252096Y-110394696D01*
X170297400Y-110285320D01*
X170363173Y-110186885D01*
X170446885Y-110103173D01*
X170545320Y-110037400D01*
X170622660Y-110005365D01*
X170654695Y-109992096D01*
X170693399Y-109984397D01*
X170770805Y-109969000D01*
X170889195Y-109969000D01*
X170966601Y-109984397D01*
G37*
G36*
X166366601Y-109984397D02*
G01*
X166405305Y-109992096D01*
X166437340Y-110005365D01*
X166514680Y-110037400D01*
X166613115Y-110103173D01*
X166696827Y-110186885D01*
X166762600Y-110285320D01*
X166807904Y-110394696D01*
X166831000Y-110510805D01*
X166831000Y-110629195D01*
X166807904Y-110745304D01*
X166762600Y-110854680D01*
X166696827Y-110953115D01*
X166613115Y-111036827D01*
X166514680Y-111102600D01*
X166437340Y-111134635D01*
X166405305Y-111147904D01*
X166366601Y-111155603D01*
X166289195Y-111171000D01*
X166170805Y-111171000D01*
X166093399Y-111155603D01*
X166054695Y-111147904D01*
X166022660Y-111134635D01*
X165945320Y-111102600D01*
X165846885Y-111036827D01*
X165763173Y-110953115D01*
X165697400Y-110854680D01*
X165652096Y-110745304D01*
X165629000Y-110629195D01*
X165629000Y-110510805D01*
X165652096Y-110394696D01*
X165697400Y-110285320D01*
X165763173Y-110186885D01*
X165846885Y-110103173D01*
X165945320Y-110037400D01*
X166022660Y-110005365D01*
X166054695Y-109992096D01*
X166093399Y-109984397D01*
X166170805Y-109969000D01*
X166289195Y-109969000D01*
X166366601Y-109984397D01*
G37*
G36*
X250233058Y-102065059D02*
G01*
X250572548Y-102168042D01*
X250572550Y-102168043D01*
X250885422Y-102335277D01*
X251159661Y-102560339D01*
X251384723Y-102834578D01*
X251551957Y-103147450D01*
X251551958Y-103147452D01*
X251654941Y-103486942D01*
X251681000Y-103751525D01*
X251681000Y-107428475D01*
X251654941Y-107693058D01*
X251564091Y-107992550D01*
X251551957Y-108032550D01*
X251384723Y-108345422D01*
X251159661Y-108619661D01*
X250885423Y-108844723D01*
X250572549Y-109011957D01*
X250572547Y-109011958D01*
X250233057Y-109114941D01*
X249880000Y-109149714D01*
X249526942Y-109114941D01*
X249187452Y-109011958D01*
X249187450Y-109011957D01*
X248874578Y-108844723D01*
X248600339Y-108619661D01*
X248375277Y-108345423D01*
X248208043Y-108032549D01*
X248195909Y-107992549D01*
X248105059Y-107693057D01*
X248079000Y-107428474D01*
X248079001Y-103751525D01*
X248105060Y-103486942D01*
X248208043Y-103147452D01*
X248208044Y-103147450D01*
X248375278Y-102834578D01*
X248600340Y-102560339D01*
X248874579Y-102335277D01*
X249187451Y-102168043D01*
X249187453Y-102168042D01*
X249526943Y-102065059D01*
X249880000Y-102030286D01*
X250233058Y-102065059D01*
G37*
G36*
X240073058Y-102065059D02*
G01*
X240412548Y-102168042D01*
X240412550Y-102168043D01*
X240725422Y-102335277D01*
X240999661Y-102560339D01*
X241224723Y-102834578D01*
X241391957Y-103147450D01*
X241391958Y-103147452D01*
X241494941Y-103486942D01*
X241521000Y-103751525D01*
X241521000Y-107428475D01*
X241494941Y-107693058D01*
X241404091Y-107992550D01*
X241391957Y-108032550D01*
X241224723Y-108345422D01*
X240999661Y-108619661D01*
X240725423Y-108844723D01*
X240412549Y-109011957D01*
X240412547Y-109011958D01*
X240073057Y-109114941D01*
X239720000Y-109149714D01*
X239366942Y-109114941D01*
X239027452Y-109011958D01*
X239027450Y-109011957D01*
X238714578Y-108844723D01*
X238440339Y-108619661D01*
X238215277Y-108345423D01*
X238048043Y-108032549D01*
X238035909Y-107992549D01*
X237945059Y-107693057D01*
X237919000Y-107428474D01*
X237919001Y-103751525D01*
X237945060Y-103486942D01*
X238048043Y-103147452D01*
X238048044Y-103147450D01*
X238215278Y-102834578D01*
X238440340Y-102560339D01*
X238714579Y-102335277D01*
X239027451Y-102168043D01*
X239027453Y-102168042D01*
X239366943Y-102065059D01*
X239720000Y-102030286D01*
X240073058Y-102065059D01*
G37*
G36*
X222723058Y-102025059D02*
G01*
X223062548Y-102128042D01*
X223062550Y-102128043D01*
X223375422Y-102295277D01*
X223649661Y-102520339D01*
X223874723Y-102794578D01*
X224041957Y-103107450D01*
X224041958Y-103107452D01*
X224144941Y-103446942D01*
X224148881Y-103486944D01*
X224171000Y-103711524D01*
X224171000Y-107388476D01*
X224167060Y-107428475D01*
X224144941Y-107653058D01*
X224054091Y-107952550D01*
X224041957Y-107992550D01*
X223874723Y-108305422D01*
X223649661Y-108579661D01*
X223375423Y-108804723D01*
X223134177Y-108933671D01*
X223062547Y-108971958D01*
X222723057Y-109074941D01*
X222370000Y-109109714D01*
X222016942Y-109074941D01*
X221677452Y-108971958D01*
X221605822Y-108933671D01*
X221364578Y-108804723D01*
X221090339Y-108579661D01*
X220865277Y-108305423D01*
X220698043Y-107992549D01*
X220685909Y-107952549D01*
X220595059Y-107653057D01*
X220569000Y-107388474D01*
X220569001Y-103711525D01*
X220573926Y-103661525D01*
X220591120Y-103486944D01*
X220595060Y-103446942D01*
X220698043Y-103107452D01*
X220698044Y-103107450D01*
X220865278Y-102794578D01*
X221090340Y-102520339D01*
X221364579Y-102295277D01*
X221677451Y-102128043D01*
X221677453Y-102128042D01*
X222016943Y-102025059D01*
X222370000Y-101990286D01*
X222723058Y-102025059D01*
G37*
G36*
X232883058Y-102025059D02*
G01*
X233222548Y-102128042D01*
X233222550Y-102128043D01*
X233535422Y-102295277D01*
X233809661Y-102520339D01*
X234034723Y-102794578D01*
X234201957Y-103107450D01*
X234201958Y-103107452D01*
X234304941Y-103446942D01*
X234308881Y-103486944D01*
X234331000Y-103711524D01*
X234331000Y-107388476D01*
X234327060Y-107428475D01*
X234304941Y-107653058D01*
X234214091Y-107952550D01*
X234201957Y-107992550D01*
X234034723Y-108305422D01*
X233809661Y-108579661D01*
X233535423Y-108804723D01*
X233294177Y-108933671D01*
X233222547Y-108971958D01*
X232883057Y-109074941D01*
X232530000Y-109109714D01*
X232176942Y-109074941D01*
X231837452Y-108971958D01*
X231765822Y-108933671D01*
X231524578Y-108804723D01*
X231250339Y-108579661D01*
X231025277Y-108305423D01*
X230858043Y-107992549D01*
X230845909Y-107952549D01*
X230755059Y-107653057D01*
X230729000Y-107388474D01*
X230729001Y-103711525D01*
X230733926Y-103661525D01*
X230751120Y-103486944D01*
X230755060Y-103446942D01*
X230858043Y-103107452D01*
X230858044Y-103107450D01*
X231025278Y-102794578D01*
X231250340Y-102520339D01*
X231524579Y-102295277D01*
X231837451Y-102128043D01*
X231837453Y-102128042D01*
X232176943Y-102025059D01*
X232530000Y-101990286D01*
X232883058Y-102025059D01*
G37*
G36*
X205513058Y-101985059D02*
G01*
X205852548Y-102088042D01*
X205852550Y-102088043D01*
X206165422Y-102255277D01*
X206439661Y-102480339D01*
X206664723Y-102754578D01*
X206707483Y-102834577D01*
X206831958Y-103067452D01*
X206934941Y-103406942D01*
X206938881Y-103446944D01*
X206961000Y-103671524D01*
X206961000Y-107348476D01*
X206957060Y-107388475D01*
X206934941Y-107613058D01*
X206831958Y-107952547D01*
X206831957Y-107952550D01*
X206664723Y-108265422D01*
X206439661Y-108539661D01*
X206165423Y-108764723D01*
X205871256Y-108921958D01*
X205852547Y-108931958D01*
X205513057Y-109034941D01*
X205160000Y-109069714D01*
X204806942Y-109034941D01*
X204467452Y-108931958D01*
X204448743Y-108921958D01*
X204154578Y-108764723D01*
X203880339Y-108539661D01*
X203655277Y-108265423D01*
X203488043Y-107952549D01*
X203488042Y-107952547D01*
X203385059Y-107613057D01*
X203359000Y-107348474D01*
X203359001Y-103671525D01*
X203385060Y-103406942D01*
X203488043Y-103067452D01*
X203612518Y-102834577D01*
X203655278Y-102754578D01*
X203880340Y-102480339D01*
X204154579Y-102255277D01*
X204467451Y-102088043D01*
X204467453Y-102088042D01*
X204806943Y-101985059D01*
X205160000Y-101950286D01*
X205513058Y-101985059D01*
G37*
G36*
X215673058Y-101985059D02*
G01*
X216012548Y-102088042D01*
X216012550Y-102088043D01*
X216325422Y-102255277D01*
X216599661Y-102480339D01*
X216824723Y-102754578D01*
X216867483Y-102834577D01*
X216991958Y-103067452D01*
X217094941Y-103406942D01*
X217098881Y-103446944D01*
X217121000Y-103671524D01*
X217121000Y-107348476D01*
X217117060Y-107388475D01*
X217094941Y-107613058D01*
X216991958Y-107952547D01*
X216991957Y-107952550D01*
X216824723Y-108265422D01*
X216599661Y-108539661D01*
X216325423Y-108764723D01*
X216031256Y-108921958D01*
X216012547Y-108931958D01*
X215673057Y-109034941D01*
X215320000Y-109069714D01*
X214966942Y-109034941D01*
X214627452Y-108931958D01*
X214608743Y-108921958D01*
X214314578Y-108764723D01*
X214040339Y-108539661D01*
X213815277Y-108265423D01*
X213648043Y-107952549D01*
X213648042Y-107952547D01*
X213545059Y-107613057D01*
X213519000Y-107348474D01*
X213519001Y-103671525D01*
X213545060Y-103406942D01*
X213648043Y-103067452D01*
X213772518Y-102834577D01*
X213815278Y-102754578D01*
X214040340Y-102480339D01*
X214314579Y-102255277D01*
X214627451Y-102088043D01*
X214627453Y-102088042D01*
X214966943Y-101985059D01*
X215320000Y-101950286D01*
X215673058Y-101985059D01*
G37*
G36*
X188163058Y-101975059D02*
G01*
X188502548Y-102078042D01*
X188502550Y-102078043D01*
X188815422Y-102245277D01*
X189089661Y-102470339D01*
X189314723Y-102744578D01*
X189362829Y-102834578D01*
X189481958Y-103057452D01*
X189584941Y-103396942D01*
X189589866Y-103446944D01*
X189611000Y-103661524D01*
X189611000Y-107338476D01*
X189606075Y-107388476D01*
X189584941Y-107603058D01*
X189481958Y-107942547D01*
X189481957Y-107942550D01*
X189314723Y-108255422D01*
X189089661Y-108529661D01*
X188815423Y-108754723D01*
X188502549Y-108921957D01*
X188502547Y-108921958D01*
X188163057Y-109024941D01*
X187810000Y-109059714D01*
X187456942Y-109024941D01*
X187117452Y-108921958D01*
X186972954Y-108844722D01*
X186804578Y-108754723D01*
X186530339Y-108529661D01*
X186305277Y-108255423D01*
X186138043Y-107942549D01*
X186138042Y-107942547D01*
X186035059Y-107603057D01*
X186013925Y-107388475D01*
X186009000Y-107338475D01*
X186009001Y-103661524D01*
X186030135Y-103446944D01*
X186035060Y-103396942D01*
X186138043Y-103057452D01*
X186257172Y-102834578D01*
X186305278Y-102744578D01*
X186530340Y-102470339D01*
X186804579Y-102245277D01*
X187117451Y-102078043D01*
X187117453Y-102078042D01*
X187456943Y-101975059D01*
X187810000Y-101940286D01*
X188163058Y-101975059D01*
G37*
G36*
X198323058Y-101975059D02*
G01*
X198662548Y-102078042D01*
X198662550Y-102078043D01*
X198975422Y-102245277D01*
X199249661Y-102470339D01*
X199474723Y-102744578D01*
X199522829Y-102834578D01*
X199641958Y-103057452D01*
X199744941Y-103396942D01*
X199749866Y-103446944D01*
X199771000Y-103661524D01*
X199771000Y-107338476D01*
X199766075Y-107388476D01*
X199744941Y-107603058D01*
X199641958Y-107942547D01*
X199641957Y-107942550D01*
X199474723Y-108255422D01*
X199249661Y-108529661D01*
X198975423Y-108754723D01*
X198662549Y-108921957D01*
X198662547Y-108921958D01*
X198323057Y-109024941D01*
X197970000Y-109059714D01*
X197616942Y-109024941D01*
X197277452Y-108921958D01*
X197132954Y-108844722D01*
X196964578Y-108754723D01*
X196690339Y-108529661D01*
X196465277Y-108255423D01*
X196298043Y-107942549D01*
X196298042Y-107942547D01*
X196195059Y-107603057D01*
X196173925Y-107388475D01*
X196169000Y-107338475D01*
X196169001Y-103661524D01*
X196190135Y-103446944D01*
X196195060Y-103396942D01*
X196298043Y-103057452D01*
X196417172Y-102834578D01*
X196465278Y-102744578D01*
X196690340Y-102470339D01*
X196964579Y-102245277D01*
X197277451Y-102078043D01*
X197277453Y-102078042D01*
X197616943Y-101975059D01*
X197970000Y-101940286D01*
X198323058Y-101975059D01*
G37*
G36*
X247506823Y-99221313D02*
G01*
X247631043Y-99258995D01*
X247664012Y-99268996D01*
X247667242Y-99269976D01*
X247740241Y-99308995D01*
X247815078Y-99348996D01*
X247944659Y-99455341D01*
X248051004Y-99584922D01*
X248051005Y-99584924D01*
X248130024Y-99732758D01*
X248178687Y-99893177D01*
X248191000Y-100018197D01*
X248191000Y-101001804D01*
X248178687Y-101126823D01*
X248157326Y-101197239D01*
X248137985Y-101261000D01*
X248130024Y-101287242D01*
X248099110Y-101345078D01*
X248051004Y-101435078D01*
X247977486Y-101524659D01*
X247944659Y-101564659D01*
X247815077Y-101671005D01*
X247667241Y-101750024D01*
X247506822Y-101798687D01*
X247340000Y-101815117D01*
X247173177Y-101798687D01*
X247012758Y-101750024D01*
X246864924Y-101671005D01*
X246864922Y-101671004D01*
X246735341Y-101564659D01*
X246702514Y-101524659D01*
X246628995Y-101435077D01*
X246549976Y-101287241D01*
X246501313Y-101126822D01*
X246489000Y-101001803D01*
X246489000Y-100018197D01*
X246501314Y-99893177D01*
X246549977Y-99732758D01*
X246628996Y-99584924D01*
X246628997Y-99584922D01*
X246735342Y-99455341D01*
X246864923Y-99348996D01*
X246939760Y-99308995D01*
X247012759Y-99269976D01*
X247015990Y-99268996D01*
X247048958Y-99258995D01*
X247173178Y-99221313D01*
X247340000Y-99204883D01*
X247506823Y-99221313D01*
G37*
G36*
X244966823Y-99221313D02*
G01*
X245091043Y-99258995D01*
X245124012Y-99268996D01*
X245127242Y-99269976D01*
X245200241Y-99308995D01*
X245275078Y-99348996D01*
X245404659Y-99455341D01*
X245511004Y-99584922D01*
X245511005Y-99584924D01*
X245590024Y-99732758D01*
X245638687Y-99893177D01*
X245651000Y-100018197D01*
X245651000Y-101001804D01*
X245638687Y-101126823D01*
X245617326Y-101197239D01*
X245597985Y-101261000D01*
X245590024Y-101287242D01*
X245559110Y-101345078D01*
X245511004Y-101435078D01*
X245437486Y-101524659D01*
X245404659Y-101564659D01*
X245275077Y-101671005D01*
X245127241Y-101750024D01*
X244966822Y-101798687D01*
X244800000Y-101815117D01*
X244633177Y-101798687D01*
X244472758Y-101750024D01*
X244324924Y-101671005D01*
X244324922Y-101671004D01*
X244195341Y-101564659D01*
X244162514Y-101524659D01*
X244088995Y-101435077D01*
X244009976Y-101287241D01*
X243961313Y-101126822D01*
X243949000Y-101001803D01*
X243949000Y-100018197D01*
X243961314Y-99893177D01*
X244009977Y-99732758D01*
X244088996Y-99584924D01*
X244088997Y-99584922D01*
X244195342Y-99455341D01*
X244324923Y-99348996D01*
X244399760Y-99308995D01*
X244472759Y-99269976D01*
X244475990Y-99268996D01*
X244508958Y-99258995D01*
X244633178Y-99221313D01*
X244800000Y-99204883D01*
X244966823Y-99221313D01*
G37*
G36*
X227616823Y-99181313D02*
G01*
X227777242Y-99229976D01*
X227909906Y-99300886D01*
X227925078Y-99308996D01*
X228054659Y-99415341D01*
X228161004Y-99544922D01*
X228161005Y-99544924D01*
X228240024Y-99692758D01*
X228288687Y-99853177D01*
X228301000Y-99978197D01*
X228301000Y-100961804D01*
X228288687Y-101086823D01*
X228240024Y-101247242D01*
X228182385Y-101355076D01*
X228161004Y-101395078D01*
X228095693Y-101474659D01*
X228054659Y-101524659D01*
X227925077Y-101631005D01*
X227777241Y-101710024D01*
X227616822Y-101758687D01*
X227450000Y-101775117D01*
X227283177Y-101758687D01*
X227122758Y-101710024D01*
X226974924Y-101631005D01*
X226974922Y-101631004D01*
X226845341Y-101524659D01*
X226804307Y-101474659D01*
X226738995Y-101395077D01*
X226659976Y-101247241D01*
X226658039Y-101240854D01*
X226644132Y-101195010D01*
X226611313Y-101086822D01*
X226599000Y-100961803D01*
X226599000Y-99978197D01*
X226611314Y-99853177D01*
X226659977Y-99692758D01*
X226738996Y-99544924D01*
X226738997Y-99544922D01*
X226845342Y-99415341D01*
X226974923Y-99308996D01*
X226990095Y-99300886D01*
X227122759Y-99229976D01*
X227283178Y-99181313D01*
X227450000Y-99164883D01*
X227616823Y-99181313D01*
G37*
G36*
X230156823Y-99181313D02*
G01*
X230317242Y-99229976D01*
X230449906Y-99300886D01*
X230465078Y-99308996D01*
X230594659Y-99415341D01*
X230701004Y-99544922D01*
X230701005Y-99544924D01*
X230780024Y-99692758D01*
X230828687Y-99853177D01*
X230841000Y-99978197D01*
X230841000Y-100961804D01*
X230828687Y-101086823D01*
X230780024Y-101247242D01*
X230722385Y-101355076D01*
X230701004Y-101395078D01*
X230635693Y-101474659D01*
X230594659Y-101524659D01*
X230465077Y-101631005D01*
X230317241Y-101710024D01*
X230156822Y-101758687D01*
X229990000Y-101775117D01*
X229823177Y-101758687D01*
X229662758Y-101710024D01*
X229514924Y-101631005D01*
X229514922Y-101631004D01*
X229385341Y-101524659D01*
X229344307Y-101474659D01*
X229278995Y-101395077D01*
X229199976Y-101247241D01*
X229198039Y-101240854D01*
X229184132Y-101195010D01*
X229151313Y-101086822D01*
X229139000Y-100961803D01*
X229139000Y-99978197D01*
X229151314Y-99853177D01*
X229199977Y-99692758D01*
X229278996Y-99544924D01*
X229278997Y-99544922D01*
X229385342Y-99415341D01*
X229514923Y-99308996D01*
X229530095Y-99300886D01*
X229662759Y-99229976D01*
X229823178Y-99181313D01*
X229990000Y-99164883D01*
X230156823Y-99181313D01*
G37*
G36*
X210406823Y-99141313D02*
G01*
X210567242Y-99189976D01*
X210696367Y-99258995D01*
X210715078Y-99268996D01*
X210844659Y-99375341D01*
X210951004Y-99504922D01*
X210951005Y-99504924D01*
X211030024Y-99652758D01*
X211078687Y-99813177D01*
X211091000Y-99938197D01*
X211091000Y-100921804D01*
X211078687Y-101046823D01*
X211066552Y-101086825D01*
X211033058Y-101197242D01*
X211030024Y-101207242D01*
X210987263Y-101287242D01*
X210951004Y-101355078D01*
X210885351Y-101435076D01*
X210844659Y-101484659D01*
X210715077Y-101591005D01*
X210567241Y-101670024D01*
X210567238Y-101670025D01*
X210564007Y-101671005D01*
X210406822Y-101718687D01*
X210240000Y-101735117D01*
X210073177Y-101718687D01*
X209915992Y-101671005D01*
X209912761Y-101670025D01*
X209912758Y-101670024D01*
X209764924Y-101591005D01*
X209764922Y-101591004D01*
X209635341Y-101484659D01*
X209594649Y-101435076D01*
X209528995Y-101355077D01*
X209449976Y-101207241D01*
X209446943Y-101197241D01*
X209425581Y-101126822D01*
X209401313Y-101046822D01*
X209389000Y-100921803D01*
X209389000Y-99938197D01*
X209401314Y-99813177D01*
X209449977Y-99652758D01*
X209528996Y-99504924D01*
X209528997Y-99504922D01*
X209635342Y-99375341D01*
X209764923Y-99268996D01*
X209783634Y-99258995D01*
X209912759Y-99189976D01*
X210073178Y-99141313D01*
X210240000Y-99124883D01*
X210406823Y-99141313D01*
G37*
G36*
X212946823Y-99141313D02*
G01*
X213107242Y-99189976D01*
X213236367Y-99258995D01*
X213255078Y-99268996D01*
X213384659Y-99375341D01*
X213491004Y-99504922D01*
X213491005Y-99504924D01*
X213570024Y-99652758D01*
X213618687Y-99813177D01*
X213631000Y-99938197D01*
X213631000Y-100921804D01*
X213618687Y-101046823D01*
X213606552Y-101086825D01*
X213573058Y-101197242D01*
X213570024Y-101207242D01*
X213527263Y-101287242D01*
X213491004Y-101355078D01*
X213425351Y-101435076D01*
X213384659Y-101484659D01*
X213255077Y-101591005D01*
X213107241Y-101670024D01*
X213107238Y-101670025D01*
X213104007Y-101671005D01*
X212946822Y-101718687D01*
X212780000Y-101735117D01*
X212613177Y-101718687D01*
X212455992Y-101671005D01*
X212452761Y-101670025D01*
X212452758Y-101670024D01*
X212304924Y-101591005D01*
X212304922Y-101591004D01*
X212175341Y-101484659D01*
X212134649Y-101435076D01*
X212068995Y-101355077D01*
X211989976Y-101207241D01*
X211986943Y-101197241D01*
X211965581Y-101126822D01*
X211941313Y-101046822D01*
X211929000Y-100921803D01*
X211929000Y-99938197D01*
X211941314Y-99813177D01*
X211989977Y-99652758D01*
X212068996Y-99504924D01*
X212068997Y-99504922D01*
X212175342Y-99375341D01*
X212304923Y-99268996D01*
X212323634Y-99258995D01*
X212452759Y-99189976D01*
X212613178Y-99141313D01*
X212780000Y-99124883D01*
X212946823Y-99141313D01*
G37*
G36*
X195596823Y-99131313D02*
G01*
X195757242Y-99179976D01*
X195850783Y-99229975D01*
X195905078Y-99258996D01*
X196034659Y-99365341D01*
X196141004Y-99494922D01*
X196141005Y-99494924D01*
X196220024Y-99642758D01*
X196220025Y-99642761D01*
X196223058Y-99652761D01*
X196268687Y-99803177D01*
X196281000Y-99928197D01*
X196281000Y-100911804D01*
X196268687Y-101036823D01*
X196220024Y-101197242D01*
X196171918Y-101287241D01*
X196141004Y-101345078D01*
X196067144Y-101435076D01*
X196034659Y-101474659D01*
X195905077Y-101581005D01*
X195757241Y-101660024D01*
X195596822Y-101708687D01*
X195430000Y-101725117D01*
X195263177Y-101708687D01*
X195102758Y-101660024D01*
X194954924Y-101581005D01*
X194954922Y-101581004D01*
X194825341Y-101474659D01*
X194718995Y-101345077D01*
X194639976Y-101197241D01*
X194591313Y-101036822D01*
X194579000Y-100911803D01*
X194579000Y-99928197D01*
X194591314Y-99803177D01*
X194636943Y-99652761D01*
X194639976Y-99642761D01*
X194639977Y-99642758D01*
X194718996Y-99494924D01*
X194718997Y-99494922D01*
X194825342Y-99365341D01*
X194954923Y-99258996D01*
X195009218Y-99229975D01*
X195102759Y-99179976D01*
X195263178Y-99131313D01*
X195430000Y-99114883D01*
X195596823Y-99131313D01*
G37*
G36*
X193056823Y-99131313D02*
G01*
X193217242Y-99179976D01*
X193310783Y-99229975D01*
X193365078Y-99258996D01*
X193494659Y-99365341D01*
X193601004Y-99494922D01*
X193601005Y-99494924D01*
X193680024Y-99642758D01*
X193680025Y-99642761D01*
X193683058Y-99652761D01*
X193728687Y-99803177D01*
X193741000Y-99928197D01*
X193741000Y-100911804D01*
X193728687Y-101036823D01*
X193680024Y-101197242D01*
X193631918Y-101287241D01*
X193601004Y-101345078D01*
X193527144Y-101435076D01*
X193494659Y-101474659D01*
X193365077Y-101581005D01*
X193217241Y-101660024D01*
X193056822Y-101708687D01*
X192890000Y-101725117D01*
X192723177Y-101708687D01*
X192562758Y-101660024D01*
X192414924Y-101581005D01*
X192414922Y-101581004D01*
X192285341Y-101474659D01*
X192178995Y-101345077D01*
X192099976Y-101197241D01*
X192051313Y-101036822D01*
X192039000Y-100911803D01*
X192039000Y-99928197D01*
X192051314Y-99803177D01*
X192096943Y-99652761D01*
X192099976Y-99642761D01*
X192099977Y-99642758D01*
X192178996Y-99494924D01*
X192178997Y-99494922D01*
X192285342Y-99365341D01*
X192414923Y-99258996D01*
X192469218Y-99229975D01*
X192562759Y-99179976D01*
X192723178Y-99131313D01*
X192890000Y-99114883D01*
X193056823Y-99131313D01*
G37*
G36*
X177630547Y-98972326D02*
G01*
X177804156Y-99024990D01*
X177804158Y-99024991D01*
X177964155Y-99110511D01*
X178104397Y-99225603D01*
X178172834Y-99308995D01*
X178219489Y-99365844D01*
X178305010Y-99525843D01*
X178357674Y-99699452D01*
X178371000Y-99834756D01*
X178371000Y-100385243D01*
X178357674Y-100520548D01*
X178305010Y-100694157D01*
X178219489Y-100854156D01*
X178183729Y-100897729D01*
X178104397Y-100994397D01*
X178007729Y-101073729D01*
X177964156Y-101109489D01*
X177804157Y-101195010D01*
X177630548Y-101247674D01*
X177450000Y-101265456D01*
X177269453Y-101247674D01*
X177095844Y-101195010D01*
X176935845Y-101109489D01*
X176892272Y-101073729D01*
X176795604Y-100994397D01*
X176680513Y-100854157D01*
X176680512Y-100854155D01*
X176594990Y-100694157D01*
X176542326Y-100520548D01*
X176529000Y-100385244D01*
X176529000Y-99834757D01*
X176542326Y-99699453D01*
X176594990Y-99525844D01*
X176632675Y-99455341D01*
X176680511Y-99365845D01*
X176795603Y-99225603D01*
X176921388Y-99122375D01*
X176935844Y-99110511D01*
X177095843Y-99024990D01*
X177269452Y-98972326D01*
X177450000Y-98954544D01*
X177630547Y-98972326D01*
G37*
G36*
X175689561Y-98962966D02*
G01*
X175722383Y-98972923D01*
X175752632Y-98989092D01*
X175779148Y-99010852D01*
X175800908Y-99037368D01*
X175817077Y-99067617D01*
X175827034Y-99100439D01*
X175831000Y-99140713D01*
X175831000Y-101079287D01*
X175827034Y-101119561D01*
X175817077Y-101152383D01*
X175800908Y-101182632D01*
X175779148Y-101209148D01*
X175752632Y-101230908D01*
X175722383Y-101247077D01*
X175689561Y-101257034D01*
X175649287Y-101261000D01*
X174170713Y-101261000D01*
X174130439Y-101257034D01*
X174097617Y-101247077D01*
X174067368Y-101230908D01*
X174040852Y-101209148D01*
X174019092Y-101182632D01*
X174002923Y-101152383D01*
X173992966Y-101119561D01*
X173989000Y-101079287D01*
X173989000Y-99140713D01*
X173992966Y-99100439D01*
X174002923Y-99067617D01*
X174019092Y-99037368D01*
X174040852Y-99010852D01*
X174067368Y-98989092D01*
X174097617Y-98972923D01*
X174130439Y-98962966D01*
X174170713Y-98959000D01*
X175649287Y-98959000D01*
X175689561Y-98962966D01*
G37*
G36*
X197844072Y-91240918D02*
G01*
X198089939Y-91342759D01*
X198191483Y-91410609D01*
X198311211Y-91490609D01*
X198499391Y-91678789D01*
X198647242Y-91900063D01*
X198749082Y-92145928D01*
X198801000Y-92406937D01*
X198801000Y-92673063D01*
X198749082Y-92934072D01*
X198651998Y-93168456D01*
X198647241Y-93179939D01*
X198576122Y-93286375D01*
X198499391Y-93401211D01*
X198311211Y-93589391D01*
X198239597Y-93637242D01*
X198089939Y-93737241D01*
X198089938Y-93737242D01*
X198089937Y-93737242D01*
X197844072Y-93839082D01*
X197583063Y-93891000D01*
X197316937Y-93891000D01*
X197055928Y-93839082D01*
X196810063Y-93737242D01*
X196810062Y-93737242D01*
X196810061Y-93737241D01*
X196660403Y-93637242D01*
X196588789Y-93589391D01*
X196400609Y-93401211D01*
X196323878Y-93286375D01*
X196252759Y-93179939D01*
X196248003Y-93168456D01*
X196150918Y-92934072D01*
X196099000Y-92673063D01*
X196099000Y-92406937D01*
X196150918Y-92145928D01*
X196252758Y-91900063D01*
X196400609Y-91678789D01*
X196588789Y-91490609D01*
X196708517Y-91410609D01*
X196810061Y-91342759D01*
X197055928Y-91240918D01*
X197316937Y-91189000D01*
X197583063Y-91189000D01*
X197844072Y-91240918D01*
G37*
G36*
X215524072Y-91240918D02*
G01*
X215769939Y-91342759D01*
X215871483Y-91410609D01*
X215991211Y-91490609D01*
X216179391Y-91678789D01*
X216327242Y-91900063D01*
X216429082Y-92145928D01*
X216481000Y-92406937D01*
X216481000Y-92673063D01*
X216429082Y-92934072D01*
X216331998Y-93168456D01*
X216327241Y-93179939D01*
X216256122Y-93286375D01*
X216179391Y-93401211D01*
X215991211Y-93589391D01*
X215919597Y-93637242D01*
X215769939Y-93737241D01*
X215769938Y-93737242D01*
X215769937Y-93737242D01*
X215524072Y-93839082D01*
X215263063Y-93891000D01*
X214996937Y-93891000D01*
X214735928Y-93839082D01*
X214490063Y-93737242D01*
X214490062Y-93737242D01*
X214490061Y-93737241D01*
X214340403Y-93637242D01*
X214268789Y-93589391D01*
X214080609Y-93401211D01*
X214003878Y-93286375D01*
X213932759Y-93179939D01*
X213928003Y-93168456D01*
X213830918Y-92934072D01*
X213779000Y-92673063D01*
X213779000Y-92406937D01*
X213830918Y-92145928D01*
X213932758Y-91900063D01*
X214080609Y-91678789D01*
X214268789Y-91490609D01*
X214388517Y-91410609D01*
X214490061Y-91342759D01*
X214735928Y-91240918D01*
X214996937Y-91189000D01*
X215263063Y-91189000D01*
X215524072Y-91240918D01*
G37*
G36*
X250163525Y-91140918D02*
G01*
X250264072Y-91160918D01*
X250509939Y-91262759D01*
X250731212Y-91410610D01*
X250919390Y-91598788D01*
X251053879Y-91800063D01*
X251067242Y-91820063D01*
X251169082Y-92065928D01*
X251221000Y-92326937D01*
X251221000Y-92593063D01*
X251169082Y-92854072D01*
X251067242Y-93099937D01*
X250922622Y-93316376D01*
X250919390Y-93321212D01*
X250731212Y-93509390D01*
X250509939Y-93657241D01*
X250509938Y-93657242D01*
X250509937Y-93657242D01*
X250264072Y-93759082D01*
X250003063Y-93811000D01*
X249736937Y-93811000D01*
X249475928Y-93759082D01*
X249230063Y-93657242D01*
X249230062Y-93657242D01*
X249230061Y-93657241D01*
X249008788Y-93509390D01*
X248820610Y-93321212D01*
X248817379Y-93316376D01*
X248672758Y-93099937D01*
X248570918Y-92854072D01*
X248519000Y-92593063D01*
X248519000Y-92326937D01*
X248570918Y-92065928D01*
X248672758Y-91820063D01*
X248686122Y-91800063D01*
X248820610Y-91598788D01*
X249008788Y-91410610D01*
X249230061Y-91262759D01*
X249475928Y-91160918D01*
X249576475Y-91140918D01*
X249736937Y-91109000D01*
X250003063Y-91109000D01*
X250163525Y-91140918D01*
G37*
G36*
X232914072Y-91140918D02*
G01*
X233155495Y-91240918D01*
X233159939Y-91242759D01*
X233189869Y-91262758D01*
X233381211Y-91390609D01*
X233569391Y-91578789D01*
X233630435Y-91670147D01*
X233714292Y-91795647D01*
X233717242Y-91800063D01*
X233819082Y-92045928D01*
X233871000Y-92306937D01*
X233871000Y-92573063D01*
X233819082Y-92834072D01*
X233740266Y-93024353D01*
X233717241Y-93079939D01*
X233569390Y-93301212D01*
X233381212Y-93489390D01*
X233159939Y-93637241D01*
X233159938Y-93637242D01*
X233159937Y-93637242D01*
X232914072Y-93739082D01*
X232653063Y-93791000D01*
X232386937Y-93791000D01*
X232125928Y-93739082D01*
X231880063Y-93637242D01*
X231880062Y-93637242D01*
X231880061Y-93637241D01*
X231658788Y-93489390D01*
X231470610Y-93301212D01*
X231322759Y-93079939D01*
X231299735Y-93024353D01*
X231220918Y-92834072D01*
X231169000Y-92573063D01*
X231169000Y-92306937D01*
X231220918Y-92045928D01*
X231322758Y-91800063D01*
X231325709Y-91795647D01*
X231409565Y-91670147D01*
X231470609Y-91578789D01*
X231658789Y-91390609D01*
X231850131Y-91262758D01*
X231880061Y-91242759D01*
X231884506Y-91240918D01*
X232125928Y-91140918D01*
X232386937Y-91089000D01*
X232653063Y-91089000D01*
X232914072Y-91140918D01*
G37*
G36*
X242841988Y-91553624D02*
G01*
X242992812Y-91583624D01*
X243156784Y-91651544D01*
X243304354Y-91750147D01*
X243429853Y-91875646D01*
X243528456Y-92023216D01*
X243596376Y-92187188D01*
X243631000Y-92361259D01*
X243631000Y-92538741D01*
X243596376Y-92712812D01*
X243528456Y-92876784D01*
X243429853Y-93024354D01*
X243304354Y-93149853D01*
X243156784Y-93248456D01*
X242992812Y-93316376D01*
X242843512Y-93346073D01*
X242818742Y-93351000D01*
X242641258Y-93351000D01*
X242616488Y-93346073D01*
X242467188Y-93316376D01*
X242303216Y-93248456D01*
X242155646Y-93149853D01*
X242030147Y-93024354D01*
X241931544Y-92876784D01*
X241863624Y-92712812D01*
X241829000Y-92538741D01*
X241829000Y-92361259D01*
X241863624Y-92187188D01*
X241931544Y-92023216D01*
X242030147Y-91875646D01*
X242155646Y-91750147D01*
X242303216Y-91651544D01*
X242467188Y-91583624D01*
X242618012Y-91553624D01*
X242641258Y-91549000D01*
X242818742Y-91549000D01*
X242841988Y-91553624D01*
G37*
G36*
X245381988Y-91553624D02*
G01*
X245532812Y-91583624D01*
X245696784Y-91651544D01*
X245844354Y-91750147D01*
X245969853Y-91875646D01*
X246068456Y-92023216D01*
X246136376Y-92187188D01*
X246171000Y-92361259D01*
X246171000Y-92538741D01*
X246136376Y-92712812D01*
X246068456Y-92876784D01*
X245969853Y-93024354D01*
X245844354Y-93149853D01*
X245696784Y-93248456D01*
X245532812Y-93316376D01*
X245383512Y-93346073D01*
X245358742Y-93351000D01*
X245181258Y-93351000D01*
X245156488Y-93346073D01*
X245007188Y-93316376D01*
X244843216Y-93248456D01*
X244695646Y-93149853D01*
X244570147Y-93024354D01*
X244471544Y-92876784D01*
X244403624Y-92712812D01*
X244369000Y-92538741D01*
X244369000Y-92361259D01*
X244403624Y-92187188D01*
X244471544Y-92023216D01*
X244570147Y-91875646D01*
X244695646Y-91750147D01*
X244843216Y-91651544D01*
X245007188Y-91583624D01*
X245158012Y-91553624D01*
X245181258Y-91549000D01*
X245358742Y-91549000D01*
X245381988Y-91553624D01*
G37*
G36*
X241091000Y-93351000D02*
G01*
X239289000Y-93351000D01*
X239289000Y-91549000D01*
X241091000Y-91549000D01*
X241091000Y-93351000D01*
G37*
G36*
X208883512Y-91523927D02*
G01*
X209032812Y-91553624D01*
X209196784Y-91621544D01*
X209344354Y-91720147D01*
X209469853Y-91845646D01*
X209568456Y-91993216D01*
X209636376Y-92157188D01*
X209671000Y-92331259D01*
X209671000Y-92508741D01*
X209636376Y-92682812D01*
X209568456Y-92846784D01*
X209469853Y-92994354D01*
X209344354Y-93119853D01*
X209196784Y-93218456D01*
X209032812Y-93286376D01*
X208883512Y-93316073D01*
X208858742Y-93321000D01*
X208681258Y-93321000D01*
X208656488Y-93316073D01*
X208507188Y-93286376D01*
X208343216Y-93218456D01*
X208195646Y-93119853D01*
X208070147Y-92994354D01*
X207971544Y-92846784D01*
X207903624Y-92682812D01*
X207869000Y-92508741D01*
X207869000Y-92331259D01*
X207903624Y-92157188D01*
X207971544Y-91993216D01*
X208070147Y-91845646D01*
X208195646Y-91720147D01*
X208343216Y-91621544D01*
X208507188Y-91553624D01*
X208656488Y-91523927D01*
X208681258Y-91519000D01*
X208858742Y-91519000D01*
X208883512Y-91523927D01*
G37*
G36*
X211423512Y-91523927D02*
G01*
X211572812Y-91553624D01*
X211736784Y-91621544D01*
X211884354Y-91720147D01*
X212009853Y-91845646D01*
X212108456Y-91993216D01*
X212176376Y-92157188D01*
X212211000Y-92331259D01*
X212211000Y-92508741D01*
X212176376Y-92682812D01*
X212108456Y-92846784D01*
X212009853Y-92994354D01*
X211884354Y-93119853D01*
X211736784Y-93218456D01*
X211572812Y-93286376D01*
X211423512Y-93316073D01*
X211398742Y-93321000D01*
X211221258Y-93321000D01*
X211196488Y-93316073D01*
X211047188Y-93286376D01*
X210883216Y-93218456D01*
X210735646Y-93119853D01*
X210610147Y-92994354D01*
X210511544Y-92846784D01*
X210443624Y-92682812D01*
X210409000Y-92508741D01*
X210409000Y-92331259D01*
X210443624Y-92157188D01*
X210511544Y-91993216D01*
X210610147Y-91845646D01*
X210735646Y-91720147D01*
X210883216Y-91621544D01*
X211047188Y-91553624D01*
X211196488Y-91523927D01*
X211221258Y-91519000D01*
X211398742Y-91519000D01*
X211423512Y-91523927D01*
G37*
G36*
X207131000Y-93321000D02*
G01*
X205329000Y-93321000D01*
X205329000Y-91519000D01*
X207131000Y-91519000D01*
X207131000Y-93321000D01*
G37*
G36*
X228923512Y-91473927D02*
G01*
X229072812Y-91503624D01*
X229236784Y-91571544D01*
X229384354Y-91670147D01*
X229509853Y-91795646D01*
X229608456Y-91943216D01*
X229676376Y-92107188D01*
X229711000Y-92281259D01*
X229711000Y-92458741D01*
X229676376Y-92632812D01*
X229608456Y-92796784D01*
X229509853Y-92944354D01*
X229384354Y-93069853D01*
X229236784Y-93168456D01*
X229072812Y-93236376D01*
X228923512Y-93266073D01*
X228898742Y-93271000D01*
X228721258Y-93271000D01*
X228696488Y-93266073D01*
X228547188Y-93236376D01*
X228383216Y-93168456D01*
X228235646Y-93069853D01*
X228110147Y-92944354D01*
X228011544Y-92796784D01*
X227943624Y-92632812D01*
X227909000Y-92458741D01*
X227909000Y-92281259D01*
X227943624Y-92107188D01*
X228011544Y-91943216D01*
X228110147Y-91795646D01*
X228235646Y-91670147D01*
X228383216Y-91571544D01*
X228547188Y-91503624D01*
X228696488Y-91473927D01*
X228721258Y-91469000D01*
X228898742Y-91469000D01*
X228923512Y-91473927D01*
G37*
G36*
X224631000Y-93271000D02*
G01*
X222829000Y-93271000D01*
X222829000Y-91469000D01*
X224631000Y-91469000D01*
X224631000Y-93271000D01*
G37*
G36*
X226383512Y-91473927D02*
G01*
X226532812Y-91503624D01*
X226696784Y-91571544D01*
X226844354Y-91670147D01*
X226969853Y-91795646D01*
X227068456Y-91943216D01*
X227136376Y-92107188D01*
X227171000Y-92281259D01*
X227171000Y-92458741D01*
X227136376Y-92632812D01*
X227068456Y-92796784D01*
X226969853Y-92944354D01*
X226844354Y-93069853D01*
X226696784Y-93168456D01*
X226532812Y-93236376D01*
X226383512Y-93266073D01*
X226358742Y-93271000D01*
X226181258Y-93271000D01*
X226156488Y-93266073D01*
X226007188Y-93236376D01*
X225843216Y-93168456D01*
X225695646Y-93069853D01*
X225570147Y-92944354D01*
X225471544Y-92796784D01*
X225403624Y-92632812D01*
X225369000Y-92458741D01*
X225369000Y-92281259D01*
X225403624Y-92107188D01*
X225471544Y-91943216D01*
X225570147Y-91795646D01*
X225695646Y-91670147D01*
X225843216Y-91571544D01*
X226007188Y-91503624D01*
X226156488Y-91473927D01*
X226181258Y-91469000D01*
X226358742Y-91469000D01*
X226383512Y-91473927D01*
G37*
G36*
X193853512Y-91463927D02*
G01*
X194002812Y-91493624D01*
X194166784Y-91561544D01*
X194314354Y-91660147D01*
X194439853Y-91785646D01*
X194538456Y-91933216D01*
X194606376Y-92097188D01*
X194641000Y-92271259D01*
X194641000Y-92448741D01*
X194606376Y-92622812D01*
X194538456Y-92786784D01*
X194439853Y-92934354D01*
X194314354Y-93059853D01*
X194166784Y-93158456D01*
X194002812Y-93226376D01*
X193853512Y-93256073D01*
X193828742Y-93261000D01*
X193651258Y-93261000D01*
X193626488Y-93256073D01*
X193477188Y-93226376D01*
X193313216Y-93158456D01*
X193165646Y-93059853D01*
X193040147Y-92934354D01*
X192941544Y-92786784D01*
X192873624Y-92622812D01*
X192839000Y-92448741D01*
X192839000Y-92271259D01*
X192873624Y-92097188D01*
X192941544Y-91933216D01*
X193040147Y-91785646D01*
X193165646Y-91660147D01*
X193313216Y-91561544D01*
X193477188Y-91493624D01*
X193626488Y-91463927D01*
X193651258Y-91459000D01*
X193828742Y-91459000D01*
X193853512Y-91463927D01*
G37*
G36*
X191313512Y-91463927D02*
G01*
X191462812Y-91493624D01*
X191626784Y-91561544D01*
X191774354Y-91660147D01*
X191899853Y-91785646D01*
X191998456Y-91933216D01*
X192066376Y-92097188D01*
X192101000Y-92271259D01*
X192101000Y-92448741D01*
X192066376Y-92622812D01*
X191998456Y-92786784D01*
X191899853Y-92934354D01*
X191774354Y-93059853D01*
X191626784Y-93158456D01*
X191462812Y-93226376D01*
X191313512Y-93256073D01*
X191288742Y-93261000D01*
X191111258Y-93261000D01*
X191086488Y-93256073D01*
X190937188Y-93226376D01*
X190773216Y-93158456D01*
X190625646Y-93059853D01*
X190500147Y-92934354D01*
X190401544Y-92786784D01*
X190333624Y-92622812D01*
X190299000Y-92448741D01*
X190299000Y-92271259D01*
X190333624Y-92097188D01*
X190401544Y-91933216D01*
X190500147Y-91785646D01*
X190625646Y-91660147D01*
X190773216Y-91561544D01*
X190937188Y-91493624D01*
X191086488Y-91463927D01*
X191111258Y-91459000D01*
X191288742Y-91459000D01*
X191313512Y-91463927D01*
G37*
G36*
X189561000Y-93261000D02*
G01*
X187759000Y-93261000D01*
X187759000Y-91459000D01*
X189561000Y-91459000D01*
X189561000Y-93261000D01*
G37*
G36*
X250659561Y-78212966D02*
G01*
X250692383Y-78222923D01*
X250722632Y-78239092D01*
X250749148Y-78260852D01*
X250770908Y-78287368D01*
X250787077Y-78317617D01*
X250797034Y-78350439D01*
X250801000Y-78390713D01*
X250801000Y-79869287D01*
X250797034Y-79909561D01*
X250787077Y-79942383D01*
X250770908Y-79972632D01*
X250749148Y-79999148D01*
X250722632Y-80020908D01*
X250692383Y-80037077D01*
X250659561Y-80047034D01*
X250619287Y-80051000D01*
X248680713Y-80051000D01*
X248640439Y-80047034D01*
X248607617Y-80037077D01*
X248577368Y-80020908D01*
X248550852Y-79999148D01*
X248529092Y-79972632D01*
X248512923Y-79942383D01*
X248502966Y-79909561D01*
X248499000Y-79869287D01*
X248499000Y-78390713D01*
X248502966Y-78350439D01*
X248512923Y-78317617D01*
X248529092Y-78287368D01*
X248550852Y-78260852D01*
X248577368Y-78239092D01*
X248607617Y-78222923D01*
X248640439Y-78212966D01*
X248680713Y-78209000D01*
X250619287Y-78209000D01*
X250659561Y-78212966D01*
G37*
G36*
X249970345Y-75673442D02*
G01*
X250060548Y-75682326D01*
X250234157Y-75734990D01*
X250394156Y-75820511D01*
X250437729Y-75856271D01*
X250534397Y-75935603D01*
X250613729Y-76032271D01*
X250649489Y-76075844D01*
X250735010Y-76235843D01*
X250787674Y-76409452D01*
X250805456Y-76590000D01*
X250787674Y-76770548D01*
X250735010Y-76944157D01*
X250649489Y-77104156D01*
X250613729Y-77147729D01*
X250534397Y-77244397D01*
X250437729Y-77323729D01*
X250394156Y-77359489D01*
X250234157Y-77445010D01*
X250060548Y-77497674D01*
X249970345Y-77506558D01*
X249925245Y-77511000D01*
X249374755Y-77511000D01*
X249329655Y-77506558D01*
X249239452Y-77497674D01*
X249065843Y-77445010D01*
X248905844Y-77359489D01*
X248862271Y-77323729D01*
X248765603Y-77244397D01*
X248686271Y-77147729D01*
X248650511Y-77104156D01*
X248564990Y-76944157D01*
X248512326Y-76770548D01*
X248494544Y-76590000D01*
X248512326Y-76409452D01*
X248564990Y-76235843D01*
X248650511Y-76075844D01*
X248686271Y-76032271D01*
X248765603Y-75935603D01*
X248862271Y-75856271D01*
X248905844Y-75820511D01*
X249065843Y-75734990D01*
X249239452Y-75682326D01*
X249329655Y-75673442D01*
X249374755Y-75669000D01*
X249925245Y-75669000D01*
X249970345Y-75673442D01*
G37*
G36*
X250659561Y-71812966D02*
G01*
X250692383Y-71822923D01*
X250722632Y-71839092D01*
X250749148Y-71860852D01*
X250770908Y-71887368D01*
X250787077Y-71917617D01*
X250797034Y-71950439D01*
X250801000Y-71990713D01*
X250801000Y-73469287D01*
X250797034Y-73509561D01*
X250787077Y-73542383D01*
X250770908Y-73572632D01*
X250749148Y-73599148D01*
X250722632Y-73620908D01*
X250692383Y-73637077D01*
X250659561Y-73647034D01*
X250619287Y-73651000D01*
X248680713Y-73651000D01*
X248640439Y-73647034D01*
X248607617Y-73637077D01*
X248577368Y-73620908D01*
X248550852Y-73599148D01*
X248529092Y-73572632D01*
X248512923Y-73542383D01*
X248502966Y-73509561D01*
X248499000Y-73469287D01*
X248499000Y-71990713D01*
X248502966Y-71950439D01*
X248512923Y-71917617D01*
X248529092Y-71887368D01*
X248550852Y-71860852D01*
X248577368Y-71839092D01*
X248607617Y-71822923D01*
X248640439Y-71812966D01*
X248680713Y-71809000D01*
X250619287Y-71809000D01*
X250659561Y-71812966D01*
G37*
G36*
X249970345Y-69273442D02*
G01*
X250060548Y-69282326D01*
X250234157Y-69334990D01*
X250394156Y-69420511D01*
X250437729Y-69456271D01*
X250534397Y-69535603D01*
X250613729Y-69632271D01*
X250649489Y-69675844D01*
X250735010Y-69835843D01*
X250787674Y-70009452D01*
X250805456Y-70190000D01*
X250787674Y-70370548D01*
X250735010Y-70544157D01*
X250649489Y-70704156D01*
X250613729Y-70747729D01*
X250534397Y-70844397D01*
X250437729Y-70923729D01*
X250394156Y-70959489D01*
X250234157Y-71045010D01*
X250060548Y-71097674D01*
X249970345Y-71106558D01*
X249925245Y-71111000D01*
X249374755Y-71111000D01*
X249329655Y-71106558D01*
X249239452Y-71097674D01*
X249065843Y-71045010D01*
X248905844Y-70959489D01*
X248862271Y-70923729D01*
X248765603Y-70844397D01*
X248686271Y-70747729D01*
X248650511Y-70704156D01*
X248564990Y-70544157D01*
X248512326Y-70370548D01*
X248494544Y-70190000D01*
X248512326Y-70009452D01*
X248564990Y-69835843D01*
X248650511Y-69675844D01*
X248686271Y-69632271D01*
X248765603Y-69535603D01*
X248862271Y-69456271D01*
X248905844Y-69420511D01*
X249065843Y-69334990D01*
X249239452Y-69282326D01*
X249329655Y-69273442D01*
X249374755Y-69269000D01*
X249925245Y-69269000D01*
X249970345Y-69273442D01*
G37*
G36*
X163461000Y-69851000D02*
G01*
X161659000Y-69851000D01*
X161659000Y-68049000D01*
X163461000Y-68049000D01*
X163461000Y-69851000D01*
G37*
G36*
X160133512Y-68053927D02*
G01*
X160282812Y-68083624D01*
X160446784Y-68151544D01*
X160594354Y-68250147D01*
X160719853Y-68375646D01*
X160818456Y-68523216D01*
X160886376Y-68687188D01*
X160921000Y-68861259D01*
X160921000Y-69038741D01*
X160886376Y-69212812D01*
X160818456Y-69376784D01*
X160719853Y-69524354D01*
X160594354Y-69649853D01*
X160446784Y-69748456D01*
X160282812Y-69816376D01*
X160133512Y-69846073D01*
X160108742Y-69851000D01*
X159931258Y-69851000D01*
X159906488Y-69846073D01*
X159757188Y-69816376D01*
X159593216Y-69748456D01*
X159445646Y-69649853D01*
X159320147Y-69524354D01*
X159221544Y-69376784D01*
X159153624Y-69212812D01*
X159119000Y-69038741D01*
X159119000Y-68861259D01*
X159153624Y-68687188D01*
X159221544Y-68523216D01*
X159320147Y-68375646D01*
X159445646Y-68250147D01*
X159593216Y-68151544D01*
X159757188Y-68083624D01*
X159906488Y-68053927D01*
X159931258Y-68049000D01*
X160108742Y-68049000D01*
X160133512Y-68053927D01*
G37*
G36*
X160133512Y-65513927D02*
G01*
X160282812Y-65543624D01*
X160446784Y-65611544D01*
X160594354Y-65710147D01*
X160719853Y-65835646D01*
X160818456Y-65983216D01*
X160886376Y-66147188D01*
X160921000Y-66321259D01*
X160921000Y-66498741D01*
X160886376Y-66672812D01*
X160818456Y-66836784D01*
X160719853Y-66984354D01*
X160594354Y-67109853D01*
X160446784Y-67208456D01*
X160282812Y-67276376D01*
X160133512Y-67306073D01*
X160108742Y-67311000D01*
X159931258Y-67311000D01*
X159906488Y-67306073D01*
X159757188Y-67276376D01*
X159593216Y-67208456D01*
X159445646Y-67109853D01*
X159320147Y-66984354D01*
X159221544Y-66836784D01*
X159153624Y-66672812D01*
X159119000Y-66498741D01*
X159119000Y-66321259D01*
X159153624Y-66147188D01*
X159221544Y-65983216D01*
X159320147Y-65835646D01*
X159445646Y-65710147D01*
X159593216Y-65611544D01*
X159757188Y-65543624D01*
X159906488Y-65513927D01*
X159931258Y-65509000D01*
X160108742Y-65509000D01*
X160133512Y-65513927D01*
G37*
G36*
X162673512Y-65513927D02*
G01*
X162822812Y-65543624D01*
X162986784Y-65611544D01*
X163134354Y-65710147D01*
X163259853Y-65835646D01*
X163358456Y-65983216D01*
X163426376Y-66147188D01*
X163461000Y-66321259D01*
X163461000Y-66498741D01*
X163426376Y-66672812D01*
X163358456Y-66836784D01*
X163259853Y-66984354D01*
X163134354Y-67109853D01*
X162986784Y-67208456D01*
X162822812Y-67276376D01*
X162673512Y-67306073D01*
X162648742Y-67311000D01*
X162471258Y-67311000D01*
X162446488Y-67306073D01*
X162297188Y-67276376D01*
X162133216Y-67208456D01*
X161985646Y-67109853D01*
X161860147Y-66984354D01*
X161761544Y-66836784D01*
X161693624Y-66672812D01*
X161659000Y-66498741D01*
X161659000Y-66321259D01*
X161693624Y-66147188D01*
X161761544Y-65983216D01*
X161860147Y-65835646D01*
X161985646Y-65710147D01*
X162133216Y-65611544D01*
X162297188Y-65543624D01*
X162446488Y-65513927D01*
X162471258Y-65509000D01*
X162648742Y-65509000D01*
X162673512Y-65513927D01*
G37*
G36*
X236764072Y-62620918D02*
G01*
X237009939Y-62722759D01*
X237121328Y-62797187D01*
X237231211Y-62870609D01*
X237419391Y-63058789D01*
X237567242Y-63280063D01*
X237669082Y-63525928D01*
X237719871Y-63781259D01*
X237721000Y-63786938D01*
X237721000Y-64053062D01*
X237669082Y-64314072D01*
X237567241Y-64559939D01*
X237494732Y-64668456D01*
X237426214Y-64771000D01*
X237419390Y-64781212D01*
X237231212Y-64969390D01*
X237009939Y-65117241D01*
X237009938Y-65117242D01*
X237009937Y-65117242D01*
X236764072Y-65219082D01*
X236503063Y-65271000D01*
X236236937Y-65271000D01*
X235975928Y-65219082D01*
X235730063Y-65117242D01*
X235730062Y-65117242D01*
X235730061Y-65117241D01*
X235508788Y-64969390D01*
X235320610Y-64781212D01*
X235313787Y-64771000D01*
X235245268Y-64668456D01*
X235172759Y-64559939D01*
X235070918Y-64314072D01*
X235019000Y-64053062D01*
X235019000Y-63786938D01*
X235020130Y-63781259D01*
X235070918Y-63525928D01*
X235172758Y-63280063D01*
X235320609Y-63058789D01*
X235508789Y-62870609D01*
X235618672Y-62797187D01*
X235730061Y-62722759D01*
X235975928Y-62620918D01*
X236236937Y-62569000D01*
X236503063Y-62569000D01*
X236764072Y-62620918D01*
G37*
G36*
X162673512Y-62973927D02*
G01*
X162822812Y-63003624D01*
X162986784Y-63071544D01*
X163134354Y-63170147D01*
X163259853Y-63295646D01*
X163358456Y-63443216D01*
X163426376Y-63607188D01*
X163461000Y-63781259D01*
X163461000Y-63958741D01*
X163426376Y-64132812D01*
X163358456Y-64296784D01*
X163259853Y-64444354D01*
X163134354Y-64569853D01*
X162986784Y-64668456D01*
X162822812Y-64736376D01*
X162673512Y-64766073D01*
X162648742Y-64771000D01*
X162471258Y-64771000D01*
X162446488Y-64766073D01*
X162297188Y-64736376D01*
X162133216Y-64668456D01*
X161985646Y-64569853D01*
X161860147Y-64444354D01*
X161761544Y-64296784D01*
X161693624Y-64132812D01*
X161659000Y-63958741D01*
X161659000Y-63781259D01*
X161693624Y-63607188D01*
X161761544Y-63443216D01*
X161860147Y-63295646D01*
X161985646Y-63170147D01*
X162133216Y-63071544D01*
X162297188Y-63003624D01*
X162446488Y-62973927D01*
X162471258Y-62969000D01*
X162648742Y-62969000D01*
X162673512Y-62973927D01*
G37*
G36*
X160133512Y-62973927D02*
G01*
X160282812Y-63003624D01*
X160446784Y-63071544D01*
X160594354Y-63170147D01*
X160719853Y-63295646D01*
X160818456Y-63443216D01*
X160886376Y-63607188D01*
X160921000Y-63781259D01*
X160921000Y-63958741D01*
X160886376Y-64132812D01*
X160818456Y-64296784D01*
X160719853Y-64444354D01*
X160594354Y-64569853D01*
X160446784Y-64668456D01*
X160282812Y-64736376D01*
X160133512Y-64766073D01*
X160108742Y-64771000D01*
X159931258Y-64771000D01*
X159906488Y-64766073D01*
X159757188Y-64736376D01*
X159593216Y-64668456D01*
X159445646Y-64569853D01*
X159320147Y-64444354D01*
X159221544Y-64296784D01*
X159153624Y-64132812D01*
X159119000Y-63958741D01*
X159119000Y-63781259D01*
X159153624Y-63607188D01*
X159221544Y-63443216D01*
X159320147Y-63295646D01*
X159445646Y-63170147D01*
X159593216Y-63071544D01*
X159757188Y-63003624D01*
X159906488Y-62973927D01*
X159931258Y-62969000D01*
X160108742Y-62969000D01*
X160133512Y-62973927D01*
G37*
G36*
X162673512Y-60433927D02*
G01*
X162822812Y-60463624D01*
X162986784Y-60531544D01*
X163134354Y-60630147D01*
X163259853Y-60755646D01*
X163358456Y-60903216D01*
X163426376Y-61067188D01*
X163461000Y-61241259D01*
X163461000Y-61418741D01*
X163426376Y-61592812D01*
X163358456Y-61756784D01*
X163259853Y-61904354D01*
X163134354Y-62029853D01*
X162986784Y-62128456D01*
X162822812Y-62196376D01*
X162673512Y-62226073D01*
X162648742Y-62231000D01*
X162471258Y-62231000D01*
X162446488Y-62226073D01*
X162297188Y-62196376D01*
X162133216Y-62128456D01*
X161985646Y-62029853D01*
X161860147Y-61904354D01*
X161761544Y-61756784D01*
X161693624Y-61592812D01*
X161659000Y-61418741D01*
X161659000Y-61241259D01*
X161693624Y-61067188D01*
X161761544Y-60903216D01*
X161860147Y-60755646D01*
X161985646Y-60630147D01*
X162133216Y-60531544D01*
X162297188Y-60463624D01*
X162446488Y-60433927D01*
X162471258Y-60429000D01*
X162648742Y-60429000D01*
X162673512Y-60433927D01*
G37*
G36*
X160133512Y-60433927D02*
G01*
X160282812Y-60463624D01*
X160446784Y-60531544D01*
X160594354Y-60630147D01*
X160719853Y-60755646D01*
X160818456Y-60903216D01*
X160886376Y-61067188D01*
X160921000Y-61241259D01*
X160921000Y-61418741D01*
X160886376Y-61592812D01*
X160818456Y-61756784D01*
X160719853Y-61904354D01*
X160594354Y-62029853D01*
X160446784Y-62128456D01*
X160282812Y-62196376D01*
X160133512Y-62226073D01*
X160108742Y-62231000D01*
X159931258Y-62231000D01*
X159906488Y-62226073D01*
X159757188Y-62196376D01*
X159593216Y-62128456D01*
X159445646Y-62029853D01*
X159320147Y-61904354D01*
X159221544Y-61756784D01*
X159153624Y-61592812D01*
X159119000Y-61418741D01*
X159119000Y-61241259D01*
X159153624Y-61067188D01*
X159221544Y-60903216D01*
X159320147Y-60755646D01*
X159445646Y-60630147D01*
X159593216Y-60531544D01*
X159757188Y-60463624D01*
X159906488Y-60433927D01*
X159931258Y-60429000D01*
X160108742Y-60429000D01*
X160133512Y-60433927D01*
G37*
G36*
X236694072Y-58850918D02*
G01*
X236939939Y-58952759D01*
X237161212Y-59100610D01*
X237349390Y-59288788D01*
X237497241Y-59510061D01*
X237599082Y-59755928D01*
X237651000Y-60016938D01*
X237651000Y-60283062D01*
X237599082Y-60544072D01*
X237497241Y-60789939D01*
X237349390Y-61011212D01*
X237161212Y-61199390D01*
X236939939Y-61347241D01*
X236939938Y-61347242D01*
X236939937Y-61347242D01*
X236694072Y-61449082D01*
X236433063Y-61501000D01*
X236166937Y-61501000D01*
X235905928Y-61449082D01*
X235660063Y-61347242D01*
X235660062Y-61347242D01*
X235660061Y-61347241D01*
X235438788Y-61199390D01*
X235250610Y-61011212D01*
X235102759Y-60789939D01*
X235000918Y-60544072D01*
X234949000Y-60283062D01*
X234949000Y-60016938D01*
X235000918Y-59755928D01*
X235102759Y-59510061D01*
X235250610Y-59288788D01*
X235438788Y-59100610D01*
X235660061Y-58952759D01*
X235905928Y-58850918D01*
X236166937Y-58799000D01*
X236433063Y-58799000D01*
X236694072Y-58850918D01*
G37*
G36*
X250471000Y-61071000D02*
G01*
X248669000Y-61071000D01*
X248669000Y-59269000D01*
X250471000Y-59269000D01*
X250471000Y-61071000D01*
G37*
G36*
X160127901Y-57892811D02*
G01*
X160282812Y-57923624D01*
X160446784Y-57991544D01*
X160594354Y-58090147D01*
X160719853Y-58215646D01*
X160818456Y-58363216D01*
X160886376Y-58527188D01*
X160921000Y-58701259D01*
X160921000Y-58878741D01*
X160886376Y-59052812D01*
X160818456Y-59216784D01*
X160719853Y-59364354D01*
X160594354Y-59489853D01*
X160446784Y-59588456D01*
X160282812Y-59656376D01*
X160133512Y-59686073D01*
X160108742Y-59691000D01*
X159931258Y-59691000D01*
X159906488Y-59686073D01*
X159757188Y-59656376D01*
X159593216Y-59588456D01*
X159445646Y-59489853D01*
X159320147Y-59364354D01*
X159221544Y-59216784D01*
X159153624Y-59052812D01*
X159119000Y-58878741D01*
X159119000Y-58701259D01*
X159153624Y-58527188D01*
X159221544Y-58363216D01*
X159320147Y-58215646D01*
X159445646Y-58090147D01*
X159593216Y-57991544D01*
X159757188Y-57923624D01*
X159912099Y-57892811D01*
X159931258Y-57889000D01*
X160108742Y-57889000D01*
X160127901Y-57892811D01*
G37*
G36*
X162667901Y-57892811D02*
G01*
X162822812Y-57923624D01*
X162986784Y-57991544D01*
X163134354Y-58090147D01*
X163259853Y-58215646D01*
X163358456Y-58363216D01*
X163426376Y-58527188D01*
X163461000Y-58701259D01*
X163461000Y-58878741D01*
X163426376Y-59052812D01*
X163358456Y-59216784D01*
X163259853Y-59364354D01*
X163134354Y-59489853D01*
X162986784Y-59588456D01*
X162822812Y-59656376D01*
X162673512Y-59686073D01*
X162648742Y-59691000D01*
X162471258Y-59691000D01*
X162446488Y-59686073D01*
X162297188Y-59656376D01*
X162133216Y-59588456D01*
X161985646Y-59489853D01*
X161860147Y-59364354D01*
X161761544Y-59216784D01*
X161693624Y-59052812D01*
X161659000Y-58878741D01*
X161659000Y-58701259D01*
X161693624Y-58527188D01*
X161761544Y-58363216D01*
X161860147Y-58215646D01*
X161985646Y-58090147D01*
X162133216Y-57991544D01*
X162297188Y-57923624D01*
X162452099Y-57892811D01*
X162471258Y-57889000D01*
X162648742Y-57889000D01*
X162667901Y-57892811D01*
G37*
G36*
X249683512Y-56733927D02*
G01*
X249832812Y-56763624D01*
X249996784Y-56831544D01*
X250144354Y-56930147D01*
X250269853Y-57055646D01*
X250368456Y-57203216D01*
X250436376Y-57367188D01*
X250471000Y-57541259D01*
X250471000Y-57718741D01*
X250436376Y-57892812D01*
X250368456Y-58056784D01*
X250269853Y-58204354D01*
X250144354Y-58329853D01*
X249996784Y-58428456D01*
X249832812Y-58496376D01*
X249683512Y-58526073D01*
X249658742Y-58531000D01*
X249481258Y-58531000D01*
X249456488Y-58526073D01*
X249307188Y-58496376D01*
X249143216Y-58428456D01*
X248995646Y-58329853D01*
X248870147Y-58204354D01*
X248771544Y-58056784D01*
X248703624Y-57892812D01*
X248669000Y-57718741D01*
X248669000Y-57541259D01*
X248703624Y-57367188D01*
X248771544Y-57203216D01*
X248870147Y-57055646D01*
X248995646Y-56930147D01*
X249143216Y-56831544D01*
X249307188Y-56763624D01*
X249456488Y-56733927D01*
X249481258Y-56729000D01*
X249658742Y-56729000D01*
X249683512Y-56733927D01*
G37*
G36*
X236704072Y-55120918D02*
G01*
X236949939Y-55222759D01*
X237061328Y-55297187D01*
X237171211Y-55370609D01*
X237359391Y-55558789D01*
X237507242Y-55780063D01*
X237609082Y-56025928D01*
X237661000Y-56286937D01*
X237661000Y-56553063D01*
X237609082Y-56814072D01*
X237511998Y-57048456D01*
X237507241Y-57059939D01*
X237359390Y-57281212D01*
X237171212Y-57469390D01*
X236949939Y-57617241D01*
X236949938Y-57617242D01*
X236949937Y-57617242D01*
X236704072Y-57719082D01*
X236443063Y-57771000D01*
X236176937Y-57771000D01*
X235915928Y-57719082D01*
X235670063Y-57617242D01*
X235670062Y-57617242D01*
X235670061Y-57617241D01*
X235448788Y-57469390D01*
X235260610Y-57281212D01*
X235112759Y-57059939D01*
X235108003Y-57048456D01*
X235010918Y-56814072D01*
X234959000Y-56553063D01*
X234959000Y-56286937D01*
X235010918Y-56025928D01*
X235112758Y-55780063D01*
X235260609Y-55558789D01*
X235448789Y-55370609D01*
X235558672Y-55297187D01*
X235670061Y-55222759D01*
X235915928Y-55120918D01*
X236176937Y-55069000D01*
X236443063Y-55069000D01*
X236704072Y-55120918D01*
G37*
G36*
X160127901Y-55352811D02*
G01*
X160282812Y-55383624D01*
X160446784Y-55451544D01*
X160594354Y-55550147D01*
X160719853Y-55675646D01*
X160818456Y-55823216D01*
X160886376Y-55987188D01*
X160921000Y-56161259D01*
X160921000Y-56338741D01*
X160886376Y-56512812D01*
X160818456Y-56676784D01*
X160719853Y-56824354D01*
X160594354Y-56949853D01*
X160446784Y-57048456D01*
X160282812Y-57116376D01*
X160133512Y-57146073D01*
X160108742Y-57151000D01*
X159931258Y-57151000D01*
X159906488Y-57146073D01*
X159757188Y-57116376D01*
X159593216Y-57048456D01*
X159445646Y-56949853D01*
X159320147Y-56824354D01*
X159221544Y-56676784D01*
X159153624Y-56512812D01*
X159119000Y-56338741D01*
X159119000Y-56161259D01*
X159153624Y-55987188D01*
X159221544Y-55823216D01*
X159320147Y-55675646D01*
X159445646Y-55550147D01*
X159593216Y-55451544D01*
X159757188Y-55383624D01*
X159912099Y-55352811D01*
X159931258Y-55349000D01*
X160108742Y-55349000D01*
X160127901Y-55352811D01*
G37*
G36*
X162667901Y-55352811D02*
G01*
X162822812Y-55383624D01*
X162986784Y-55451544D01*
X163134354Y-55550147D01*
X163259853Y-55675646D01*
X163358456Y-55823216D01*
X163426376Y-55987188D01*
X163461000Y-56161259D01*
X163461000Y-56338741D01*
X163426376Y-56512812D01*
X163358456Y-56676784D01*
X163259853Y-56824354D01*
X163134354Y-56949853D01*
X162986784Y-57048456D01*
X162822812Y-57116376D01*
X162673512Y-57146073D01*
X162648742Y-57151000D01*
X162471258Y-57151000D01*
X162446488Y-57146073D01*
X162297188Y-57116376D01*
X162133216Y-57048456D01*
X161985646Y-56949853D01*
X161860147Y-56824354D01*
X161761544Y-56676784D01*
X161693624Y-56512812D01*
X161659000Y-56338741D01*
X161659000Y-56161259D01*
X161693624Y-55987188D01*
X161761544Y-55823216D01*
X161860147Y-55675646D01*
X161985646Y-55550147D01*
X162133216Y-55451544D01*
X162297188Y-55383624D01*
X162452099Y-55352811D01*
X162471258Y-55349000D01*
X162648742Y-55349000D01*
X162667901Y-55352811D01*
G37*
G36*
X249683512Y-54193927D02*
G01*
X249832812Y-54223624D01*
X249996784Y-54291544D01*
X250144354Y-54390147D01*
X250269853Y-54515646D01*
X250368456Y-54663216D01*
X250436376Y-54827188D01*
X250471000Y-55001259D01*
X250471000Y-55178741D01*
X250436376Y-55352812D01*
X250368456Y-55516784D01*
X250269853Y-55664354D01*
X250144354Y-55789853D01*
X249996784Y-55888456D01*
X249832812Y-55956376D01*
X249683512Y-55986073D01*
X249658742Y-55991000D01*
X249481258Y-55991000D01*
X249456488Y-55986073D01*
X249307188Y-55956376D01*
X249143216Y-55888456D01*
X248995646Y-55789853D01*
X248870147Y-55664354D01*
X248771544Y-55516784D01*
X248703624Y-55352812D01*
X248669000Y-55178741D01*
X248669000Y-55001259D01*
X248703624Y-54827188D01*
X248771544Y-54663216D01*
X248870147Y-54515646D01*
X248995646Y-54390147D01*
X249143216Y-54291544D01*
X249307188Y-54223624D01*
X249456488Y-54193927D01*
X249481258Y-54189000D01*
X249658742Y-54189000D01*
X249683512Y-54193927D01*
G37*
G36*
X236734072Y-51370918D02*
G01*
X236842056Y-51415646D01*
X236979939Y-51472759D01*
X237091328Y-51547187D01*
X237201211Y-51620609D01*
X237389391Y-51808789D01*
X237537242Y-52030063D01*
X237639082Y-52275928D01*
X237691000Y-52536937D01*
X237691000Y-52803063D01*
X237680395Y-52856376D01*
X237639082Y-53064072D01*
X237537241Y-53309939D01*
X237389390Y-53531212D01*
X237201212Y-53719390D01*
X236979939Y-53867241D01*
X236979938Y-53867242D01*
X236979937Y-53867242D01*
X236734072Y-53969082D01*
X236473063Y-54021000D01*
X236206937Y-54021000D01*
X235945928Y-53969082D01*
X235700063Y-53867242D01*
X235700062Y-53867242D01*
X235700061Y-53867241D01*
X235478788Y-53719390D01*
X235290610Y-53531212D01*
X235142759Y-53309939D01*
X235040918Y-53064072D01*
X234999605Y-52856376D01*
X234989000Y-52803063D01*
X234989000Y-52536937D01*
X235040918Y-52275928D01*
X235142758Y-52030063D01*
X235290609Y-51808789D01*
X235478789Y-51620609D01*
X235588672Y-51547187D01*
X235700061Y-51472759D01*
X235837945Y-51415646D01*
X235945928Y-51370918D01*
X236206937Y-51319000D01*
X236473063Y-51319000D01*
X236734072Y-51370918D01*
G37*
G36*
X176853512Y-51093927D02*
G01*
X177002812Y-51123624D01*
X177166784Y-51191544D01*
X177314354Y-51290147D01*
X177439853Y-51415646D01*
X177538456Y-51563216D01*
X177606376Y-51727188D01*
X177641000Y-51901259D01*
X177641000Y-52078741D01*
X177606376Y-52252812D01*
X177538456Y-52416784D01*
X177439853Y-52564354D01*
X177314354Y-52689853D01*
X177166784Y-52788456D01*
X177002812Y-52856376D01*
X176853512Y-52886073D01*
X176828742Y-52891000D01*
X176651258Y-52891000D01*
X176626488Y-52886073D01*
X176477188Y-52856376D01*
X176313216Y-52788456D01*
X176165646Y-52689853D01*
X176040147Y-52564354D01*
X175941544Y-52416784D01*
X175873624Y-52252812D01*
X175839000Y-52078741D01*
X175839000Y-51901259D01*
X175873624Y-51727188D01*
X175941544Y-51563216D01*
X176040147Y-51415646D01*
X176165646Y-51290147D01*
X176313216Y-51191544D01*
X176477188Y-51123624D01*
X176626488Y-51093927D01*
X176651258Y-51089000D01*
X176828742Y-51089000D01*
X176853512Y-51093927D01*
G37*
G36*
X177641000Y-50351000D02*
G01*
X175839000Y-50351000D01*
X175839000Y-48549000D01*
X177641000Y-48549000D01*
X177641000Y-50351000D01*
G37*
G36*
X250661000Y-49831000D02*
G01*
X248859000Y-49831000D01*
X248859000Y-48029000D01*
X250661000Y-48029000D01*
X250661000Y-49831000D01*
G37*
G36*
X246471000Y-49821000D02*
G01*
X244669000Y-49821000D01*
X244669000Y-48019000D01*
X246471000Y-48019000D01*
X246471000Y-49821000D01*
G37*
G36*
X241971000Y-49791000D02*
G01*
X240169000Y-49791000D01*
X240169000Y-47989000D01*
X241971000Y-47989000D01*
X241971000Y-49791000D01*
G37*
G36*
X224963762Y-47843927D02*
G01*
X225113062Y-47873624D01*
X225277034Y-47941544D01*
X225424604Y-48040147D01*
X225550103Y-48165646D01*
X225648706Y-48313216D01*
X225716626Y-48477188D01*
X225751250Y-48651259D01*
X225751250Y-48828741D01*
X225716626Y-49002812D01*
X225648706Y-49166784D01*
X225550103Y-49314354D01*
X225424604Y-49439853D01*
X225277034Y-49538456D01*
X225113062Y-49606376D01*
X224963762Y-49636073D01*
X224938992Y-49641000D01*
X224761508Y-49641000D01*
X224736738Y-49636073D01*
X224587438Y-49606376D01*
X224423466Y-49538456D01*
X224275896Y-49439853D01*
X224150397Y-49314354D01*
X224051794Y-49166784D01*
X223983874Y-49002812D01*
X223949250Y-48828741D01*
X223949250Y-48651259D01*
X223983874Y-48477188D01*
X224051794Y-48313216D01*
X224150397Y-48165646D01*
X224275896Y-48040147D01*
X224423466Y-47941544D01*
X224587438Y-47873624D01*
X224736738Y-47843927D01*
X224761508Y-47839000D01*
X224938992Y-47839000D01*
X224963762Y-47843927D01*
G37*
G36*
X228291250Y-49641000D02*
G01*
X226489250Y-49641000D01*
X226489250Y-47839000D01*
X228291250Y-47839000D01*
X228291250Y-49641000D01*
G37*
G36*
X182153512Y-46113927D02*
G01*
X182302812Y-46143624D01*
X182466784Y-46211544D01*
X182614354Y-46310147D01*
X182739853Y-46435646D01*
X182838456Y-46583216D01*
X182906376Y-46747188D01*
X182941000Y-46921259D01*
X182941000Y-47098741D01*
X182906376Y-47272812D01*
X182838456Y-47436784D01*
X182739853Y-47584354D01*
X182614354Y-47709853D01*
X182466784Y-47808456D01*
X182302812Y-47876376D01*
X182153512Y-47906073D01*
X182128742Y-47911000D01*
X181951258Y-47911000D01*
X181926488Y-47906073D01*
X181777188Y-47876376D01*
X181613216Y-47808456D01*
X181465646Y-47709853D01*
X181340147Y-47584354D01*
X181241544Y-47436784D01*
X181173624Y-47272812D01*
X181139000Y-47098741D01*
X181139000Y-46921259D01*
X181173624Y-46747188D01*
X181241544Y-46583216D01*
X181340147Y-46435646D01*
X181465646Y-46310147D01*
X181613216Y-46211544D01*
X181777188Y-46143624D01*
X181926488Y-46113927D01*
X181951258Y-46109000D01*
X182128742Y-46109000D01*
X182153512Y-46113927D01*
G37*
G36*
X185893512Y-46093927D02*
G01*
X186042812Y-46123624D01*
X186206784Y-46191544D01*
X186354354Y-46290147D01*
X186479853Y-46415646D01*
X186578456Y-46563216D01*
X186646376Y-46727188D01*
X186664197Y-46816784D01*
X186680721Y-46899853D01*
X186681000Y-46901259D01*
X186681000Y-47078741D01*
X186646376Y-47252812D01*
X186578456Y-47416784D01*
X186479853Y-47564354D01*
X186354354Y-47689853D01*
X186206784Y-47788456D01*
X186042812Y-47856376D01*
X185893512Y-47886073D01*
X185868742Y-47891000D01*
X185691258Y-47891000D01*
X185666488Y-47886073D01*
X185517188Y-47856376D01*
X185353216Y-47788456D01*
X185205646Y-47689853D01*
X185080147Y-47564354D01*
X184981544Y-47416784D01*
X184913624Y-47252812D01*
X184879000Y-47078741D01*
X184879000Y-46901259D01*
X184879280Y-46899853D01*
X184895803Y-46816784D01*
X184913624Y-46727188D01*
X184981544Y-46563216D01*
X185080147Y-46415646D01*
X185205646Y-46290147D01*
X185353216Y-46191544D01*
X185517188Y-46123624D01*
X185666488Y-46093927D01*
X185691258Y-46089000D01*
X185868742Y-46089000D01*
X185893512Y-46093927D01*
G37*
G36*
X249873512Y-45493927D02*
G01*
X250022812Y-45523624D01*
X250186784Y-45591544D01*
X250334354Y-45690147D01*
X250459853Y-45815646D01*
X250558456Y-45963216D01*
X250626376Y-46127188D01*
X250661000Y-46301259D01*
X250661000Y-46478741D01*
X250626376Y-46652812D01*
X250558456Y-46816784D01*
X250459853Y-46964354D01*
X250334354Y-47089853D01*
X250186784Y-47188456D01*
X250022812Y-47256376D01*
X249873512Y-47286073D01*
X249848742Y-47291000D01*
X249671258Y-47291000D01*
X249646488Y-47286073D01*
X249497188Y-47256376D01*
X249333216Y-47188456D01*
X249185646Y-47089853D01*
X249060147Y-46964354D01*
X248961544Y-46816784D01*
X248893624Y-46652812D01*
X248859000Y-46478741D01*
X248859000Y-46301259D01*
X248893624Y-46127188D01*
X248961544Y-45963216D01*
X249060147Y-45815646D01*
X249185646Y-45690147D01*
X249333216Y-45591544D01*
X249497188Y-45523624D01*
X249646488Y-45493927D01*
X249671258Y-45489000D01*
X249848742Y-45489000D01*
X249873512Y-45493927D01*
G37*
G36*
X245681988Y-45483624D02*
G01*
X245832812Y-45513624D01*
X245996784Y-45581544D01*
X246144354Y-45680147D01*
X246269853Y-45805646D01*
X246368456Y-45953216D01*
X246436376Y-46117188D01*
X246465033Y-46261258D01*
X246470500Y-46288742D01*
X246471000Y-46291259D01*
X246471000Y-46468741D01*
X246436376Y-46642812D01*
X246368456Y-46806784D01*
X246269853Y-46954354D01*
X246144354Y-47079853D01*
X245996784Y-47178456D01*
X245832812Y-47246376D01*
X245683512Y-47276073D01*
X245658742Y-47281000D01*
X245481258Y-47281000D01*
X245456488Y-47276073D01*
X245307188Y-47246376D01*
X245143216Y-47178456D01*
X244995646Y-47079853D01*
X244870147Y-46954354D01*
X244771544Y-46806784D01*
X244703624Y-46642812D01*
X244669000Y-46468741D01*
X244669000Y-46291259D01*
X244669501Y-46288742D01*
X244674967Y-46261258D01*
X244703624Y-46117188D01*
X244771544Y-45953216D01*
X244870147Y-45805646D01*
X244995646Y-45680147D01*
X245143216Y-45581544D01*
X245307188Y-45513624D01*
X245458012Y-45483624D01*
X245481258Y-45479000D01*
X245658742Y-45479000D01*
X245681988Y-45483624D01*
G37*
G36*
X241183512Y-45453927D02*
G01*
X241332812Y-45483624D01*
X241496784Y-45551544D01*
X241644354Y-45650147D01*
X241769853Y-45775646D01*
X241868456Y-45923216D01*
X241936376Y-46087188D01*
X241971000Y-46261259D01*
X241971000Y-46438741D01*
X241936376Y-46612812D01*
X241868456Y-46776784D01*
X241769853Y-46924354D01*
X241644354Y-47049853D01*
X241496784Y-47148456D01*
X241332812Y-47216376D01*
X241183512Y-47246073D01*
X241158742Y-47251000D01*
X240981258Y-47251000D01*
X240956488Y-47246073D01*
X240807188Y-47216376D01*
X240643216Y-47148456D01*
X240495646Y-47049853D01*
X240370147Y-46924354D01*
X240271544Y-46776784D01*
X240203624Y-46612812D01*
X240169000Y-46438741D01*
X240169000Y-46261259D01*
X240203624Y-46087188D01*
X240271544Y-45923216D01*
X240370147Y-45775646D01*
X240495646Y-45650147D01*
X240643216Y-45551544D01*
X240807188Y-45483624D01*
X240956488Y-45453927D01*
X240981258Y-45449000D01*
X241158742Y-45449000D01*
X241183512Y-45453927D01*
G37*
G36*
X224963762Y-45303927D02*
G01*
X225113062Y-45333624D01*
X225277034Y-45401544D01*
X225424604Y-45500147D01*
X225550103Y-45625646D01*
X225648706Y-45773216D01*
X225716626Y-45937188D01*
X225746323Y-46086488D01*
X225751250Y-46111258D01*
X225751250Y-46288742D01*
X225750749Y-46291259D01*
X225716626Y-46462812D01*
X225648706Y-46626784D01*
X225550103Y-46774354D01*
X225424604Y-46899853D01*
X225277034Y-46998456D01*
X225113062Y-47066376D01*
X224963762Y-47096073D01*
X224938992Y-47101000D01*
X224761508Y-47101000D01*
X224736738Y-47096073D01*
X224587438Y-47066376D01*
X224423466Y-46998456D01*
X224275896Y-46899853D01*
X224150397Y-46774354D01*
X224051794Y-46626784D01*
X223983874Y-46462812D01*
X223949751Y-46291259D01*
X223949250Y-46288742D01*
X223949250Y-46111258D01*
X223954177Y-46086488D01*
X223983874Y-45937188D01*
X224051794Y-45773216D01*
X224150397Y-45625646D01*
X224275896Y-45500147D01*
X224423466Y-45401544D01*
X224587438Y-45333624D01*
X224736738Y-45303927D01*
X224761508Y-45299000D01*
X224938992Y-45299000D01*
X224963762Y-45303927D01*
G37*
G36*
X227503762Y-45303927D02*
G01*
X227653062Y-45333624D01*
X227817034Y-45401544D01*
X227964604Y-45500147D01*
X228090103Y-45625646D01*
X228188706Y-45773216D01*
X228256626Y-45937188D01*
X228286323Y-46086488D01*
X228291250Y-46111258D01*
X228291250Y-46288742D01*
X228290749Y-46291259D01*
X228256626Y-46462812D01*
X228188706Y-46626784D01*
X228090103Y-46774354D01*
X227964604Y-46899853D01*
X227817034Y-46998456D01*
X227653062Y-47066376D01*
X227503762Y-47096073D01*
X227478992Y-47101000D01*
X227301508Y-47101000D01*
X227276738Y-47096073D01*
X227127438Y-47066376D01*
X226963466Y-46998456D01*
X226815896Y-46899853D01*
X226690397Y-46774354D01*
X226591794Y-46626784D01*
X226523874Y-46462812D01*
X226489751Y-46291259D01*
X226489250Y-46288742D01*
X226489250Y-46111258D01*
X226494177Y-46086488D01*
X226523874Y-45937188D01*
X226591794Y-45773216D01*
X226690397Y-45625646D01*
X226815896Y-45500147D01*
X226963466Y-45401544D01*
X227127438Y-45333624D01*
X227276738Y-45303927D01*
X227301508Y-45299000D01*
X227478992Y-45299000D01*
X227503762Y-45303927D01*
G37*
G36*
X189693512Y-44623927D02*
G01*
X189842812Y-44653624D01*
X190006784Y-44721544D01*
X190154354Y-44820147D01*
X190279853Y-44945646D01*
X190378456Y-45093216D01*
X190446376Y-45257188D01*
X190469014Y-45371000D01*
X190481000Y-45431258D01*
X190481000Y-45608742D01*
X190477637Y-45625647D01*
X190446376Y-45782812D01*
X190378456Y-45946784D01*
X190279853Y-46094354D01*
X190154354Y-46219853D01*
X190006784Y-46318456D01*
X189842812Y-46386376D01*
X189695658Y-46415646D01*
X189668742Y-46421000D01*
X189491258Y-46421000D01*
X189464342Y-46415646D01*
X189317188Y-46386376D01*
X189153216Y-46318456D01*
X189005646Y-46219853D01*
X188880147Y-46094354D01*
X188781544Y-45946784D01*
X188713624Y-45782812D01*
X188682363Y-45625647D01*
X188679000Y-45608742D01*
X188679000Y-45431258D01*
X188690986Y-45371000D01*
X188713624Y-45257188D01*
X188781544Y-45093216D01*
X188880147Y-44945646D01*
X189005646Y-44820147D01*
X189153216Y-44721544D01*
X189317188Y-44653624D01*
X189466488Y-44623927D01*
X189491258Y-44619000D01*
X189668742Y-44619000D01*
X189693512Y-44623927D01*
G37*
G36*
X182941000Y-45371000D02*
G01*
X181139000Y-45371000D01*
X181139000Y-43569000D01*
X182941000Y-43569000D01*
X182941000Y-45371000D01*
G37*
G36*
X186681000Y-45351000D02*
G01*
X184879000Y-45351000D01*
X184879000Y-43549000D01*
X186681000Y-43549000D01*
X186681000Y-45351000D01*
G37*
G36*
X249873512Y-42953927D02*
G01*
X250022812Y-42983624D01*
X250186784Y-43051544D01*
X250334354Y-43150147D01*
X250459853Y-43275646D01*
X250558456Y-43423216D01*
X250626376Y-43587188D01*
X250661000Y-43761259D01*
X250661000Y-43938741D01*
X250626376Y-44112812D01*
X250558456Y-44276784D01*
X250459853Y-44424354D01*
X250334354Y-44549853D01*
X250186784Y-44648456D01*
X250022812Y-44716376D01*
X249873512Y-44746073D01*
X249848742Y-44751000D01*
X249671258Y-44751000D01*
X249646488Y-44746073D01*
X249497188Y-44716376D01*
X249333216Y-44648456D01*
X249185646Y-44549853D01*
X249060147Y-44424354D01*
X248961544Y-44276784D01*
X248893624Y-44112812D01*
X248859000Y-43938741D01*
X248859000Y-43761259D01*
X248893624Y-43587188D01*
X248961544Y-43423216D01*
X249060147Y-43275646D01*
X249185646Y-43150147D01*
X249333216Y-43051544D01*
X249497188Y-42983624D01*
X249646488Y-42953927D01*
X249671258Y-42949000D01*
X249848742Y-42949000D01*
X249873512Y-42953927D01*
G37*
G36*
X245681988Y-42943624D02*
G01*
X245832812Y-42973624D01*
X245996784Y-43041544D01*
X246144354Y-43140147D01*
X246269853Y-43265646D01*
X246368456Y-43413216D01*
X246436376Y-43577188D01*
X246465033Y-43721258D01*
X246470500Y-43748742D01*
X246471000Y-43751259D01*
X246471000Y-43928741D01*
X246436376Y-44102812D01*
X246368456Y-44266784D01*
X246269853Y-44414354D01*
X246144354Y-44539853D01*
X245996784Y-44638456D01*
X245832812Y-44706376D01*
X245683512Y-44736073D01*
X245658742Y-44741000D01*
X245481258Y-44741000D01*
X245456488Y-44736073D01*
X245307188Y-44706376D01*
X245143216Y-44638456D01*
X244995646Y-44539853D01*
X244870147Y-44414354D01*
X244771544Y-44266784D01*
X244703624Y-44102812D01*
X244669000Y-43928741D01*
X244669000Y-43751259D01*
X244669501Y-43748742D01*
X244674967Y-43721258D01*
X244703624Y-43577188D01*
X244771544Y-43413216D01*
X244870147Y-43265646D01*
X244995646Y-43140147D01*
X245143216Y-43041544D01*
X245307188Y-42973624D01*
X245458012Y-42943624D01*
X245481258Y-42939000D01*
X245658742Y-42939000D01*
X245681988Y-42943624D01*
G37*
G36*
X241183512Y-42913927D02*
G01*
X241332812Y-42943624D01*
X241496784Y-43011544D01*
X241644354Y-43110147D01*
X241769853Y-43235646D01*
X241868456Y-43383216D01*
X241936376Y-43547188D01*
X241971000Y-43721259D01*
X241971000Y-43898741D01*
X241936376Y-44072812D01*
X241868456Y-44236784D01*
X241769853Y-44384354D01*
X241644354Y-44509853D01*
X241496784Y-44608456D01*
X241332812Y-44676376D01*
X241183512Y-44706073D01*
X241158742Y-44711000D01*
X240981258Y-44711000D01*
X240956488Y-44706073D01*
X240807188Y-44676376D01*
X240643216Y-44608456D01*
X240495646Y-44509853D01*
X240370147Y-44384354D01*
X240271544Y-44236784D01*
X240203624Y-44072812D01*
X240169000Y-43898741D01*
X240169000Y-43721259D01*
X240203624Y-43547188D01*
X240271544Y-43383216D01*
X240370147Y-43235646D01*
X240495646Y-43110147D01*
X240643216Y-43011544D01*
X240807188Y-42943624D01*
X240956488Y-42913927D01*
X240981258Y-42909000D01*
X241158742Y-42909000D01*
X241183512Y-42913927D01*
G37*
G36*
X227503762Y-42763927D02*
G01*
X227653062Y-42793624D01*
X227817034Y-42861544D01*
X227964604Y-42960147D01*
X228090103Y-43085646D01*
X228188706Y-43233216D01*
X228256626Y-43397188D01*
X228286323Y-43546488D01*
X228291250Y-43571258D01*
X228291250Y-43748742D01*
X228290749Y-43751259D01*
X228256626Y-43922812D01*
X228188706Y-44086784D01*
X228090103Y-44234354D01*
X227964604Y-44359853D01*
X227817034Y-44458456D01*
X227653062Y-44526376D01*
X227503762Y-44556073D01*
X227478992Y-44561000D01*
X227301508Y-44561000D01*
X227276738Y-44556073D01*
X227127438Y-44526376D01*
X226963466Y-44458456D01*
X226815896Y-44359853D01*
X226690397Y-44234354D01*
X226591794Y-44086784D01*
X226523874Y-43922812D01*
X226489751Y-43751259D01*
X226489250Y-43748742D01*
X226489250Y-43571258D01*
X226494177Y-43546488D01*
X226523874Y-43397188D01*
X226591794Y-43233216D01*
X226690397Y-43085646D01*
X226815896Y-42960147D01*
X226963466Y-42861544D01*
X227127438Y-42793624D01*
X227276738Y-42763927D01*
X227301508Y-42759000D01*
X227478992Y-42759000D01*
X227503762Y-42763927D01*
G37*
G36*
X224963762Y-42763927D02*
G01*
X225113062Y-42793624D01*
X225277034Y-42861544D01*
X225424604Y-42960147D01*
X225550103Y-43085646D01*
X225648706Y-43233216D01*
X225716626Y-43397188D01*
X225746323Y-43546488D01*
X225751250Y-43571258D01*
X225751250Y-43748742D01*
X225750749Y-43751259D01*
X225716626Y-43922812D01*
X225648706Y-44086784D01*
X225550103Y-44234354D01*
X225424604Y-44359853D01*
X225277034Y-44458456D01*
X225113062Y-44526376D01*
X224963762Y-44556073D01*
X224938992Y-44561000D01*
X224761508Y-44561000D01*
X224736738Y-44556073D01*
X224587438Y-44526376D01*
X224423466Y-44458456D01*
X224275896Y-44359853D01*
X224150397Y-44234354D01*
X224051794Y-44086784D01*
X223983874Y-43922812D01*
X223949751Y-43751259D01*
X223949250Y-43748742D01*
X223949250Y-43571258D01*
X223954177Y-43546488D01*
X223983874Y-43397188D01*
X224051794Y-43233216D01*
X224150397Y-43085646D01*
X224275896Y-42960147D01*
X224423466Y-42861544D01*
X224587438Y-42793624D01*
X224736738Y-42763927D01*
X224761508Y-42759000D01*
X224938992Y-42759000D01*
X224963762Y-42763927D01*
G37*
G36*
X190481000Y-43881000D02*
G01*
X188679000Y-43881000D01*
X188679000Y-42079000D01*
X190481000Y-42079000D01*
X190481000Y-43881000D01*
G37*
G36*
X227503762Y-40223927D02*
G01*
X227653062Y-40253624D01*
X227817034Y-40321544D01*
X227964604Y-40420147D01*
X228090103Y-40545646D01*
X228188706Y-40693216D01*
X228256626Y-40857188D01*
X228291250Y-41031259D01*
X228291250Y-41208741D01*
X228256626Y-41382812D01*
X228188706Y-41546784D01*
X228090103Y-41694354D01*
X227964604Y-41819853D01*
X227817034Y-41918456D01*
X227653062Y-41986376D01*
X227503762Y-42016073D01*
X227478992Y-42021000D01*
X227301508Y-42021000D01*
X227276738Y-42016073D01*
X227127438Y-41986376D01*
X226963466Y-41918456D01*
X226815896Y-41819853D01*
X226690397Y-41694354D01*
X226591794Y-41546784D01*
X226523874Y-41382812D01*
X226489250Y-41208741D01*
X226489250Y-41031259D01*
X226523874Y-40857188D01*
X226591794Y-40693216D01*
X226690397Y-40545646D01*
X226815896Y-40420147D01*
X226963466Y-40321544D01*
X227127438Y-40253624D01*
X227276738Y-40223927D01*
X227301508Y-40219000D01*
X227478992Y-40219000D01*
X227503762Y-40223927D01*
G37*
G36*
X224963762Y-40223927D02*
G01*
X225113062Y-40253624D01*
X225277034Y-40321544D01*
X225424604Y-40420147D01*
X225550103Y-40545646D01*
X225648706Y-40693216D01*
X225716626Y-40857188D01*
X225751250Y-41031259D01*
X225751250Y-41208741D01*
X225716626Y-41382812D01*
X225648706Y-41546784D01*
X225550103Y-41694354D01*
X225424604Y-41819853D01*
X225277034Y-41918456D01*
X225113062Y-41986376D01*
X224963762Y-42016073D01*
X224938992Y-42021000D01*
X224761508Y-42021000D01*
X224736738Y-42016073D01*
X224587438Y-41986376D01*
X224423466Y-41918456D01*
X224275896Y-41819853D01*
X224150397Y-41694354D01*
X224051794Y-41546784D01*
X223983874Y-41382812D01*
X223949250Y-41208741D01*
X223949250Y-41031259D01*
X223983874Y-40857188D01*
X224051794Y-40693216D01*
X224150397Y-40545646D01*
X224275896Y-40420147D01*
X224423466Y-40321544D01*
X224587438Y-40253624D01*
X224736738Y-40223927D01*
X224761508Y-40219000D01*
X224938992Y-40219000D01*
X224963762Y-40223927D01*
G37*
G36*
X164833512Y-39053927D02*
G01*
X164982812Y-39083624D01*
X165146784Y-39151544D01*
X165294354Y-39250147D01*
X165419853Y-39375646D01*
X165518456Y-39523216D01*
X165586376Y-39687188D01*
X165621000Y-39861259D01*
X165621000Y-40038741D01*
X165586376Y-40212812D01*
X165518456Y-40376784D01*
X165419853Y-40524354D01*
X165294354Y-40649853D01*
X165146784Y-40748456D01*
X164982812Y-40816376D01*
X164833512Y-40846073D01*
X164808742Y-40851000D01*
X164631258Y-40851000D01*
X164606488Y-40846073D01*
X164457188Y-40816376D01*
X164293216Y-40748456D01*
X164145646Y-40649853D01*
X164020147Y-40524354D01*
X163921544Y-40376784D01*
X163853624Y-40212812D01*
X163819000Y-40038741D01*
X163819000Y-39861259D01*
X163853624Y-39687188D01*
X163921544Y-39523216D01*
X164020147Y-39375646D01*
X164145646Y-39250147D01*
X164293216Y-39151544D01*
X164457188Y-39083624D01*
X164606488Y-39053927D01*
X164631258Y-39049000D01*
X164808742Y-39049000D01*
X164833512Y-39053927D01*
G37*
G36*
X160541000Y-40851000D02*
G01*
X158739000Y-40851000D01*
X158739000Y-39049000D01*
X160541000Y-39049000D01*
X160541000Y-40851000D01*
G37*
G36*
X162293512Y-39053927D02*
G01*
X162442812Y-39083624D01*
X162606784Y-39151544D01*
X162754354Y-39250147D01*
X162879853Y-39375646D01*
X162978456Y-39523216D01*
X163046376Y-39687188D01*
X163081000Y-39861259D01*
X163081000Y-40038741D01*
X163046376Y-40212812D01*
X162978456Y-40376784D01*
X162879853Y-40524354D01*
X162754354Y-40649853D01*
X162606784Y-40748456D01*
X162442812Y-40816376D01*
X162293512Y-40846073D01*
X162268742Y-40851000D01*
X162091258Y-40851000D01*
X162066488Y-40846073D01*
X161917188Y-40816376D01*
X161753216Y-40748456D01*
X161605646Y-40649853D01*
X161480147Y-40524354D01*
X161381544Y-40376784D01*
X161313624Y-40212812D01*
X161279000Y-40038741D01*
X161279000Y-39861259D01*
X161313624Y-39687188D01*
X161381544Y-39523216D01*
X161480147Y-39375646D01*
X161605646Y-39250147D01*
X161753216Y-39151544D01*
X161917188Y-39083624D01*
X162066488Y-39053927D01*
X162091258Y-39049000D01*
X162268742Y-39049000D01*
X162293512Y-39053927D01*
G37*
G36*
X227503762Y-37683927D02*
G01*
X227653062Y-37713624D01*
X227817034Y-37781544D01*
X227964604Y-37880147D01*
X228090103Y-38005646D01*
X228188706Y-38153216D01*
X228256626Y-38317188D01*
X228291250Y-38491259D01*
X228291250Y-38668741D01*
X228256626Y-38842812D01*
X228188706Y-39006784D01*
X228090103Y-39154354D01*
X227964604Y-39279853D01*
X227817034Y-39378456D01*
X227653062Y-39446376D01*
X227503762Y-39476073D01*
X227478992Y-39481000D01*
X227301508Y-39481000D01*
X227276738Y-39476073D01*
X227127438Y-39446376D01*
X226963466Y-39378456D01*
X226815896Y-39279853D01*
X226690397Y-39154354D01*
X226591794Y-39006784D01*
X226523874Y-38842812D01*
X226489250Y-38668741D01*
X226489250Y-38491259D01*
X226523874Y-38317188D01*
X226591794Y-38153216D01*
X226690397Y-38005646D01*
X226815896Y-37880147D01*
X226963466Y-37781544D01*
X227127438Y-37713624D01*
X227276738Y-37683927D01*
X227301508Y-37679000D01*
X227478992Y-37679000D01*
X227503762Y-37683927D01*
G37*
G36*
X224963762Y-37683927D02*
G01*
X225113062Y-37713624D01*
X225277034Y-37781544D01*
X225424604Y-37880147D01*
X225550103Y-38005646D01*
X225648706Y-38153216D01*
X225716626Y-38317188D01*
X225751250Y-38491259D01*
X225751250Y-38668741D01*
X225716626Y-38842812D01*
X225648706Y-39006784D01*
X225550103Y-39154354D01*
X225424604Y-39279853D01*
X225277034Y-39378456D01*
X225113062Y-39446376D01*
X224963762Y-39476073D01*
X224938992Y-39481000D01*
X224761508Y-39481000D01*
X224736738Y-39476073D01*
X224587438Y-39446376D01*
X224423466Y-39378456D01*
X224275896Y-39279853D01*
X224150397Y-39154354D01*
X224051794Y-39006784D01*
X223983874Y-38842812D01*
X223949250Y-38668741D01*
X223949250Y-38491259D01*
X223983874Y-38317188D01*
X224051794Y-38153216D01*
X224150397Y-38005646D01*
X224275896Y-37880147D01*
X224423466Y-37781544D01*
X224587438Y-37713624D01*
X224736738Y-37683927D01*
X224761508Y-37679000D01*
X224938992Y-37679000D01*
X224963762Y-37683927D01*
G37*
G36*
X224963762Y-35143927D02*
G01*
X225113062Y-35173624D01*
X225277034Y-35241544D01*
X225424604Y-35340147D01*
X225550103Y-35465646D01*
X225648706Y-35613216D01*
X225716626Y-35777188D01*
X225751250Y-35951259D01*
X225751250Y-36128741D01*
X225716626Y-36302812D01*
X225648706Y-36466784D01*
X225550103Y-36614354D01*
X225424604Y-36739853D01*
X225277034Y-36838456D01*
X225113062Y-36906376D01*
X224963762Y-36936073D01*
X224938992Y-36941000D01*
X224761508Y-36941000D01*
X224736738Y-36936073D01*
X224587438Y-36906376D01*
X224423466Y-36838456D01*
X224275896Y-36739853D01*
X224150397Y-36614354D01*
X224051794Y-36466784D01*
X223983874Y-36302812D01*
X223949250Y-36128741D01*
X223949250Y-35951259D01*
X223983874Y-35777188D01*
X224051794Y-35613216D01*
X224150397Y-35465646D01*
X224275896Y-35340147D01*
X224423466Y-35241544D01*
X224587438Y-35173624D01*
X224736738Y-35143927D01*
X224761508Y-35139000D01*
X224938992Y-35139000D01*
X224963762Y-35143927D01*
G37*
G36*
X227503762Y-35143927D02*
G01*
X227653062Y-35173624D01*
X227817034Y-35241544D01*
X227964604Y-35340147D01*
X228090103Y-35465646D01*
X228188706Y-35613216D01*
X228256626Y-35777188D01*
X228291250Y-35951259D01*
X228291250Y-36128741D01*
X228256626Y-36302812D01*
X228188706Y-36466784D01*
X228090103Y-36614354D01*
X227964604Y-36739853D01*
X227817034Y-36838456D01*
X227653062Y-36906376D01*
X227503762Y-36936073D01*
X227478992Y-36941000D01*
X227301508Y-36941000D01*
X227276738Y-36936073D01*
X227127438Y-36906376D01*
X226963466Y-36838456D01*
X226815896Y-36739853D01*
X226690397Y-36614354D01*
X226591794Y-36466784D01*
X226523874Y-36302812D01*
X226489250Y-36128741D01*
X226489250Y-35951259D01*
X226523874Y-35777188D01*
X226591794Y-35613216D01*
X226690397Y-35465646D01*
X226815896Y-35340147D01*
X226963466Y-35241544D01*
X227127438Y-35173624D01*
X227276738Y-35143927D01*
X227301508Y-35139000D01*
X227478992Y-35139000D01*
X227503762Y-35143927D01*
G37*
G36*
X161993512Y-35133927D02*
G01*
X162142812Y-35163624D01*
X162306784Y-35231544D01*
X162454354Y-35330147D01*
X162579853Y-35455646D01*
X162678456Y-35603216D01*
X162746376Y-35767188D01*
X162781000Y-35941259D01*
X162781000Y-36118741D01*
X162746376Y-36292812D01*
X162678456Y-36456784D01*
X162579853Y-36604354D01*
X162454354Y-36729853D01*
X162306784Y-36828456D01*
X162142812Y-36896376D01*
X161993512Y-36926073D01*
X161968742Y-36931000D01*
X161791258Y-36931000D01*
X161766488Y-36926073D01*
X161617188Y-36896376D01*
X161453216Y-36828456D01*
X161305646Y-36729853D01*
X161180147Y-36604354D01*
X161081544Y-36456784D01*
X161013624Y-36292812D01*
X160979000Y-36118741D01*
X160979000Y-35941259D01*
X161013624Y-35767188D01*
X161081544Y-35603216D01*
X161180147Y-35455646D01*
X161305646Y-35330147D01*
X161453216Y-35231544D01*
X161617188Y-35163624D01*
X161766488Y-35133927D01*
X161791258Y-35129000D01*
X161968742Y-35129000D01*
X161993512Y-35133927D01*
G37*
G36*
X165321000Y-36931000D02*
G01*
X163519000Y-36931000D01*
X163519000Y-35129000D01*
X165321000Y-35129000D01*
X165321000Y-36931000D01*
G37*
G36*
X165331000Y-33141000D02*
G01*
X163529000Y-33141000D01*
X163529000Y-31339000D01*
X165331000Y-31339000D01*
X165331000Y-33141000D01*
G37*
G36*
X162003512Y-31343927D02*
G01*
X162152812Y-31373624D01*
X162316784Y-31441544D01*
X162464354Y-31540147D01*
X162589853Y-31665646D01*
X162688456Y-31813216D01*
X162756376Y-31977188D01*
X162791000Y-32151259D01*
X162791000Y-32328741D01*
X162756376Y-32502812D01*
X162688456Y-32666784D01*
X162589853Y-32814354D01*
X162464354Y-32939853D01*
X162316784Y-33038456D01*
X162152812Y-33106376D01*
X162003512Y-33136073D01*
X161978742Y-33141000D01*
X161801258Y-33141000D01*
X161776488Y-33136073D01*
X161627188Y-33106376D01*
X161463216Y-33038456D01*
X161315646Y-32939853D01*
X161190147Y-32814354D01*
X161091544Y-32666784D01*
X161023624Y-32502812D01*
X160989000Y-32328741D01*
X160989000Y-32151259D01*
X161023624Y-31977188D01*
X161091544Y-31813216D01*
X161190147Y-31665646D01*
X161315646Y-31540147D01*
X161463216Y-31441544D01*
X161627188Y-31373624D01*
X161776488Y-31343927D01*
X161801258Y-31339000D01*
X161978742Y-31339000D01*
X162003512Y-31343927D01*
G37*
G36*
X165351000Y-29461000D02*
G01*
X163549000Y-29461000D01*
X163549000Y-27659000D01*
X165351000Y-27659000D01*
X165351000Y-29461000D01*
G37*
G36*
X162023512Y-27663927D02*
G01*
X162172812Y-27693624D01*
X162336784Y-27761544D01*
X162484354Y-27860147D01*
X162609853Y-27985646D01*
X162708456Y-28133216D01*
X162776376Y-28297188D01*
X162811000Y-28471259D01*
X162811000Y-28648741D01*
X162776376Y-28822812D01*
X162708456Y-28986784D01*
X162609853Y-29134354D01*
X162484354Y-29259853D01*
X162336784Y-29358456D01*
X162172812Y-29426376D01*
X162023512Y-29456073D01*
X161998742Y-29461000D01*
X161821258Y-29461000D01*
X161796488Y-29456073D01*
X161647188Y-29426376D01*
X161483216Y-29358456D01*
X161335646Y-29259853D01*
X161210147Y-29134354D01*
X161111544Y-28986784D01*
X161043624Y-28822812D01*
X161009000Y-28648741D01*
X161009000Y-28471259D01*
X161043624Y-28297188D01*
X161111544Y-28133216D01*
X161210147Y-27985646D01*
X161335646Y-27860147D01*
X161483216Y-27761544D01*
X161647188Y-27693624D01*
X161796488Y-27663927D01*
X161821258Y-27659000D01*
X161998742Y-27659000D01*
X162023512Y-27663927D01*
G37*
G36*
X216573512Y-22763927D02*
G01*
X216722812Y-22793624D01*
X216886784Y-22861544D01*
X217034354Y-22960147D01*
X217159853Y-23085646D01*
X217258456Y-23233216D01*
X217326376Y-23397188D01*
X217361000Y-23571259D01*
X217361000Y-23748741D01*
X217326376Y-23922812D01*
X217258456Y-24086784D01*
X217159853Y-24234354D01*
X217034354Y-24359853D01*
X216886784Y-24458456D01*
X216722812Y-24526376D01*
X216573512Y-24556073D01*
X216548742Y-24561000D01*
X216371258Y-24561000D01*
X216346488Y-24556073D01*
X216197188Y-24526376D01*
X216033216Y-24458456D01*
X215885646Y-24359853D01*
X215760147Y-24234354D01*
X215661544Y-24086784D01*
X215593624Y-23922812D01*
X215559000Y-23748741D01*
X215559000Y-23571259D01*
X215593624Y-23397188D01*
X215661544Y-23233216D01*
X215760147Y-23085646D01*
X215885646Y-22960147D01*
X216033216Y-22861544D01*
X216197188Y-22793624D01*
X216346488Y-22763927D01*
X216371258Y-22759000D01*
X216548742Y-22759000D01*
X216573512Y-22763927D01*
G37*
G36*
X207201000Y-24561000D02*
G01*
X205399000Y-24561000D01*
X205399000Y-22759000D01*
X207201000Y-22759000D01*
X207201000Y-24561000D01*
G37*
G36*
X208953512Y-22763927D02*
G01*
X209102812Y-22793624D01*
X209266784Y-22861544D01*
X209414354Y-22960147D01*
X209539853Y-23085646D01*
X209638456Y-23233216D01*
X209706376Y-23397188D01*
X209741000Y-23571259D01*
X209741000Y-23748741D01*
X209706376Y-23922812D01*
X209638456Y-24086784D01*
X209539853Y-24234354D01*
X209414354Y-24359853D01*
X209266784Y-24458456D01*
X209102812Y-24526376D01*
X208953512Y-24556073D01*
X208928742Y-24561000D01*
X208751258Y-24561000D01*
X208726488Y-24556073D01*
X208577188Y-24526376D01*
X208413216Y-24458456D01*
X208265646Y-24359853D01*
X208140147Y-24234354D01*
X208041544Y-24086784D01*
X207973624Y-23922812D01*
X207939000Y-23748741D01*
X207939000Y-23571259D01*
X207973624Y-23397188D01*
X208041544Y-23233216D01*
X208140147Y-23085646D01*
X208265646Y-22960147D01*
X208413216Y-22861544D01*
X208577188Y-22793624D01*
X208726488Y-22763927D01*
X208751258Y-22759000D01*
X208928742Y-22759000D01*
X208953512Y-22763927D01*
G37*
G36*
X211493512Y-22763927D02*
G01*
X211642812Y-22793624D01*
X211806784Y-22861544D01*
X211954354Y-22960147D01*
X212079853Y-23085646D01*
X212178456Y-23233216D01*
X212246376Y-23397188D01*
X212281000Y-23571259D01*
X212281000Y-23748741D01*
X212246376Y-23922812D01*
X212178456Y-24086784D01*
X212079853Y-24234354D01*
X211954354Y-24359853D01*
X211806784Y-24458456D01*
X211642812Y-24526376D01*
X211493512Y-24556073D01*
X211468742Y-24561000D01*
X211291258Y-24561000D01*
X211266488Y-24556073D01*
X211117188Y-24526376D01*
X210953216Y-24458456D01*
X210805646Y-24359853D01*
X210680147Y-24234354D01*
X210581544Y-24086784D01*
X210513624Y-23922812D01*
X210479000Y-23748741D01*
X210479000Y-23571259D01*
X210513624Y-23397188D01*
X210581544Y-23233216D01*
X210680147Y-23085646D01*
X210805646Y-22960147D01*
X210953216Y-22861544D01*
X211117188Y-22793624D01*
X211266488Y-22763927D01*
X211291258Y-22759000D01*
X211468742Y-22759000D01*
X211493512Y-22763927D01*
G37*
G36*
X214033512Y-22763927D02*
G01*
X214182812Y-22793624D01*
X214346784Y-22861544D01*
X214494354Y-22960147D01*
X214619853Y-23085646D01*
X214718456Y-23233216D01*
X214786376Y-23397188D01*
X214821000Y-23571259D01*
X214821000Y-23748741D01*
X214786376Y-23922812D01*
X214718456Y-24086784D01*
X214619853Y-24234354D01*
X214494354Y-24359853D01*
X214346784Y-24458456D01*
X214182812Y-24526376D01*
X214033512Y-24556073D01*
X214008742Y-24561000D01*
X213831258Y-24561000D01*
X213806488Y-24556073D01*
X213657188Y-24526376D01*
X213493216Y-24458456D01*
X213345646Y-24359853D01*
X213220147Y-24234354D01*
X213121544Y-24086784D01*
X213053624Y-23922812D01*
X213019000Y-23748741D01*
X213019000Y-23571259D01*
X213053624Y-23397188D01*
X213121544Y-23233216D01*
X213220147Y-23085646D01*
X213345646Y-22960147D01*
X213493216Y-22861544D01*
X213657188Y-22793624D01*
X213806488Y-22763927D01*
X213831258Y-22759000D01*
X214008742Y-22759000D01*
X214033512Y-22763927D01*
G37*
G36*
X219113512Y-22763927D02*
G01*
X219262812Y-22793624D01*
X219426784Y-22861544D01*
X219574354Y-22960147D01*
X219699853Y-23085646D01*
X219798456Y-23233216D01*
X219866376Y-23397188D01*
X219901000Y-23571259D01*
X219901000Y-23748741D01*
X219866376Y-23922812D01*
X219798456Y-24086784D01*
X219699853Y-24234354D01*
X219574354Y-24359853D01*
X219426784Y-24458456D01*
X219262812Y-24526376D01*
X219113512Y-24556073D01*
X219088742Y-24561000D01*
X218911258Y-24561000D01*
X218886488Y-24556073D01*
X218737188Y-24526376D01*
X218573216Y-24458456D01*
X218425646Y-24359853D01*
X218300147Y-24234354D01*
X218201544Y-24086784D01*
X218133624Y-23922812D01*
X218099000Y-23748741D01*
X218099000Y-23571259D01*
X218133624Y-23397188D01*
X218201544Y-23233216D01*
X218300147Y-23085646D01*
X218425646Y-22960147D01*
X218573216Y-22861544D01*
X218737188Y-22793624D01*
X218886488Y-22763927D01*
X218911258Y-22759000D01*
X219088742Y-22759000D01*
X219113512Y-22763927D01*
G37*
G36*
X229821000Y-24551000D02*
G01*
X228019000Y-24551000D01*
X228019000Y-22749000D01*
X229821000Y-22749000D01*
X229821000Y-24551000D01*
G37*
G36*
X231573512Y-22753927D02*
G01*
X231722812Y-22783624D01*
X231886784Y-22851544D01*
X232034354Y-22950147D01*
X232159853Y-23075646D01*
X232258456Y-23223216D01*
X232326376Y-23387188D01*
X232361000Y-23561259D01*
X232361000Y-23738741D01*
X232326376Y-23912812D01*
X232258456Y-24076784D01*
X232159853Y-24224354D01*
X232034354Y-24349853D01*
X231886784Y-24448456D01*
X231722812Y-24516376D01*
X231573512Y-24546073D01*
X231548742Y-24551000D01*
X231371258Y-24551000D01*
X231346488Y-24546073D01*
X231197188Y-24516376D01*
X231033216Y-24448456D01*
X230885646Y-24349853D01*
X230760147Y-24224354D01*
X230661544Y-24076784D01*
X230593624Y-23912812D01*
X230559000Y-23738741D01*
X230559000Y-23561259D01*
X230593624Y-23387188D01*
X230661544Y-23223216D01*
X230760147Y-23075646D01*
X230885646Y-22950147D01*
X231033216Y-22851544D01*
X231197188Y-22783624D01*
X231346488Y-22753927D01*
X231371258Y-22749000D01*
X231548742Y-22749000D01*
X231573512Y-22753927D01*
G37*
G36*
X234113512Y-22753927D02*
G01*
X234262812Y-22783624D01*
X234426784Y-22851544D01*
X234574354Y-22950147D01*
X234699853Y-23075646D01*
X234798456Y-23223216D01*
X234866376Y-23387188D01*
X234901000Y-23561259D01*
X234901000Y-23738741D01*
X234866376Y-23912812D01*
X234798456Y-24076784D01*
X234699853Y-24224354D01*
X234574354Y-24349853D01*
X234426784Y-24448456D01*
X234262812Y-24516376D01*
X234113512Y-24546073D01*
X234088742Y-24551000D01*
X233911258Y-24551000D01*
X233886488Y-24546073D01*
X233737188Y-24516376D01*
X233573216Y-24448456D01*
X233425646Y-24349853D01*
X233300147Y-24224354D01*
X233201544Y-24076784D01*
X233133624Y-23912812D01*
X233099000Y-23738741D01*
X233099000Y-23561259D01*
X233133624Y-23387188D01*
X233201544Y-23223216D01*
X233300147Y-23075646D01*
X233425646Y-22950147D01*
X233573216Y-22851544D01*
X233737188Y-22783624D01*
X233886488Y-22753927D01*
X233911258Y-22749000D01*
X234088742Y-22749000D01*
X234113512Y-22753927D01*
G37*
G36*
X239193512Y-22753927D02*
G01*
X239342812Y-22783624D01*
X239506784Y-22851544D01*
X239654354Y-22950147D01*
X239779853Y-23075646D01*
X239878456Y-23223216D01*
X239946376Y-23387188D01*
X239981000Y-23561259D01*
X239981000Y-23738741D01*
X239946376Y-23912812D01*
X239878456Y-24076784D01*
X239779853Y-24224354D01*
X239654354Y-24349853D01*
X239506784Y-24448456D01*
X239342812Y-24516376D01*
X239193512Y-24546073D01*
X239168742Y-24551000D01*
X238991258Y-24551000D01*
X238966488Y-24546073D01*
X238817188Y-24516376D01*
X238653216Y-24448456D01*
X238505646Y-24349853D01*
X238380147Y-24224354D01*
X238281544Y-24076784D01*
X238213624Y-23912812D01*
X238179000Y-23738741D01*
X238179000Y-23561259D01*
X238213624Y-23387188D01*
X238281544Y-23223216D01*
X238380147Y-23075646D01*
X238505646Y-22950147D01*
X238653216Y-22851544D01*
X238817188Y-22783624D01*
X238966488Y-22753927D01*
X238991258Y-22749000D01*
X239168742Y-22749000D01*
X239193512Y-22753927D01*
G37*
G36*
X241733512Y-22753927D02*
G01*
X241882812Y-22783624D01*
X242046784Y-22851544D01*
X242194354Y-22950147D01*
X242319853Y-23075646D01*
X242418456Y-23223216D01*
X242486376Y-23387188D01*
X242521000Y-23561259D01*
X242521000Y-23738741D01*
X242486376Y-23912812D01*
X242418456Y-24076784D01*
X242319853Y-24224354D01*
X242194354Y-24349853D01*
X242046784Y-24448456D01*
X241882812Y-24516376D01*
X241733512Y-24546073D01*
X241708742Y-24551000D01*
X241531258Y-24551000D01*
X241506488Y-24546073D01*
X241357188Y-24516376D01*
X241193216Y-24448456D01*
X241045646Y-24349853D01*
X240920147Y-24224354D01*
X240821544Y-24076784D01*
X240753624Y-23912812D01*
X240719000Y-23738741D01*
X240719000Y-23561259D01*
X240753624Y-23387188D01*
X240821544Y-23223216D01*
X240920147Y-23075646D01*
X241045646Y-22950147D01*
X241193216Y-22851544D01*
X241357188Y-22783624D01*
X241506488Y-22753927D01*
X241531258Y-22749000D01*
X241708742Y-22749000D01*
X241733512Y-22753927D01*
G37*
G36*
X236653512Y-22753927D02*
G01*
X236802812Y-22783624D01*
X236966784Y-22851544D01*
X237114354Y-22950147D01*
X237239853Y-23075646D01*
X237338456Y-23223216D01*
X237406376Y-23387188D01*
X237441000Y-23561259D01*
X237441000Y-23738741D01*
X237406376Y-23912812D01*
X237338456Y-24076784D01*
X237239853Y-24224354D01*
X237114354Y-24349853D01*
X236966784Y-24448456D01*
X236802812Y-24516376D01*
X236653512Y-24546073D01*
X236628742Y-24551000D01*
X236451258Y-24551000D01*
X236426488Y-24546073D01*
X236277188Y-24516376D01*
X236113216Y-24448456D01*
X235965646Y-24349853D01*
X235840147Y-24224354D01*
X235741544Y-24076784D01*
X235673624Y-23912812D01*
X235639000Y-23738741D01*
X235639000Y-23561259D01*
X235673624Y-23387188D01*
X235741544Y-23223216D01*
X235840147Y-23075646D01*
X235965646Y-22950147D01*
X236113216Y-22851544D01*
X236277188Y-22783624D01*
X236426488Y-22753927D01*
X236451258Y-22749000D01*
X236628742Y-22749000D01*
X236653512Y-22753927D01*
G37*
G36*
X162011000Y-24541000D02*
G01*
X160209000Y-24541000D01*
X160209000Y-22739000D01*
X162011000Y-22739000D01*
X162011000Y-24541000D01*
G37*
G36*
X196533512Y-22743927D02*
G01*
X196682812Y-22773624D01*
X196846784Y-22841544D01*
X196994354Y-22940147D01*
X197119853Y-23065646D01*
X197218456Y-23213216D01*
X197286376Y-23377188D01*
X197321000Y-23551259D01*
X197321000Y-23728741D01*
X197286376Y-23902812D01*
X197218456Y-24066784D01*
X197119853Y-24214354D01*
X196994354Y-24339853D01*
X196846784Y-24438456D01*
X196682812Y-24506376D01*
X196533512Y-24536073D01*
X196508742Y-24541000D01*
X196331258Y-24541000D01*
X196306488Y-24536073D01*
X196157188Y-24506376D01*
X195993216Y-24438456D01*
X195845646Y-24339853D01*
X195720147Y-24214354D01*
X195621544Y-24066784D01*
X195553624Y-23902812D01*
X195519000Y-23728741D01*
X195519000Y-23551259D01*
X195553624Y-23377188D01*
X195621544Y-23213216D01*
X195720147Y-23065646D01*
X195845646Y-22940147D01*
X195993216Y-22841544D01*
X196157188Y-22773624D01*
X196306488Y-22743927D01*
X196331258Y-22739000D01*
X196508742Y-22739000D01*
X196533512Y-22743927D01*
G37*
G36*
X193993512Y-22743927D02*
G01*
X194142812Y-22773624D01*
X194306784Y-22841544D01*
X194454354Y-22940147D01*
X194579853Y-23065646D01*
X194678456Y-23213216D01*
X194746376Y-23377188D01*
X194781000Y-23551259D01*
X194781000Y-23728741D01*
X194746376Y-23902812D01*
X194678456Y-24066784D01*
X194579853Y-24214354D01*
X194454354Y-24339853D01*
X194306784Y-24438456D01*
X194142812Y-24506376D01*
X193993512Y-24536073D01*
X193968742Y-24541000D01*
X193791258Y-24541000D01*
X193766488Y-24536073D01*
X193617188Y-24506376D01*
X193453216Y-24438456D01*
X193305646Y-24339853D01*
X193180147Y-24214354D01*
X193081544Y-24066784D01*
X193013624Y-23902812D01*
X192979000Y-23728741D01*
X192979000Y-23551259D01*
X193013624Y-23377188D01*
X193081544Y-23213216D01*
X193180147Y-23065646D01*
X193305646Y-22940147D01*
X193453216Y-22841544D01*
X193617188Y-22773624D01*
X193766488Y-22743927D01*
X193791258Y-22739000D01*
X193968742Y-22739000D01*
X193993512Y-22743927D01*
G37*
G36*
X191453512Y-22743927D02*
G01*
X191602812Y-22773624D01*
X191766784Y-22841544D01*
X191914354Y-22940147D01*
X192039853Y-23065646D01*
X192138456Y-23213216D01*
X192206376Y-23377188D01*
X192241000Y-23551259D01*
X192241000Y-23728741D01*
X192206376Y-23902812D01*
X192138456Y-24066784D01*
X192039853Y-24214354D01*
X191914354Y-24339853D01*
X191766784Y-24438456D01*
X191602812Y-24506376D01*
X191453512Y-24536073D01*
X191428742Y-24541000D01*
X191251258Y-24541000D01*
X191226488Y-24536073D01*
X191077188Y-24506376D01*
X190913216Y-24438456D01*
X190765646Y-24339853D01*
X190640147Y-24214354D01*
X190541544Y-24066784D01*
X190473624Y-23902812D01*
X190439000Y-23728741D01*
X190439000Y-23551259D01*
X190473624Y-23377188D01*
X190541544Y-23213216D01*
X190640147Y-23065646D01*
X190765646Y-22940147D01*
X190913216Y-22841544D01*
X191077188Y-22773624D01*
X191226488Y-22743927D01*
X191251258Y-22739000D01*
X191428742Y-22739000D01*
X191453512Y-22743927D01*
G37*
G36*
X188913512Y-22743927D02*
G01*
X189062812Y-22773624D01*
X189226784Y-22841544D01*
X189374354Y-22940147D01*
X189499853Y-23065646D01*
X189598456Y-23213216D01*
X189666376Y-23377188D01*
X189701000Y-23551259D01*
X189701000Y-23728741D01*
X189666376Y-23902812D01*
X189598456Y-24066784D01*
X189499853Y-24214354D01*
X189374354Y-24339853D01*
X189226784Y-24438456D01*
X189062812Y-24506376D01*
X188913512Y-24536073D01*
X188888742Y-24541000D01*
X188711258Y-24541000D01*
X188686488Y-24536073D01*
X188537188Y-24506376D01*
X188373216Y-24438456D01*
X188225646Y-24339853D01*
X188100147Y-24214354D01*
X188001544Y-24066784D01*
X187933624Y-23902812D01*
X187899000Y-23728741D01*
X187899000Y-23551259D01*
X187933624Y-23377188D01*
X188001544Y-23213216D01*
X188100147Y-23065646D01*
X188225646Y-22940147D01*
X188373216Y-22841544D01*
X188537188Y-22773624D01*
X188686488Y-22743927D01*
X188711258Y-22739000D01*
X188888742Y-22739000D01*
X188913512Y-22743927D01*
G37*
G36*
X186373512Y-22743927D02*
G01*
X186522812Y-22773624D01*
X186686784Y-22841544D01*
X186834354Y-22940147D01*
X186959853Y-23065646D01*
X187058456Y-23213216D01*
X187126376Y-23377188D01*
X187161000Y-23551259D01*
X187161000Y-23728741D01*
X187126376Y-23902812D01*
X187058456Y-24066784D01*
X186959853Y-24214354D01*
X186834354Y-24339853D01*
X186686784Y-24438456D01*
X186522812Y-24506376D01*
X186373512Y-24536073D01*
X186348742Y-24541000D01*
X186171258Y-24541000D01*
X186146488Y-24536073D01*
X185997188Y-24506376D01*
X185833216Y-24438456D01*
X185685646Y-24339853D01*
X185560147Y-24214354D01*
X185461544Y-24066784D01*
X185393624Y-23902812D01*
X185359000Y-23728741D01*
X185359000Y-23551259D01*
X185393624Y-23377188D01*
X185461544Y-23213216D01*
X185560147Y-23065646D01*
X185685646Y-22940147D01*
X185833216Y-22841544D01*
X185997188Y-22773624D01*
X186146488Y-22743927D01*
X186171258Y-22739000D01*
X186348742Y-22739000D01*
X186373512Y-22743927D01*
G37*
G36*
X163763512Y-22743927D02*
G01*
X163912812Y-22773624D01*
X164076784Y-22841544D01*
X164224354Y-22940147D01*
X164349853Y-23065646D01*
X164448456Y-23213216D01*
X164516376Y-23377188D01*
X164551000Y-23551259D01*
X164551000Y-23728741D01*
X164516376Y-23902812D01*
X164448456Y-24066784D01*
X164349853Y-24214354D01*
X164224354Y-24339853D01*
X164076784Y-24438456D01*
X163912812Y-24506376D01*
X163763512Y-24536073D01*
X163738742Y-24541000D01*
X163561258Y-24541000D01*
X163536488Y-24536073D01*
X163387188Y-24506376D01*
X163223216Y-24438456D01*
X163075646Y-24339853D01*
X162950147Y-24214354D01*
X162851544Y-24066784D01*
X162783624Y-23902812D01*
X162749000Y-23728741D01*
X162749000Y-23551259D01*
X162783624Y-23377188D01*
X162851544Y-23213216D01*
X162950147Y-23065646D01*
X163075646Y-22940147D01*
X163223216Y-22841544D01*
X163387188Y-22773624D01*
X163536488Y-22743927D01*
X163561258Y-22739000D01*
X163738742Y-22739000D01*
X163763512Y-22743927D01*
G37*
G36*
X166303512Y-22743927D02*
G01*
X166452812Y-22773624D01*
X166616784Y-22841544D01*
X166764354Y-22940147D01*
X166889853Y-23065646D01*
X166988456Y-23213216D01*
X167056376Y-23377188D01*
X167091000Y-23551259D01*
X167091000Y-23728741D01*
X167056376Y-23902812D01*
X166988456Y-24066784D01*
X166889853Y-24214354D01*
X166764354Y-24339853D01*
X166616784Y-24438456D01*
X166452812Y-24506376D01*
X166303512Y-24536073D01*
X166278742Y-24541000D01*
X166101258Y-24541000D01*
X166076488Y-24536073D01*
X165927188Y-24506376D01*
X165763216Y-24438456D01*
X165615646Y-24339853D01*
X165490147Y-24214354D01*
X165391544Y-24066784D01*
X165323624Y-23902812D01*
X165289000Y-23728741D01*
X165289000Y-23551259D01*
X165323624Y-23377188D01*
X165391544Y-23213216D01*
X165490147Y-23065646D01*
X165615646Y-22940147D01*
X165763216Y-22841544D01*
X165927188Y-22773624D01*
X166076488Y-22743927D01*
X166101258Y-22739000D01*
X166278742Y-22739000D01*
X166303512Y-22743927D01*
G37*
G36*
X168843512Y-22743927D02*
G01*
X168992812Y-22773624D01*
X169156784Y-22841544D01*
X169304354Y-22940147D01*
X169429853Y-23065646D01*
X169528456Y-23213216D01*
X169596376Y-23377188D01*
X169631000Y-23551259D01*
X169631000Y-23728741D01*
X169596376Y-23902812D01*
X169528456Y-24066784D01*
X169429853Y-24214354D01*
X169304354Y-24339853D01*
X169156784Y-24438456D01*
X168992812Y-24506376D01*
X168843512Y-24536073D01*
X168818742Y-24541000D01*
X168641258Y-24541000D01*
X168616488Y-24536073D01*
X168467188Y-24506376D01*
X168303216Y-24438456D01*
X168155646Y-24339853D01*
X168030147Y-24214354D01*
X167931544Y-24066784D01*
X167863624Y-23902812D01*
X167829000Y-23728741D01*
X167829000Y-23551259D01*
X167863624Y-23377188D01*
X167931544Y-23213216D01*
X168030147Y-23065646D01*
X168155646Y-22940147D01*
X168303216Y-22841544D01*
X168467188Y-22773624D01*
X168616488Y-22743927D01*
X168641258Y-22739000D01*
X168818742Y-22739000D01*
X168843512Y-22743927D01*
G37*
G36*
X171383512Y-22743927D02*
G01*
X171532812Y-22773624D01*
X171696784Y-22841544D01*
X171844354Y-22940147D01*
X171969853Y-23065646D01*
X172068456Y-23213216D01*
X172136376Y-23377188D01*
X172171000Y-23551259D01*
X172171000Y-23728741D01*
X172136376Y-23902812D01*
X172068456Y-24066784D01*
X171969853Y-24214354D01*
X171844354Y-24339853D01*
X171696784Y-24438456D01*
X171532812Y-24506376D01*
X171383512Y-24536073D01*
X171358742Y-24541000D01*
X171181258Y-24541000D01*
X171156488Y-24536073D01*
X171007188Y-24506376D01*
X170843216Y-24438456D01*
X170695646Y-24339853D01*
X170570147Y-24214354D01*
X170471544Y-24066784D01*
X170403624Y-23902812D01*
X170369000Y-23728741D01*
X170369000Y-23551259D01*
X170403624Y-23377188D01*
X170471544Y-23213216D01*
X170570147Y-23065646D01*
X170695646Y-22940147D01*
X170843216Y-22841544D01*
X171007188Y-22773624D01*
X171156488Y-22743927D01*
X171181258Y-22739000D01*
X171358742Y-22739000D01*
X171383512Y-22743927D01*
G37*
G36*
X184621000Y-24541000D02*
G01*
X182819000Y-24541000D01*
X182819000Y-22739000D01*
X184621000Y-22739000D01*
X184621000Y-24541000D01*
G37*
G36*
X173923512Y-22743927D02*
G01*
X174072812Y-22773624D01*
X174236784Y-22841544D01*
X174384354Y-22940147D01*
X174509853Y-23065646D01*
X174608456Y-23213216D01*
X174676376Y-23377188D01*
X174711000Y-23551259D01*
X174711000Y-23728741D01*
X174676376Y-23902812D01*
X174608456Y-24066784D01*
X174509853Y-24214354D01*
X174384354Y-24339853D01*
X174236784Y-24438456D01*
X174072812Y-24506376D01*
X173923512Y-24536073D01*
X173898742Y-24541000D01*
X173721258Y-24541000D01*
X173696488Y-24536073D01*
X173547188Y-24506376D01*
X173383216Y-24438456D01*
X173235646Y-24339853D01*
X173110147Y-24214354D01*
X173011544Y-24066784D01*
X172943624Y-23902812D01*
X172909000Y-23728741D01*
X172909000Y-23551259D01*
X172943624Y-23377188D01*
X173011544Y-23213216D01*
X173110147Y-23065646D01*
X173235646Y-22940147D01*
X173383216Y-22841544D01*
X173547188Y-22773624D01*
X173696488Y-22743927D01*
X173721258Y-22739000D01*
X173898742Y-22739000D01*
X173923512Y-22743927D01*
G37*
G36*
X214033512Y-20223927D02*
G01*
X214182812Y-20253624D01*
X214346784Y-20321544D01*
X214494354Y-20420147D01*
X214619853Y-20545646D01*
X214718456Y-20693216D01*
X214786376Y-20857188D01*
X214821000Y-21031259D01*
X214821000Y-21208741D01*
X214786376Y-21382812D01*
X214718456Y-21546784D01*
X214619853Y-21694354D01*
X214494354Y-21819853D01*
X214346784Y-21918456D01*
X214182812Y-21986376D01*
X214033512Y-22016073D01*
X214008742Y-22021000D01*
X213831258Y-22021000D01*
X213806488Y-22016073D01*
X213657188Y-21986376D01*
X213493216Y-21918456D01*
X213345646Y-21819853D01*
X213220147Y-21694354D01*
X213121544Y-21546784D01*
X213053624Y-21382812D01*
X213019000Y-21208741D01*
X213019000Y-21031259D01*
X213053624Y-20857188D01*
X213121544Y-20693216D01*
X213220147Y-20545646D01*
X213345646Y-20420147D01*
X213493216Y-20321544D01*
X213657188Y-20253624D01*
X213806488Y-20223927D01*
X213831258Y-20219000D01*
X214008742Y-20219000D01*
X214033512Y-20223927D01*
G37*
G36*
X206413512Y-20223927D02*
G01*
X206562812Y-20253624D01*
X206726784Y-20321544D01*
X206874354Y-20420147D01*
X206999853Y-20545646D01*
X207098456Y-20693216D01*
X207166376Y-20857188D01*
X207201000Y-21031259D01*
X207201000Y-21208741D01*
X207166376Y-21382812D01*
X207098456Y-21546784D01*
X206999853Y-21694354D01*
X206874354Y-21819853D01*
X206726784Y-21918456D01*
X206562812Y-21986376D01*
X206413512Y-22016073D01*
X206388742Y-22021000D01*
X206211258Y-22021000D01*
X206186488Y-22016073D01*
X206037188Y-21986376D01*
X205873216Y-21918456D01*
X205725646Y-21819853D01*
X205600147Y-21694354D01*
X205501544Y-21546784D01*
X205433624Y-21382812D01*
X205399000Y-21208741D01*
X205399000Y-21031259D01*
X205433624Y-20857188D01*
X205501544Y-20693216D01*
X205600147Y-20545646D01*
X205725646Y-20420147D01*
X205873216Y-20321544D01*
X206037188Y-20253624D01*
X206186488Y-20223927D01*
X206211258Y-20219000D01*
X206388742Y-20219000D01*
X206413512Y-20223927D01*
G37*
G36*
X208953512Y-20223927D02*
G01*
X209102812Y-20253624D01*
X209266784Y-20321544D01*
X209414354Y-20420147D01*
X209539853Y-20545646D01*
X209638456Y-20693216D01*
X209706376Y-20857188D01*
X209741000Y-21031259D01*
X209741000Y-21208741D01*
X209706376Y-21382812D01*
X209638456Y-21546784D01*
X209539853Y-21694354D01*
X209414354Y-21819853D01*
X209266784Y-21918456D01*
X209102812Y-21986376D01*
X208953512Y-22016073D01*
X208928742Y-22021000D01*
X208751258Y-22021000D01*
X208726488Y-22016073D01*
X208577188Y-21986376D01*
X208413216Y-21918456D01*
X208265646Y-21819853D01*
X208140147Y-21694354D01*
X208041544Y-21546784D01*
X207973624Y-21382812D01*
X207939000Y-21208741D01*
X207939000Y-21031259D01*
X207973624Y-20857188D01*
X208041544Y-20693216D01*
X208140147Y-20545646D01*
X208265646Y-20420147D01*
X208413216Y-20321544D01*
X208577188Y-20253624D01*
X208726488Y-20223927D01*
X208751258Y-20219000D01*
X208928742Y-20219000D01*
X208953512Y-20223927D01*
G37*
G36*
X211493512Y-20223927D02*
G01*
X211642812Y-20253624D01*
X211806784Y-20321544D01*
X211954354Y-20420147D01*
X212079853Y-20545646D01*
X212178456Y-20693216D01*
X212246376Y-20857188D01*
X212281000Y-21031259D01*
X212281000Y-21208741D01*
X212246376Y-21382812D01*
X212178456Y-21546784D01*
X212079853Y-21694354D01*
X211954354Y-21819853D01*
X211806784Y-21918456D01*
X211642812Y-21986376D01*
X211493512Y-22016073D01*
X211468742Y-22021000D01*
X211291258Y-22021000D01*
X211266488Y-22016073D01*
X211117188Y-21986376D01*
X210953216Y-21918456D01*
X210805646Y-21819853D01*
X210680147Y-21694354D01*
X210581544Y-21546784D01*
X210513624Y-21382812D01*
X210479000Y-21208741D01*
X210479000Y-21031259D01*
X210513624Y-20857188D01*
X210581544Y-20693216D01*
X210680147Y-20545646D01*
X210805646Y-20420147D01*
X210953216Y-20321544D01*
X211117188Y-20253624D01*
X211266488Y-20223927D01*
X211291258Y-20219000D01*
X211468742Y-20219000D01*
X211493512Y-20223927D01*
G37*
G36*
X219113512Y-20223927D02*
G01*
X219262812Y-20253624D01*
X219426784Y-20321544D01*
X219574354Y-20420147D01*
X219699853Y-20545646D01*
X219798456Y-20693216D01*
X219866376Y-20857188D01*
X219901000Y-21031259D01*
X219901000Y-21208741D01*
X219866376Y-21382812D01*
X219798456Y-21546784D01*
X219699853Y-21694354D01*
X219574354Y-21819853D01*
X219426784Y-21918456D01*
X219262812Y-21986376D01*
X219113512Y-22016073D01*
X219088742Y-22021000D01*
X218911258Y-22021000D01*
X218886488Y-22016073D01*
X218737188Y-21986376D01*
X218573216Y-21918456D01*
X218425646Y-21819853D01*
X218300147Y-21694354D01*
X218201544Y-21546784D01*
X218133624Y-21382812D01*
X218099000Y-21208741D01*
X218099000Y-21031259D01*
X218133624Y-20857188D01*
X218201544Y-20693216D01*
X218300147Y-20545646D01*
X218425646Y-20420147D01*
X218573216Y-20321544D01*
X218737188Y-20253624D01*
X218886488Y-20223927D01*
X218911258Y-20219000D01*
X219088742Y-20219000D01*
X219113512Y-20223927D01*
G37*
G36*
X216573512Y-20223927D02*
G01*
X216722812Y-20253624D01*
X216886784Y-20321544D01*
X217034354Y-20420147D01*
X217159853Y-20545646D01*
X217258456Y-20693216D01*
X217326376Y-20857188D01*
X217361000Y-21031259D01*
X217361000Y-21208741D01*
X217326376Y-21382812D01*
X217258456Y-21546784D01*
X217159853Y-21694354D01*
X217034354Y-21819853D01*
X216886784Y-21918456D01*
X216722812Y-21986376D01*
X216573512Y-22016073D01*
X216548742Y-22021000D01*
X216371258Y-22021000D01*
X216346488Y-22016073D01*
X216197188Y-21986376D01*
X216033216Y-21918456D01*
X215885646Y-21819853D01*
X215760147Y-21694354D01*
X215661544Y-21546784D01*
X215593624Y-21382812D01*
X215559000Y-21208741D01*
X215559000Y-21031259D01*
X215593624Y-20857188D01*
X215661544Y-20693216D01*
X215760147Y-20545646D01*
X215885646Y-20420147D01*
X216033216Y-20321544D01*
X216197188Y-20253624D01*
X216346488Y-20223927D01*
X216371258Y-20219000D01*
X216548742Y-20219000D01*
X216573512Y-20223927D01*
G37*
G36*
X229033512Y-20213927D02*
G01*
X229182812Y-20243624D01*
X229346784Y-20311544D01*
X229494354Y-20410147D01*
X229619853Y-20535646D01*
X229718456Y-20683216D01*
X229786376Y-20847188D01*
X229821000Y-21021259D01*
X229821000Y-21198741D01*
X229786376Y-21372812D01*
X229718456Y-21536784D01*
X229619853Y-21684354D01*
X229494354Y-21809853D01*
X229346784Y-21908456D01*
X229182812Y-21976376D01*
X229033512Y-22006073D01*
X229008742Y-22011000D01*
X228831258Y-22011000D01*
X228806488Y-22006073D01*
X228657188Y-21976376D01*
X228493216Y-21908456D01*
X228345646Y-21809853D01*
X228220147Y-21684354D01*
X228121544Y-21536784D01*
X228053624Y-21372812D01*
X228019000Y-21198741D01*
X228019000Y-21021259D01*
X228053624Y-20847188D01*
X228121544Y-20683216D01*
X228220147Y-20535646D01*
X228345646Y-20410147D01*
X228493216Y-20311544D01*
X228657188Y-20243624D01*
X228806488Y-20213927D01*
X228831258Y-20209000D01*
X229008742Y-20209000D01*
X229033512Y-20213927D01*
G37*
G36*
X231573512Y-20213927D02*
G01*
X231722812Y-20243624D01*
X231886784Y-20311544D01*
X232034354Y-20410147D01*
X232159853Y-20535646D01*
X232258456Y-20683216D01*
X232326376Y-20847188D01*
X232361000Y-21021259D01*
X232361000Y-21198741D01*
X232326376Y-21372812D01*
X232258456Y-21536784D01*
X232159853Y-21684354D01*
X232034354Y-21809853D01*
X231886784Y-21908456D01*
X231722812Y-21976376D01*
X231573512Y-22006073D01*
X231548742Y-22011000D01*
X231371258Y-22011000D01*
X231346488Y-22006073D01*
X231197188Y-21976376D01*
X231033216Y-21908456D01*
X230885646Y-21809853D01*
X230760147Y-21684354D01*
X230661544Y-21536784D01*
X230593624Y-21372812D01*
X230559000Y-21198741D01*
X230559000Y-21021259D01*
X230593624Y-20847188D01*
X230661544Y-20683216D01*
X230760147Y-20535646D01*
X230885646Y-20410147D01*
X231033216Y-20311544D01*
X231197188Y-20243624D01*
X231346488Y-20213927D01*
X231371258Y-20209000D01*
X231548742Y-20209000D01*
X231573512Y-20213927D01*
G37*
G36*
X234113512Y-20213927D02*
G01*
X234262812Y-20243624D01*
X234426784Y-20311544D01*
X234574354Y-20410147D01*
X234699853Y-20535646D01*
X234798456Y-20683216D01*
X234866376Y-20847188D01*
X234901000Y-21021259D01*
X234901000Y-21198741D01*
X234866376Y-21372812D01*
X234798456Y-21536784D01*
X234699853Y-21684354D01*
X234574354Y-21809853D01*
X234426784Y-21908456D01*
X234262812Y-21976376D01*
X234113512Y-22006073D01*
X234088742Y-22011000D01*
X233911258Y-22011000D01*
X233886488Y-22006073D01*
X233737188Y-21976376D01*
X233573216Y-21908456D01*
X233425646Y-21809853D01*
X233300147Y-21684354D01*
X233201544Y-21536784D01*
X233133624Y-21372812D01*
X233099000Y-21198741D01*
X233099000Y-21021259D01*
X233133624Y-20847188D01*
X233201544Y-20683216D01*
X233300147Y-20535646D01*
X233425646Y-20410147D01*
X233573216Y-20311544D01*
X233737188Y-20243624D01*
X233886488Y-20213927D01*
X233911258Y-20209000D01*
X234088742Y-20209000D01*
X234113512Y-20213927D01*
G37*
G36*
X236653512Y-20213927D02*
G01*
X236802812Y-20243624D01*
X236966784Y-20311544D01*
X237114354Y-20410147D01*
X237239853Y-20535646D01*
X237338456Y-20683216D01*
X237406376Y-20847188D01*
X237441000Y-21021259D01*
X237441000Y-21198741D01*
X237406376Y-21372812D01*
X237338456Y-21536784D01*
X237239853Y-21684354D01*
X237114354Y-21809853D01*
X236966784Y-21908456D01*
X236802812Y-21976376D01*
X236653512Y-22006073D01*
X236628742Y-22011000D01*
X236451258Y-22011000D01*
X236426488Y-22006073D01*
X236277188Y-21976376D01*
X236113216Y-21908456D01*
X235965646Y-21809853D01*
X235840147Y-21684354D01*
X235741544Y-21536784D01*
X235673624Y-21372812D01*
X235639000Y-21198741D01*
X235639000Y-21021259D01*
X235673624Y-20847188D01*
X235741544Y-20683216D01*
X235840147Y-20535646D01*
X235965646Y-20410147D01*
X236113216Y-20311544D01*
X236277188Y-20243624D01*
X236426488Y-20213927D01*
X236451258Y-20209000D01*
X236628742Y-20209000D01*
X236653512Y-20213927D01*
G37*
G36*
X239193512Y-20213927D02*
G01*
X239342812Y-20243624D01*
X239506784Y-20311544D01*
X239654354Y-20410147D01*
X239779853Y-20535646D01*
X239878456Y-20683216D01*
X239946376Y-20847188D01*
X239981000Y-21021259D01*
X239981000Y-21198741D01*
X239946376Y-21372812D01*
X239878456Y-21536784D01*
X239779853Y-21684354D01*
X239654354Y-21809853D01*
X239506784Y-21908456D01*
X239342812Y-21976376D01*
X239193512Y-22006073D01*
X239168742Y-22011000D01*
X238991258Y-22011000D01*
X238966488Y-22006073D01*
X238817188Y-21976376D01*
X238653216Y-21908456D01*
X238505646Y-21809853D01*
X238380147Y-21684354D01*
X238281544Y-21536784D01*
X238213624Y-21372812D01*
X238179000Y-21198741D01*
X238179000Y-21021259D01*
X238213624Y-20847188D01*
X238281544Y-20683216D01*
X238380147Y-20535646D01*
X238505646Y-20410147D01*
X238653216Y-20311544D01*
X238817188Y-20243624D01*
X238966488Y-20213927D01*
X238991258Y-20209000D01*
X239168742Y-20209000D01*
X239193512Y-20213927D01*
G37*
G36*
X241733512Y-20213927D02*
G01*
X241882812Y-20243624D01*
X242046784Y-20311544D01*
X242194354Y-20410147D01*
X242319853Y-20535646D01*
X242418456Y-20683216D01*
X242486376Y-20847188D01*
X242521000Y-21021259D01*
X242521000Y-21198741D01*
X242486376Y-21372812D01*
X242418456Y-21536784D01*
X242319853Y-21684354D01*
X242194354Y-21809853D01*
X242046784Y-21908456D01*
X241882812Y-21976376D01*
X241733512Y-22006073D01*
X241708742Y-22011000D01*
X241531258Y-22011000D01*
X241506488Y-22006073D01*
X241357188Y-21976376D01*
X241193216Y-21908456D01*
X241045646Y-21809853D01*
X240920147Y-21684354D01*
X240821544Y-21536784D01*
X240753624Y-21372812D01*
X240719000Y-21198741D01*
X240719000Y-21021259D01*
X240753624Y-20847188D01*
X240821544Y-20683216D01*
X240920147Y-20535646D01*
X241045646Y-20410147D01*
X241193216Y-20311544D01*
X241357188Y-20243624D01*
X241506488Y-20213927D01*
X241531258Y-20209000D01*
X241708742Y-20209000D01*
X241733512Y-20213927D01*
G37*
G36*
X161223512Y-20203927D02*
G01*
X161372812Y-20233624D01*
X161536784Y-20301544D01*
X161684354Y-20400147D01*
X161809853Y-20525646D01*
X161908456Y-20673216D01*
X161976376Y-20837188D01*
X162011000Y-21011259D01*
X162011000Y-21188741D01*
X161976376Y-21362812D01*
X161908456Y-21526784D01*
X161809853Y-21674354D01*
X161684354Y-21799853D01*
X161536784Y-21898456D01*
X161372812Y-21966376D01*
X161223512Y-21996073D01*
X161198742Y-22001000D01*
X161021258Y-22001000D01*
X160996488Y-21996073D01*
X160847188Y-21966376D01*
X160683216Y-21898456D01*
X160535646Y-21799853D01*
X160410147Y-21674354D01*
X160311544Y-21526784D01*
X160243624Y-21362812D01*
X160209000Y-21188741D01*
X160209000Y-21011259D01*
X160243624Y-20837188D01*
X160311544Y-20673216D01*
X160410147Y-20525646D01*
X160535646Y-20400147D01*
X160683216Y-20301544D01*
X160847188Y-20233624D01*
X160996488Y-20203927D01*
X161021258Y-20199000D01*
X161198742Y-20199000D01*
X161223512Y-20203927D01*
G37*
G36*
X173923512Y-20203927D02*
G01*
X174072812Y-20233624D01*
X174236784Y-20301544D01*
X174384354Y-20400147D01*
X174509853Y-20525646D01*
X174608456Y-20673216D01*
X174676376Y-20837188D01*
X174711000Y-21011259D01*
X174711000Y-21188741D01*
X174676376Y-21362812D01*
X174608456Y-21526784D01*
X174509853Y-21674354D01*
X174384354Y-21799853D01*
X174236784Y-21898456D01*
X174072812Y-21966376D01*
X173923512Y-21996073D01*
X173898742Y-22001000D01*
X173721258Y-22001000D01*
X173696488Y-21996073D01*
X173547188Y-21966376D01*
X173383216Y-21898456D01*
X173235646Y-21799853D01*
X173110147Y-21674354D01*
X173011544Y-21526784D01*
X172943624Y-21362812D01*
X172909000Y-21188741D01*
X172909000Y-21011259D01*
X172943624Y-20837188D01*
X173011544Y-20673216D01*
X173110147Y-20525646D01*
X173235646Y-20400147D01*
X173383216Y-20301544D01*
X173547188Y-20233624D01*
X173696488Y-20203927D01*
X173721258Y-20199000D01*
X173898742Y-20199000D01*
X173923512Y-20203927D01*
G37*
G36*
X186373512Y-20203927D02*
G01*
X186522812Y-20233624D01*
X186686784Y-20301544D01*
X186834354Y-20400147D01*
X186959853Y-20525646D01*
X187058456Y-20673216D01*
X187126376Y-20837188D01*
X187161000Y-21011259D01*
X187161000Y-21188741D01*
X187126376Y-21362812D01*
X187058456Y-21526784D01*
X186959853Y-21674354D01*
X186834354Y-21799853D01*
X186686784Y-21898456D01*
X186522812Y-21966376D01*
X186373512Y-21996073D01*
X186348742Y-22001000D01*
X186171258Y-22001000D01*
X186146488Y-21996073D01*
X185997188Y-21966376D01*
X185833216Y-21898456D01*
X185685646Y-21799853D01*
X185560147Y-21674354D01*
X185461544Y-21526784D01*
X185393624Y-21362812D01*
X185359000Y-21188741D01*
X185359000Y-21011259D01*
X185393624Y-20837188D01*
X185461544Y-20673216D01*
X185560147Y-20525646D01*
X185685646Y-20400147D01*
X185833216Y-20301544D01*
X185997188Y-20233624D01*
X186146488Y-20203927D01*
X186171258Y-20199000D01*
X186348742Y-20199000D01*
X186373512Y-20203927D01*
G37*
G36*
X188913512Y-20203927D02*
G01*
X189062812Y-20233624D01*
X189226784Y-20301544D01*
X189374354Y-20400147D01*
X189499853Y-20525646D01*
X189598456Y-20673216D01*
X189666376Y-20837188D01*
X189701000Y-21011259D01*
X189701000Y-21188741D01*
X189666376Y-21362812D01*
X189598456Y-21526784D01*
X189499853Y-21674354D01*
X189374354Y-21799853D01*
X189226784Y-21898456D01*
X189062812Y-21966376D01*
X188913512Y-21996073D01*
X188888742Y-22001000D01*
X188711258Y-22001000D01*
X188686488Y-21996073D01*
X188537188Y-21966376D01*
X188373216Y-21898456D01*
X188225646Y-21799853D01*
X188100147Y-21674354D01*
X188001544Y-21526784D01*
X187933624Y-21362812D01*
X187899000Y-21188741D01*
X187899000Y-21011259D01*
X187933624Y-20837188D01*
X188001544Y-20673216D01*
X188100147Y-20525646D01*
X188225646Y-20400147D01*
X188373216Y-20301544D01*
X188537188Y-20233624D01*
X188686488Y-20203927D01*
X188711258Y-20199000D01*
X188888742Y-20199000D01*
X188913512Y-20203927D01*
G37*
G36*
X191453512Y-20203927D02*
G01*
X191602812Y-20233624D01*
X191766784Y-20301544D01*
X191914354Y-20400147D01*
X192039853Y-20525646D01*
X192138456Y-20673216D01*
X192206376Y-20837188D01*
X192241000Y-21011259D01*
X192241000Y-21188741D01*
X192206376Y-21362812D01*
X192138456Y-21526784D01*
X192039853Y-21674354D01*
X191914354Y-21799853D01*
X191766784Y-21898456D01*
X191602812Y-21966376D01*
X191453512Y-21996073D01*
X191428742Y-22001000D01*
X191251258Y-22001000D01*
X191226488Y-21996073D01*
X191077188Y-21966376D01*
X190913216Y-21898456D01*
X190765646Y-21799853D01*
X190640147Y-21674354D01*
X190541544Y-21526784D01*
X190473624Y-21362812D01*
X190439000Y-21188741D01*
X190439000Y-21011259D01*
X190473624Y-20837188D01*
X190541544Y-20673216D01*
X190640147Y-20525646D01*
X190765646Y-20400147D01*
X190913216Y-20301544D01*
X191077188Y-20233624D01*
X191226488Y-20203927D01*
X191251258Y-20199000D01*
X191428742Y-20199000D01*
X191453512Y-20203927D01*
G37*
G36*
X193993512Y-20203927D02*
G01*
X194142812Y-20233624D01*
X194306784Y-20301544D01*
X194454354Y-20400147D01*
X194579853Y-20525646D01*
X194678456Y-20673216D01*
X194746376Y-20837188D01*
X194781000Y-21011259D01*
X194781000Y-21188741D01*
X194746376Y-21362812D01*
X194678456Y-21526784D01*
X194579853Y-21674354D01*
X194454354Y-21799853D01*
X194306784Y-21898456D01*
X194142812Y-21966376D01*
X193993512Y-21996073D01*
X193968742Y-22001000D01*
X193791258Y-22001000D01*
X193766488Y-21996073D01*
X193617188Y-21966376D01*
X193453216Y-21898456D01*
X193305646Y-21799853D01*
X193180147Y-21674354D01*
X193081544Y-21526784D01*
X193013624Y-21362812D01*
X192979000Y-21188741D01*
X192979000Y-21011259D01*
X193013624Y-20837188D01*
X193081544Y-20673216D01*
X193180147Y-20525646D01*
X193305646Y-20400147D01*
X193453216Y-20301544D01*
X193617188Y-20233624D01*
X193766488Y-20203927D01*
X193791258Y-20199000D01*
X193968742Y-20199000D01*
X193993512Y-20203927D01*
G37*
G36*
X196533512Y-20203927D02*
G01*
X196682812Y-20233624D01*
X196846784Y-20301544D01*
X196994354Y-20400147D01*
X197119853Y-20525646D01*
X197218456Y-20673216D01*
X197286376Y-20837188D01*
X197321000Y-21011259D01*
X197321000Y-21188741D01*
X197286376Y-21362812D01*
X197218456Y-21526784D01*
X197119853Y-21674354D01*
X196994354Y-21799853D01*
X196846784Y-21898456D01*
X196682812Y-21966376D01*
X196533512Y-21996073D01*
X196508742Y-22001000D01*
X196331258Y-22001000D01*
X196306488Y-21996073D01*
X196157188Y-21966376D01*
X195993216Y-21898456D01*
X195845646Y-21799853D01*
X195720147Y-21674354D01*
X195621544Y-21526784D01*
X195553624Y-21362812D01*
X195519000Y-21188741D01*
X195519000Y-21011259D01*
X195553624Y-20837188D01*
X195621544Y-20673216D01*
X195720147Y-20525646D01*
X195845646Y-20400147D01*
X195993216Y-20301544D01*
X196157188Y-20233624D01*
X196306488Y-20203927D01*
X196331258Y-20199000D01*
X196508742Y-20199000D01*
X196533512Y-20203927D01*
G37*
G36*
X171383512Y-20203927D02*
G01*
X171532812Y-20233624D01*
X171696784Y-20301544D01*
X171844354Y-20400147D01*
X171969853Y-20525646D01*
X172068456Y-20673216D01*
X172136376Y-20837188D01*
X172171000Y-21011259D01*
X172171000Y-21188741D01*
X172136376Y-21362812D01*
X172068456Y-21526784D01*
X171969853Y-21674354D01*
X171844354Y-21799853D01*
X171696784Y-21898456D01*
X171532812Y-21966376D01*
X171383512Y-21996073D01*
X171358742Y-22001000D01*
X171181258Y-22001000D01*
X171156488Y-21996073D01*
X171007188Y-21966376D01*
X170843216Y-21898456D01*
X170695646Y-21799853D01*
X170570147Y-21674354D01*
X170471544Y-21526784D01*
X170403624Y-21362812D01*
X170369000Y-21188741D01*
X170369000Y-21011259D01*
X170403624Y-20837188D01*
X170471544Y-20673216D01*
X170570147Y-20525646D01*
X170695646Y-20400147D01*
X170843216Y-20301544D01*
X171007188Y-20233624D01*
X171156488Y-20203927D01*
X171181258Y-20199000D01*
X171358742Y-20199000D01*
X171383512Y-20203927D01*
G37*
G36*
X168843512Y-20203927D02*
G01*
X168992812Y-20233624D01*
X169156784Y-20301544D01*
X169304354Y-20400147D01*
X169429853Y-20525646D01*
X169528456Y-20673216D01*
X169596376Y-20837188D01*
X169631000Y-21011259D01*
X169631000Y-21188741D01*
X169596376Y-21362812D01*
X169528456Y-21526784D01*
X169429853Y-21674354D01*
X169304354Y-21799853D01*
X169156784Y-21898456D01*
X168992812Y-21966376D01*
X168843512Y-21996073D01*
X168818742Y-22001000D01*
X168641258Y-22001000D01*
X168616488Y-21996073D01*
X168467188Y-21966376D01*
X168303216Y-21898456D01*
X168155646Y-21799853D01*
X168030147Y-21674354D01*
X167931544Y-21526784D01*
X167863624Y-21362812D01*
X167829000Y-21188741D01*
X167829000Y-21011259D01*
X167863624Y-20837188D01*
X167931544Y-20673216D01*
X168030147Y-20525646D01*
X168155646Y-20400147D01*
X168303216Y-20301544D01*
X168467188Y-20233624D01*
X168616488Y-20203927D01*
X168641258Y-20199000D01*
X168818742Y-20199000D01*
X168843512Y-20203927D01*
G37*
G36*
X166303512Y-20203927D02*
G01*
X166452812Y-20233624D01*
X166616784Y-20301544D01*
X166764354Y-20400147D01*
X166889853Y-20525646D01*
X166988456Y-20673216D01*
X167056376Y-20837188D01*
X167091000Y-21011259D01*
X167091000Y-21188741D01*
X167056376Y-21362812D01*
X166988456Y-21526784D01*
X166889853Y-21674354D01*
X166764354Y-21799853D01*
X166616784Y-21898456D01*
X166452812Y-21966376D01*
X166303512Y-21996073D01*
X166278742Y-22001000D01*
X166101258Y-22001000D01*
X166076488Y-21996073D01*
X165927188Y-21966376D01*
X165763216Y-21898456D01*
X165615646Y-21799853D01*
X165490147Y-21674354D01*
X165391544Y-21526784D01*
X165323624Y-21362812D01*
X165289000Y-21188741D01*
X165289000Y-21011259D01*
X165323624Y-20837188D01*
X165391544Y-20673216D01*
X165490147Y-20525646D01*
X165615646Y-20400147D01*
X165763216Y-20301544D01*
X165927188Y-20233624D01*
X166076488Y-20203927D01*
X166101258Y-20199000D01*
X166278742Y-20199000D01*
X166303512Y-20203927D01*
G37*
G36*
X163763512Y-20203927D02*
G01*
X163912812Y-20233624D01*
X164076784Y-20301544D01*
X164224354Y-20400147D01*
X164349853Y-20525646D01*
X164448456Y-20673216D01*
X164516376Y-20837188D01*
X164551000Y-21011259D01*
X164551000Y-21188741D01*
X164516376Y-21362812D01*
X164448456Y-21526784D01*
X164349853Y-21674354D01*
X164224354Y-21799853D01*
X164076784Y-21898456D01*
X163912812Y-21966376D01*
X163763512Y-21996073D01*
X163738742Y-22001000D01*
X163561258Y-22001000D01*
X163536488Y-21996073D01*
X163387188Y-21966376D01*
X163223216Y-21898456D01*
X163075646Y-21799853D01*
X162950147Y-21674354D01*
X162851544Y-21526784D01*
X162783624Y-21362812D01*
X162749000Y-21188741D01*
X162749000Y-21011259D01*
X162783624Y-20837188D01*
X162851544Y-20673216D01*
X162950147Y-20525646D01*
X163075646Y-20400147D01*
X163223216Y-20301544D01*
X163387188Y-20233624D01*
X163536488Y-20203927D01*
X163561258Y-20199000D01*
X163738742Y-20199000D01*
X163763512Y-20203927D01*
G37*
G36*
X183833512Y-20203927D02*
G01*
X183982812Y-20233624D01*
X184146784Y-20301544D01*
X184294354Y-20400147D01*
X184419853Y-20525646D01*
X184518456Y-20673216D01*
X184586376Y-20837188D01*
X184621000Y-21011259D01*
X184621000Y-21188741D01*
X184586376Y-21362812D01*
X184518456Y-21526784D01*
X184419853Y-21674354D01*
X184294354Y-21799853D01*
X184146784Y-21898456D01*
X183982812Y-21966376D01*
X183833512Y-21996073D01*
X183808742Y-22001000D01*
X183631258Y-22001000D01*
X183606488Y-21996073D01*
X183457188Y-21966376D01*
X183293216Y-21898456D01*
X183145646Y-21799853D01*
X183020147Y-21674354D01*
X182921544Y-21526784D01*
X182853624Y-21362812D01*
X182819000Y-21188741D01*
X182819000Y-21011259D01*
X182853624Y-20837188D01*
X182921544Y-20673216D01*
X183020147Y-20525646D01*
X183145646Y-20400147D01*
X183293216Y-20301544D01*
X183457188Y-20233624D01*
X183606488Y-20203927D01*
X183631258Y-20199000D01*
X183808742Y-20199000D01*
X183833512Y-20203927D01*
G37*
M02*
