G04 #@! TF.GenerationSoftware,KiCad,Pcbnew,5.1.5+dfsg1-2build2*
G04 #@! TF.CreationDate,2021-11-07T20:55:21-03:00*
G04 #@! TF.ProjectId,board_test,626f6172-645f-4746-9573-742e6b696361,rev?*
G04 #@! TF.SameCoordinates,Original*
G04 #@! TF.FileFunction,Copper,L4,Bot*
G04 #@! TF.FilePolarity,Positive*
%FSLAX46Y46*%
G04 Gerber Fmt 4.6, Leading zero omitted, Abs format (unit mm)*
G04 Created by KiCad (PCBNEW 5.1.5+dfsg1-2build2) date 2021-11-07 20:55:21*
%MOMM*%
%LPD*%
G04 APERTURE LIST*
%ADD10O,1.700000X1.700000*%
%ADD11R,1.700000X1.700000*%
%ADD12C,1.600000*%
%ADD13C,0.100000*%
%ADD14O,3.500000X7.000000*%
%ADD15C,1.700000*%
%ADD16O,1.900000X3.500000*%
%ADD17O,2.200000X1.740000*%
%ADD18C,0.400000*%
%ADD19C,0.800000*%
%ADD20C,0.200000*%
%ADD21C,0.300000*%
%ADD22C,0.250000*%
G04 APERTURE END LIST*
D10*
X200160000Y-21090000D03*
X200160000Y-23630000D03*
X197620000Y-21090000D03*
X197620000Y-23630000D03*
X195080000Y-21090000D03*
X195080000Y-23630000D03*
X192540000Y-21090000D03*
X192540000Y-23630000D03*
X190000000Y-21090000D03*
X190000000Y-23630000D03*
X187460000Y-21090000D03*
D11*
X187460000Y-23630000D03*
D12*
X240810000Y-91150000D03*
X243350000Y-93690000D03*
X245890000Y-91150000D03*
G04 #@! TA.AperFunction,ComponentPad*
D13*
G36*
X243789207Y-90351926D02*
G01*
X243828036Y-90357686D01*
X243866114Y-90367224D01*
X243903073Y-90380448D01*
X243938559Y-90397231D01*
X243972228Y-90417412D01*
X244003757Y-90440796D01*
X244032843Y-90467157D01*
X244059204Y-90496243D01*
X244082588Y-90527772D01*
X244102769Y-90561441D01*
X244119552Y-90596927D01*
X244132776Y-90633886D01*
X244142314Y-90671964D01*
X244148074Y-90710793D01*
X244150000Y-90750000D01*
X244150000Y-91550000D01*
X244148074Y-91589207D01*
X244142314Y-91628036D01*
X244132776Y-91666114D01*
X244119552Y-91703073D01*
X244102769Y-91738559D01*
X244082588Y-91772228D01*
X244059204Y-91803757D01*
X244032843Y-91832843D01*
X244003757Y-91859204D01*
X243972228Y-91882588D01*
X243938559Y-91902769D01*
X243903073Y-91919552D01*
X243866114Y-91932776D01*
X243828036Y-91942314D01*
X243789207Y-91948074D01*
X243750000Y-91950000D01*
X242950000Y-91950000D01*
X242910793Y-91948074D01*
X242871964Y-91942314D01*
X242833886Y-91932776D01*
X242796927Y-91919552D01*
X242761441Y-91902769D01*
X242727772Y-91882588D01*
X242696243Y-91859204D01*
X242667157Y-91832843D01*
X242640796Y-91803757D01*
X242617412Y-91772228D01*
X242597231Y-91738559D01*
X242580448Y-91703073D01*
X242567224Y-91666114D01*
X242557686Y-91628036D01*
X242551926Y-91589207D01*
X242550000Y-91550000D01*
X242550000Y-90750000D01*
X242551926Y-90710793D01*
X242557686Y-90671964D01*
X242567224Y-90633886D01*
X242580448Y-90596927D01*
X242597231Y-90561441D01*
X242617412Y-90527772D01*
X242640796Y-90496243D01*
X242667157Y-90467157D01*
X242696243Y-90440796D01*
X242727772Y-90417412D01*
X242761441Y-90397231D01*
X242796927Y-90380448D01*
X242833886Y-90367224D01*
X242871964Y-90357686D01*
X242910793Y-90351926D01*
X242950000Y-90350000D01*
X243750000Y-90350000D01*
X243789207Y-90351926D01*
G37*
G04 #@! TD.AperFunction*
D14*
X238270000Y-100040000D03*
X248430000Y-100040000D03*
D12*
X223570000Y-91140000D03*
X226110000Y-93680000D03*
X228650000Y-91140000D03*
G04 #@! TA.AperFunction,ComponentPad*
D13*
G36*
X226549207Y-90341926D02*
G01*
X226588036Y-90347686D01*
X226626114Y-90357224D01*
X226663073Y-90370448D01*
X226698559Y-90387231D01*
X226732228Y-90407412D01*
X226763757Y-90430796D01*
X226792843Y-90457157D01*
X226819204Y-90486243D01*
X226842588Y-90517772D01*
X226862769Y-90551441D01*
X226879552Y-90586927D01*
X226892776Y-90623886D01*
X226902314Y-90661964D01*
X226908074Y-90700793D01*
X226910000Y-90740000D01*
X226910000Y-91540000D01*
X226908074Y-91579207D01*
X226902314Y-91618036D01*
X226892776Y-91656114D01*
X226879552Y-91693073D01*
X226862769Y-91728559D01*
X226842588Y-91762228D01*
X226819204Y-91793757D01*
X226792843Y-91822843D01*
X226763757Y-91849204D01*
X226732228Y-91872588D01*
X226698559Y-91892769D01*
X226663073Y-91909552D01*
X226626114Y-91922776D01*
X226588036Y-91932314D01*
X226549207Y-91938074D01*
X226510000Y-91940000D01*
X225710000Y-91940000D01*
X225670793Y-91938074D01*
X225631964Y-91932314D01*
X225593886Y-91922776D01*
X225556927Y-91909552D01*
X225521441Y-91892769D01*
X225487772Y-91872588D01*
X225456243Y-91849204D01*
X225427157Y-91822843D01*
X225400796Y-91793757D01*
X225377412Y-91762228D01*
X225357231Y-91728559D01*
X225340448Y-91693073D01*
X225327224Y-91656114D01*
X225317686Y-91618036D01*
X225311926Y-91579207D01*
X225310000Y-91540000D01*
X225310000Y-90740000D01*
X225311926Y-90700793D01*
X225317686Y-90661964D01*
X225327224Y-90623886D01*
X225340448Y-90586927D01*
X225357231Y-90551441D01*
X225377412Y-90517772D01*
X225400796Y-90486243D01*
X225427157Y-90457157D01*
X225456243Y-90430796D01*
X225487772Y-90407412D01*
X225521441Y-90387231D01*
X225556927Y-90370448D01*
X225593886Y-90357224D01*
X225631964Y-90347686D01*
X225670793Y-90341926D01*
X225710000Y-90340000D01*
X226510000Y-90340000D01*
X226549207Y-90341926D01*
G37*
G04 #@! TD.AperFunction*
D14*
X221030000Y-100030000D03*
X231190000Y-100030000D03*
D15*
X219540000Y-38920000D02*
X219540000Y-38920000D01*
X221822936Y-37806538D02*
X221822936Y-37806538D01*
X220653462Y-41202937D02*
X220653462Y-41202937D01*
X222936399Y-40089474D02*
X222936399Y-40089474D01*
X221766925Y-43485874D02*
X221766925Y-43485874D01*
X224049862Y-42372411D02*
X224049862Y-42372411D01*
X222880388Y-45768811D02*
X222880388Y-45768811D01*
X225163325Y-44655348D02*
X225163325Y-44655348D01*
X223993850Y-48051748D02*
X223993850Y-48051748D01*
X226276787Y-46938285D02*
X226276787Y-46938285D01*
X225107313Y-50334685D02*
X225107313Y-50334685D01*
G04 #@! TA.AperFunction,ComponentPad*
D13*
G36*
X227781609Y-48084632D02*
G01*
X228526840Y-49612581D01*
X226998891Y-50357812D01*
X226253660Y-48829863D01*
X227781609Y-48084632D01*
G37*
G04 #@! TD.AperFunction*
D10*
X245570000Y-43840000D03*
X245570000Y-46380000D03*
D11*
X245570000Y-48920000D03*
X162560000Y-68950000D03*
D10*
X160020000Y-68950000D03*
X162560000Y-66410000D03*
X160020000Y-66410000D03*
X162560000Y-63870000D03*
X160020000Y-63870000D03*
X162560000Y-61330000D03*
X160020000Y-61330000D03*
X162560000Y-58790000D03*
X160020000Y-58790000D03*
X162560000Y-56250000D03*
X160020000Y-56250000D03*
X211310000Y-85000000D03*
X208770000Y-85000000D03*
D11*
X206230000Y-85000000D03*
D10*
X193740000Y-84940000D03*
X191200000Y-84940000D03*
D11*
X188660000Y-84940000D03*
D10*
X228810000Y-84950000D03*
X226270000Y-84950000D03*
D11*
X223730000Y-84950000D03*
D10*
X245270000Y-85030000D03*
X242730000Y-85030000D03*
D11*
X240190000Y-85030000D03*
D10*
X241070000Y-43810000D03*
X241070000Y-46350000D03*
D11*
X241070000Y-48890000D03*
D10*
X165390000Y-39940000D03*
X162850000Y-39940000D03*
D11*
X160310000Y-39940000D03*
D10*
X188490000Y-45060000D03*
D11*
X188490000Y-42520000D03*
D10*
X184790000Y-47050000D03*
D11*
X184790000Y-44510000D03*
D10*
X176380000Y-51980000D03*
D11*
X176380000Y-49440000D03*
D10*
X181060000Y-47030000D03*
D11*
X181060000Y-44490000D03*
D10*
X161890000Y-32240000D03*
D11*
X164430000Y-32240000D03*
D10*
X161910000Y-28560000D03*
D11*
X164450000Y-28560000D03*
D10*
X161880000Y-36030000D03*
D11*
X164420000Y-36030000D03*
D10*
X249570000Y-55090000D03*
X249570000Y-57630000D03*
D11*
X249570000Y-60170000D03*
D10*
X249760000Y-43850000D03*
X249760000Y-46390000D03*
D11*
X249760000Y-48930000D03*
D12*
X206150000Y-91150000D03*
X208690000Y-93690000D03*
X211230000Y-91150000D03*
G04 #@! TA.AperFunction,ComponentPad*
D13*
G36*
X209129207Y-90351926D02*
G01*
X209168036Y-90357686D01*
X209206114Y-90367224D01*
X209243073Y-90380448D01*
X209278559Y-90397231D01*
X209312228Y-90417412D01*
X209343757Y-90440796D01*
X209372843Y-90467157D01*
X209399204Y-90496243D01*
X209422588Y-90527772D01*
X209442769Y-90561441D01*
X209459552Y-90596927D01*
X209472776Y-90633886D01*
X209482314Y-90671964D01*
X209488074Y-90710793D01*
X209490000Y-90750000D01*
X209490000Y-91550000D01*
X209488074Y-91589207D01*
X209482314Y-91628036D01*
X209472776Y-91666114D01*
X209459552Y-91703073D01*
X209442769Y-91738559D01*
X209422588Y-91772228D01*
X209399204Y-91803757D01*
X209372843Y-91832843D01*
X209343757Y-91859204D01*
X209312228Y-91882588D01*
X209278559Y-91902769D01*
X209243073Y-91919552D01*
X209206114Y-91932776D01*
X209168036Y-91942314D01*
X209129207Y-91948074D01*
X209090000Y-91950000D01*
X208290000Y-91950000D01*
X208250793Y-91948074D01*
X208211964Y-91942314D01*
X208173886Y-91932776D01*
X208136927Y-91919552D01*
X208101441Y-91902769D01*
X208067772Y-91882588D01*
X208036243Y-91859204D01*
X208007157Y-91832843D01*
X207980796Y-91803757D01*
X207957412Y-91772228D01*
X207937231Y-91738559D01*
X207920448Y-91703073D01*
X207907224Y-91666114D01*
X207897686Y-91628036D01*
X207891926Y-91589207D01*
X207890000Y-91550000D01*
X207890000Y-90750000D01*
X207891926Y-90710793D01*
X207897686Y-90671964D01*
X207907224Y-90633886D01*
X207920448Y-90596927D01*
X207937231Y-90561441D01*
X207957412Y-90527772D01*
X207980796Y-90496243D01*
X208007157Y-90467157D01*
X208036243Y-90440796D01*
X208067772Y-90417412D01*
X208101441Y-90397231D01*
X208136927Y-90380448D01*
X208173886Y-90367224D01*
X208211964Y-90357686D01*
X208250793Y-90351926D01*
X208290000Y-90350000D01*
X209090000Y-90350000D01*
X209129207Y-90351926D01*
G37*
G04 #@! TD.AperFunction*
D14*
X203610000Y-100040000D03*
X213770000Y-100040000D03*
D12*
X188510000Y-91280000D03*
X191050000Y-93820000D03*
X193590000Y-91280000D03*
G04 #@! TA.AperFunction,ComponentPad*
D13*
G36*
X191489207Y-90481926D02*
G01*
X191528036Y-90487686D01*
X191566114Y-90497224D01*
X191603073Y-90510448D01*
X191638559Y-90527231D01*
X191672228Y-90547412D01*
X191703757Y-90570796D01*
X191732843Y-90597157D01*
X191759204Y-90626243D01*
X191782588Y-90657772D01*
X191802769Y-90691441D01*
X191819552Y-90726927D01*
X191832776Y-90763886D01*
X191842314Y-90801964D01*
X191848074Y-90840793D01*
X191850000Y-90880000D01*
X191850000Y-91680000D01*
X191848074Y-91719207D01*
X191842314Y-91758036D01*
X191832776Y-91796114D01*
X191819552Y-91833073D01*
X191802769Y-91868559D01*
X191782588Y-91902228D01*
X191759204Y-91933757D01*
X191732843Y-91962843D01*
X191703757Y-91989204D01*
X191672228Y-92012588D01*
X191638559Y-92032769D01*
X191603073Y-92049552D01*
X191566114Y-92062776D01*
X191528036Y-92072314D01*
X191489207Y-92078074D01*
X191450000Y-92080000D01*
X190650000Y-92080000D01*
X190610793Y-92078074D01*
X190571964Y-92072314D01*
X190533886Y-92062776D01*
X190496927Y-92049552D01*
X190461441Y-92032769D01*
X190427772Y-92012588D01*
X190396243Y-91989204D01*
X190367157Y-91962843D01*
X190340796Y-91933757D01*
X190317412Y-91902228D01*
X190297231Y-91868559D01*
X190280448Y-91833073D01*
X190267224Y-91796114D01*
X190257686Y-91758036D01*
X190251926Y-91719207D01*
X190250000Y-91680000D01*
X190250000Y-90880000D01*
X190251926Y-90840793D01*
X190257686Y-90801964D01*
X190267224Y-90763886D01*
X190280448Y-90726927D01*
X190297231Y-90691441D01*
X190317412Y-90657772D01*
X190340796Y-90626243D01*
X190367157Y-90597157D01*
X190396243Y-90570796D01*
X190427772Y-90547412D01*
X190461441Y-90527231D01*
X190496927Y-90510448D01*
X190533886Y-90497224D01*
X190571964Y-90487686D01*
X190610793Y-90481926D01*
X190650000Y-90480000D01*
X191450000Y-90480000D01*
X191489207Y-90481926D01*
G37*
G04 #@! TD.AperFunction*
D14*
X185970000Y-100170000D03*
X196130000Y-100170000D03*
D10*
X173810000Y-21100000D03*
X173810000Y-23640000D03*
X171270000Y-21100000D03*
X171270000Y-23640000D03*
X168730000Y-21100000D03*
X168730000Y-23640000D03*
X166190000Y-21100000D03*
X166190000Y-23640000D03*
X163650000Y-21100000D03*
X163650000Y-23640000D03*
X161110000Y-21100000D03*
D11*
X161110000Y-23640000D03*
D10*
X226530000Y-21090000D03*
X226530000Y-23630000D03*
X223990000Y-21090000D03*
X223990000Y-23630000D03*
X221450000Y-21090000D03*
X221450000Y-23630000D03*
X218910000Y-21090000D03*
X218910000Y-23630000D03*
X216370000Y-21090000D03*
X216370000Y-23630000D03*
X213830000Y-21090000D03*
D11*
X213830000Y-23630000D03*
D10*
X252890000Y-21080000D03*
X252890000Y-23620000D03*
X250350000Y-21080000D03*
X250350000Y-23620000D03*
X247810000Y-21080000D03*
X247810000Y-23620000D03*
X245270000Y-21080000D03*
X245270000Y-23620000D03*
X242730000Y-21080000D03*
X242730000Y-23620000D03*
X240190000Y-21080000D03*
D11*
X240190000Y-23620000D03*
D16*
X174230000Y-110570000D03*
X162830000Y-110570000D03*
G04 #@! TA.AperFunction,ComponentPad*
D13*
G36*
X250524505Y-78261204D02*
G01*
X250548773Y-78264804D01*
X250572572Y-78270765D01*
X250595671Y-78279030D01*
X250617850Y-78289520D01*
X250638893Y-78302132D01*
X250658599Y-78316747D01*
X250676777Y-78333223D01*
X250693253Y-78351401D01*
X250707868Y-78371107D01*
X250720480Y-78392150D01*
X250730970Y-78414329D01*
X250739235Y-78437428D01*
X250745196Y-78461227D01*
X250748796Y-78485495D01*
X250750000Y-78509999D01*
X250750000Y-79750001D01*
X250748796Y-79774505D01*
X250745196Y-79798773D01*
X250739235Y-79822572D01*
X250730970Y-79845671D01*
X250720480Y-79867850D01*
X250707868Y-79888893D01*
X250693253Y-79908599D01*
X250676777Y-79926777D01*
X250658599Y-79943253D01*
X250638893Y-79957868D01*
X250617850Y-79970480D01*
X250595671Y-79980970D01*
X250572572Y-79989235D01*
X250548773Y-79995196D01*
X250524505Y-79998796D01*
X250500001Y-80000000D01*
X248799999Y-80000000D01*
X248775495Y-79998796D01*
X248751227Y-79995196D01*
X248727428Y-79989235D01*
X248704329Y-79980970D01*
X248682150Y-79970480D01*
X248661107Y-79957868D01*
X248641401Y-79943253D01*
X248623223Y-79926777D01*
X248606747Y-79908599D01*
X248592132Y-79888893D01*
X248579520Y-79867850D01*
X248569030Y-79845671D01*
X248560765Y-79822572D01*
X248554804Y-79798773D01*
X248551204Y-79774505D01*
X248550000Y-79750001D01*
X248550000Y-78509999D01*
X248551204Y-78485495D01*
X248554804Y-78461227D01*
X248560765Y-78437428D01*
X248569030Y-78414329D01*
X248579520Y-78392150D01*
X248592132Y-78371107D01*
X248606747Y-78351401D01*
X248623223Y-78333223D01*
X248641401Y-78316747D01*
X248661107Y-78302132D01*
X248682150Y-78289520D01*
X248704329Y-78279030D01*
X248727428Y-78270765D01*
X248751227Y-78264804D01*
X248775495Y-78261204D01*
X248799999Y-78260000D01*
X250500001Y-78260000D01*
X250524505Y-78261204D01*
G37*
G04 #@! TD.AperFunction*
D17*
X249650000Y-76590000D03*
X249650000Y-70190000D03*
G04 #@! TA.AperFunction,ComponentPad*
D13*
G36*
X250524505Y-71861204D02*
G01*
X250548773Y-71864804D01*
X250572572Y-71870765D01*
X250595671Y-71879030D01*
X250617850Y-71889520D01*
X250638893Y-71902132D01*
X250658599Y-71916747D01*
X250676777Y-71933223D01*
X250693253Y-71951401D01*
X250707868Y-71971107D01*
X250720480Y-71992150D01*
X250730970Y-72014329D01*
X250739235Y-72037428D01*
X250745196Y-72061227D01*
X250748796Y-72085495D01*
X250750000Y-72109999D01*
X250750000Y-73350001D01*
X250748796Y-73374505D01*
X250745196Y-73398773D01*
X250739235Y-73422572D01*
X250730970Y-73445671D01*
X250720480Y-73467850D01*
X250707868Y-73488893D01*
X250693253Y-73508599D01*
X250676777Y-73526777D01*
X250658599Y-73543253D01*
X250638893Y-73557868D01*
X250617850Y-73570480D01*
X250595671Y-73580970D01*
X250572572Y-73589235D01*
X250548773Y-73595196D01*
X250524505Y-73598796D01*
X250500001Y-73600000D01*
X248799999Y-73600000D01*
X248775495Y-73598796D01*
X248751227Y-73595196D01*
X248727428Y-73589235D01*
X248704329Y-73580970D01*
X248682150Y-73570480D01*
X248661107Y-73557868D01*
X248641401Y-73543253D01*
X248623223Y-73526777D01*
X248606747Y-73508599D01*
X248592132Y-73488893D01*
X248579520Y-73467850D01*
X248569030Y-73445671D01*
X248560765Y-73422572D01*
X248554804Y-73398773D01*
X248551204Y-73374505D01*
X248550000Y-73350001D01*
X248550000Y-72109999D01*
X248551204Y-72085495D01*
X248554804Y-72061227D01*
X248560765Y-72037428D01*
X248569030Y-72014329D01*
X248579520Y-71992150D01*
X248592132Y-71971107D01*
X248606747Y-71951401D01*
X248623223Y-71933223D01*
X248641401Y-71916747D01*
X248661107Y-71902132D01*
X248682150Y-71889520D01*
X248704329Y-71879030D01*
X248727428Y-71870765D01*
X248751227Y-71864804D01*
X248775495Y-71861204D01*
X248799999Y-71860000D01*
X250500001Y-71860000D01*
X250524505Y-71861204D01*
G37*
G04 #@! TD.AperFunction*
D18*
X197270000Y-76860000D03*
X237980000Y-81610000D03*
X241090000Y-82420000D03*
X242410000Y-82550000D03*
X164340000Y-54550000D03*
X161360000Y-54910000D03*
X194923092Y-79433092D03*
X220760000Y-82620000D03*
X160560000Y-60130000D03*
X166420000Y-58430000D03*
X160580000Y-62580000D03*
X166200000Y-62230000D03*
X193740000Y-83290000D03*
X188650000Y-82410000D03*
X182300000Y-77890000D03*
X199070000Y-77860000D03*
X207400000Y-81920000D03*
X209133600Y-81950000D03*
X165730000Y-67090000D03*
X166570000Y-73250000D03*
X165040000Y-66780000D03*
X166490000Y-76850000D03*
X211036446Y-67086446D03*
X212920000Y-68970000D03*
X202440000Y-65350000D03*
X202350000Y-74590000D03*
X201623092Y-72733092D03*
X202440000Y-66920000D03*
X201260000Y-66510000D03*
X168670000Y-101700000D03*
X173050000Y-84530000D03*
X189600000Y-60800000D03*
X191580000Y-60805000D03*
X183330000Y-66595000D03*
X179960000Y-61375000D03*
X190910000Y-55495000D03*
X194500000Y-56020000D03*
X179080000Y-56450000D03*
X172880000Y-85880000D03*
X180839540Y-41021279D03*
X176052291Y-44055010D03*
X174260000Y-43990000D03*
X173120000Y-44790000D03*
X187900000Y-38740000D03*
X182699998Y-34390000D03*
X169880000Y-27820000D03*
X171830000Y-27810000D03*
X168500000Y-26410000D03*
X185020000Y-34390000D03*
X186970000Y-35650000D03*
X180660000Y-53875000D03*
X173824936Y-44554106D03*
X168190000Y-38690000D03*
X171250000Y-39820000D03*
X172100000Y-39690000D03*
X172800000Y-38650000D03*
X168742696Y-35772696D03*
X171820000Y-38150000D03*
X169730000Y-38324999D03*
X165600000Y-47080000D03*
X164850000Y-48670000D03*
X168160000Y-46530000D03*
X168040000Y-42630000D03*
X174420000Y-41520000D03*
X171080000Y-47500000D03*
X173410000Y-48340000D03*
X172200000Y-47880000D03*
X169110000Y-46700000D03*
X170505000Y-42750000D03*
X205950000Y-52640000D03*
X209750000Y-66630000D03*
X205427501Y-70000000D03*
X203990000Y-67660000D03*
X207664990Y-66470000D03*
X224730000Y-64050000D03*
X204460000Y-53610000D03*
X205860000Y-52030000D03*
X203460000Y-66830000D03*
X205110000Y-70770000D03*
X207490000Y-72730000D03*
X210560000Y-72230000D03*
X211820000Y-69470000D03*
X201284065Y-65850569D03*
X204760000Y-52630000D03*
X212650910Y-63390910D03*
X209199090Y-70889090D03*
X200660000Y-60180000D03*
X196630000Y-66480000D03*
X213290910Y-62750910D03*
X218440000Y-61070000D03*
X195020000Y-60270000D03*
X198990000Y-59339251D03*
X199710000Y-55920000D03*
X195420000Y-57100000D03*
X196800000Y-58655000D03*
X215660000Y-63530000D03*
X217740000Y-62970000D03*
X200150000Y-58680000D03*
X197480000Y-63340000D03*
X214390000Y-53940000D03*
X216622500Y-54970000D03*
X171080000Y-57450000D03*
X244419999Y-65570001D03*
X245520000Y-41830000D03*
X243530000Y-44270000D03*
X196905153Y-77360000D03*
X232330000Y-77370000D03*
X236190000Y-73480000D03*
X237570000Y-72110000D03*
X246160000Y-41670000D03*
X247230000Y-44910000D03*
X183810000Y-75820000D03*
X247269999Y-64400001D03*
X247800000Y-64900000D03*
X180350000Y-75120000D03*
X240070000Y-36940000D03*
X225260000Y-37200000D03*
X249500000Y-41350000D03*
X241920000Y-45330000D03*
X246350000Y-45190000D03*
X250100000Y-41350000D03*
X250710000Y-39240000D03*
X249470000Y-33650000D03*
X249960000Y-31910000D03*
X248850000Y-33650000D03*
X248890000Y-30420000D03*
X249070000Y-24020000D03*
X248890000Y-26680000D03*
X246339999Y-31783151D03*
X252080000Y-27090000D03*
X249530000Y-27790000D03*
X253442001Y-19929999D03*
X247494870Y-33645130D03*
X246600000Y-25430000D03*
X246910000Y-26970000D03*
X251420000Y-24150000D03*
X250640000Y-36060000D03*
X252850000Y-35330000D03*
X253510000Y-30550000D03*
X243900000Y-31870000D03*
X247120000Y-24700000D03*
X244990000Y-35950000D03*
X240140000Y-30980000D03*
X237150000Y-27720000D03*
X237299989Y-29849989D03*
X243050000Y-36120000D03*
X243010000Y-37420000D03*
X248030000Y-39430000D03*
X252080000Y-41480000D03*
X252050010Y-56640000D03*
X250990000Y-56860000D03*
X177990000Y-31470000D03*
X214478555Y-44141445D03*
X200980000Y-44910000D03*
X196780000Y-42910000D03*
X198740000Y-45040000D03*
X165560000Y-52910000D03*
X165310000Y-56620000D03*
X166090000Y-60200000D03*
X166310000Y-63950000D03*
X167270000Y-66770000D03*
X166480000Y-71010000D03*
X166180000Y-74890000D03*
X165640000Y-77890000D03*
X242360000Y-38379999D03*
X242950000Y-38379999D03*
X251610000Y-33090000D03*
X179680000Y-34980000D03*
X193450000Y-21979999D03*
X198510000Y-29580000D03*
X199440000Y-25380000D03*
X196120000Y-22160000D03*
X212576446Y-47576446D03*
X213140000Y-44360000D03*
X213150000Y-42370000D03*
X213150000Y-36800000D03*
X214870000Y-45980000D03*
X207440000Y-53420000D03*
X210490000Y-49350000D03*
X207490000Y-52610000D03*
X209910000Y-42080000D03*
X209880000Y-47360000D03*
X206666446Y-52626446D03*
X209910000Y-37290000D03*
X215190000Y-36700000D03*
X215600000Y-30490000D03*
X175670000Y-33530000D03*
X176610000Y-22220000D03*
X175580000Y-21080000D03*
X176610000Y-30780000D03*
X175130000Y-33070000D03*
X175130000Y-28300000D03*
X173728554Y-33911446D03*
X172390000Y-35490000D03*
X170730000Y-35470000D03*
X169440000Y-34690000D03*
X180230000Y-38150000D03*
X173840000Y-34800000D03*
X172890000Y-33780000D03*
X184720000Y-57060000D03*
X218210000Y-43410000D03*
X211400000Y-43910000D03*
X212570000Y-42910000D03*
X218629999Y-42909999D03*
X184660000Y-56300000D03*
X185160000Y-55810000D03*
X204470000Y-44410000D03*
X208870000Y-42730000D03*
X212300000Y-41710000D03*
X214660000Y-41650000D03*
X218290000Y-41570000D03*
X202820000Y-40470000D03*
X208530000Y-39030000D03*
X211060000Y-39070000D03*
X212460000Y-39700000D03*
X214450000Y-39730000D03*
X217370000Y-39710000D03*
X182630000Y-48080000D03*
X182610000Y-45450000D03*
X184420000Y-48740000D03*
X180590000Y-48780000D03*
X178721861Y-50158139D03*
X183320000Y-47870000D03*
X183490000Y-45730000D03*
X186330000Y-40340000D03*
X163740000Y-41200000D03*
X182200000Y-53020000D03*
X182210000Y-56910000D03*
X185870000Y-59580000D03*
X196100000Y-59580000D03*
X200200000Y-60660000D03*
X197971445Y-59920000D03*
X211159102Y-63327081D03*
X198660000Y-63155000D03*
X197780000Y-58655000D03*
X193740000Y-56520000D03*
X187750000Y-53960000D03*
X211350001Y-58658558D03*
X195850000Y-53230000D03*
X187920000Y-53260000D03*
X189050000Y-57060000D03*
X193360000Y-57090000D03*
X214479999Y-59616523D03*
X216525000Y-59280000D03*
X195770000Y-58760000D03*
X185780000Y-61490000D03*
X199937500Y-66070000D03*
X201130000Y-64250000D03*
X196600000Y-48440000D03*
X204015844Y-64941461D03*
X207410728Y-64829856D03*
X179750000Y-81860000D03*
X206850000Y-70200000D03*
X208714990Y-70040000D03*
X206450000Y-65100000D03*
X217500000Y-57540000D03*
X203911711Y-53853684D03*
X194350000Y-51840000D03*
X196630000Y-68055000D03*
X211340000Y-62105000D03*
X181210000Y-64747500D03*
X211340000Y-62755000D03*
X181230000Y-66220000D03*
X174380000Y-58917500D03*
X211042388Y-57520000D03*
X174350000Y-60452500D03*
X211350001Y-58035146D03*
X189010000Y-55080000D03*
X195928556Y-55821137D03*
X189000000Y-53547500D03*
X196400000Y-55450000D03*
X200180000Y-61680000D03*
X193550000Y-61705000D03*
X193550000Y-60317500D03*
X199821643Y-61160000D03*
X172880000Y-39650000D03*
X176030000Y-41590000D03*
X176860000Y-42820000D03*
X176720000Y-44290000D03*
X166070000Y-86980000D03*
X166900000Y-89000000D03*
X176390000Y-79590000D03*
X186560000Y-52575000D03*
X172440000Y-83420000D03*
X176630000Y-34030000D03*
X178540000Y-40370000D03*
X179020000Y-42230000D03*
X185340000Y-39150000D03*
X169850000Y-46160000D03*
X172060000Y-46150000D03*
X249750000Y-50680000D03*
X247520000Y-41690000D03*
X208010000Y-44810000D03*
X209150000Y-45790000D03*
X206960000Y-45790000D03*
X189140000Y-20070000D03*
X190690000Y-20040000D03*
X189140000Y-24610000D03*
X190750000Y-24610000D03*
X189970000Y-24610000D03*
X162020000Y-84610000D03*
X167400000Y-83450000D03*
X168060000Y-89300000D03*
X176170000Y-86090000D03*
X169990000Y-103270000D03*
X170440000Y-104110000D03*
X170340000Y-105200000D03*
X167510000Y-99240000D03*
X169570000Y-97180000D03*
X169410000Y-93940000D03*
X163800000Y-79980000D03*
X175140000Y-88300000D03*
X246020000Y-89910000D03*
X247130000Y-91100000D03*
X245900000Y-92560000D03*
X243520000Y-89850000D03*
X244140000Y-92340000D03*
X244510000Y-90090000D03*
X241420000Y-89950000D03*
X241460000Y-92380000D03*
X239300000Y-91180000D03*
D19*
X228670000Y-98790000D03*
X228680000Y-100810000D03*
X223810000Y-99940000D03*
X223720000Y-98860000D03*
X223730000Y-101100000D03*
X212890000Y-91090000D03*
X212490000Y-90100000D03*
X212470000Y-92270000D03*
X209190000Y-89490000D03*
X209870000Y-92480000D03*
X206520000Y-89550000D03*
X206540000Y-92730000D03*
X206560000Y-99260000D03*
X206380000Y-101080000D03*
X201000000Y-100030000D03*
X211350000Y-100000000D03*
X211370000Y-98590000D03*
X211370000Y-101320000D03*
X198730000Y-100140000D03*
X198700000Y-98950000D03*
X198710000Y-101490000D03*
X193490000Y-100150000D03*
X188590000Y-100180000D03*
X188570000Y-99010000D03*
X188570000Y-101290000D03*
X194820000Y-92360000D03*
X193780000Y-92900000D03*
X195240000Y-91090000D03*
X191310000Y-89620000D03*
X192280000Y-92580000D03*
X188920000Y-92900000D03*
X187630000Y-89910000D03*
D18*
X184110000Y-40040000D03*
X185050000Y-41560000D03*
X183150000Y-40510000D03*
X168075000Y-90505000D03*
X165540000Y-90480000D03*
X162120000Y-93200000D03*
X160990000Y-94100000D03*
X159050000Y-93140000D03*
X161180000Y-84200000D03*
X160930000Y-110400000D03*
X160930000Y-111280000D03*
X160920000Y-109650000D03*
X164360000Y-110570000D03*
X174250000Y-108170000D03*
X175180000Y-108520000D03*
X175780000Y-110380000D03*
X175730000Y-111790000D03*
X211050000Y-44880000D03*
X208310000Y-48980000D03*
X179210000Y-41550000D03*
X163360000Y-107340000D03*
X163540000Y-106490000D03*
X173960000Y-82460000D03*
X174660000Y-82720000D03*
X162120000Y-83410000D03*
X172040000Y-78860000D03*
X202650000Y-53750000D03*
X203050000Y-53240000D03*
X204020000Y-69250000D03*
X201250000Y-70600000D03*
X190430000Y-67630000D03*
X189610000Y-66560000D03*
X193460000Y-68250000D03*
X194610000Y-69490000D03*
X197140000Y-69660000D03*
X198330000Y-70840000D03*
X197900000Y-50630000D03*
X199680000Y-51800000D03*
X198720000Y-46340000D03*
X197850000Y-46600000D03*
X195620000Y-46220000D03*
X192200000Y-57070000D03*
X190970000Y-60080000D03*
X177200000Y-30060000D03*
X190630000Y-38710000D03*
X186280000Y-68200000D03*
X177900000Y-62850000D03*
X178800000Y-55380000D03*
X175080000Y-83940000D03*
X200020000Y-44910000D03*
X194650000Y-46110000D03*
X219630000Y-54990000D03*
X219700000Y-53420000D03*
X221910000Y-55580000D03*
X223160000Y-56710000D03*
X216810000Y-65070000D03*
X163300000Y-49570000D03*
X166960000Y-42280000D03*
X172860000Y-41800000D03*
X171066531Y-37392623D03*
X179480000Y-39830000D03*
X252760000Y-32130000D03*
X211370000Y-66086445D03*
X203440000Y-65340000D03*
X204440000Y-65530000D03*
X207108555Y-65888555D03*
X204710000Y-72970000D03*
X203455910Y-72455910D03*
X206820000Y-71910000D03*
X173380000Y-52280000D03*
X169210000Y-51290000D03*
X171120000Y-53700000D03*
X170480000Y-54030000D03*
X169290000Y-58720000D03*
X169290000Y-63990000D03*
X170330000Y-61250000D03*
X169410000Y-65840000D03*
X170700000Y-68950000D03*
X169290000Y-71450000D03*
X169350000Y-73360000D03*
X170740000Y-76330000D03*
X239640000Y-49260000D03*
X245570000Y-50490000D03*
X249450000Y-61560000D03*
X243970000Y-22220000D03*
X241610000Y-22190000D03*
X215520000Y-60820000D03*
D19*
X245670000Y-100080000D03*
X245820000Y-98920000D03*
X245830000Y-101250000D03*
X240960000Y-100030000D03*
X240940000Y-98740000D03*
X240870000Y-101300000D03*
D18*
X170380000Y-41250000D03*
X172200000Y-40480000D03*
X184150000Y-50810000D03*
X190260000Y-42450000D03*
X170360000Y-39519999D03*
X195050000Y-61700000D03*
X198470000Y-54900000D03*
X178600000Y-77260000D03*
X166670000Y-37440000D03*
X159880000Y-86460000D03*
X158920000Y-87150000D03*
X159280000Y-86660000D03*
X182050000Y-40120000D03*
X179990000Y-40280000D03*
X248090000Y-43610000D03*
X173020000Y-37620000D03*
X170660000Y-36710000D03*
X168890000Y-37200000D03*
X188190000Y-65070000D03*
X188250000Y-65780000D03*
X188264234Y-63665766D03*
X192977500Y-53593750D03*
X174270000Y-76050000D03*
X181560000Y-58810000D03*
X181520000Y-59650000D03*
X178077303Y-64212697D03*
X160880000Y-45550000D03*
X160680000Y-44440000D03*
X248090000Y-42710000D03*
X238710000Y-45350000D03*
X250040000Y-53420000D03*
X179680000Y-86150000D03*
X179660000Y-89750000D03*
X179660000Y-89750000D03*
X193000000Y-80370000D03*
X195810000Y-81960000D03*
X195770000Y-54000000D03*
X183590000Y-59750000D03*
X194490000Y-64210000D03*
X192270000Y-64630000D03*
X251860000Y-38680000D03*
X250140000Y-33490000D03*
D20*
X233230000Y-76860000D02*
X237980000Y-81610000D01*
X197270000Y-76860000D02*
X233230000Y-76860000D01*
X242280000Y-82420000D02*
X242410000Y-82550000D01*
X241090000Y-82420000D02*
X242280000Y-82420000D01*
X161720000Y-54550000D02*
X161360000Y-54910000D01*
X164340000Y-54550000D02*
X161720000Y-54550000D01*
X194923092Y-79433092D02*
X217603102Y-79433092D01*
X217603102Y-79433092D02*
X220760000Y-82620000D01*
X164720000Y-60130000D02*
X166420000Y-58430000D01*
X160560000Y-60130000D02*
X164720000Y-60130000D01*
X165850000Y-62580000D02*
X166200000Y-62230000D01*
X160580000Y-62580000D02*
X165850000Y-62580000D01*
X192860000Y-82410000D02*
X188650000Y-82410000D01*
X193740000Y-83290000D02*
X192860000Y-82410000D01*
X199040000Y-77890000D02*
X199070000Y-77860000D01*
X182300000Y-77890000D02*
X199040000Y-77890000D01*
X209103600Y-81920000D02*
X209133600Y-81950000D01*
X207400000Y-81920000D02*
X209103600Y-81920000D01*
X165730000Y-72410000D02*
X166570000Y-73250000D01*
X165730000Y-67090000D02*
X165730000Y-72410000D01*
X165040000Y-75400000D02*
X166490000Y-76850000D01*
X165040000Y-66780000D02*
X165040000Y-75400000D01*
X211036446Y-67086446D02*
X212920000Y-68970000D01*
X202350000Y-74590000D02*
X202350000Y-74580000D01*
D21*
X201623092Y-73863092D02*
X202350000Y-74590000D01*
X201623092Y-72733092D02*
X201623092Y-73863092D01*
X201670000Y-66920000D02*
X201260000Y-66510000D01*
X202440000Y-66920000D02*
X201670000Y-66920000D01*
X168670000Y-88910000D02*
X173050000Y-84530000D01*
X168670000Y-101700000D02*
X168670000Y-99080000D01*
X168670000Y-99080000D02*
X168670000Y-88910000D01*
D20*
X191575000Y-60800000D02*
X191580000Y-60805000D01*
X189600000Y-60800000D02*
X191575000Y-60800000D01*
X190910000Y-55845000D02*
X191184990Y-56119990D01*
X190910000Y-55495000D02*
X190910000Y-55845000D01*
X191184990Y-56119990D02*
X193430000Y-56119990D01*
X193529990Y-56020000D02*
X193430000Y-56119990D01*
X194500000Y-56020000D02*
X193529990Y-56020000D01*
X177388721Y-41021279D02*
X180839540Y-41021279D01*
X176269999Y-42140001D02*
X177388721Y-41021279D01*
X176269999Y-43837302D02*
X176269999Y-42140001D01*
X176052291Y-44055010D02*
X176269999Y-43837302D01*
X173120000Y-44519040D02*
X173120000Y-44790000D01*
X173649040Y-43990000D02*
X173120000Y-44519040D01*
X174260000Y-43990000D02*
X173649040Y-43990000D01*
X187900000Y-36580000D02*
X187900000Y-38740000D01*
X168500000Y-26440000D02*
X169880000Y-27820000D01*
X172510002Y-27129998D02*
X177320001Y-27129998D01*
X178360000Y-28169997D02*
X178360000Y-30050002D01*
X171830000Y-27810000D02*
X172510002Y-27129998D01*
X178360000Y-30050002D02*
X182699998Y-34390000D01*
X177320001Y-27129998D02*
X178360000Y-28169997D01*
X168500000Y-26410000D02*
X168500000Y-26440000D01*
X185020000Y-34390000D02*
X182699998Y-34390000D01*
X186970000Y-35650000D02*
X187900000Y-36580000D01*
X173824936Y-44554106D02*
X180660000Y-51389170D01*
X180660000Y-51389170D02*
X180660000Y-53875000D01*
X171250000Y-39359998D02*
X171250000Y-39820000D01*
X170910001Y-39019999D02*
X171250000Y-39359998D01*
X168519999Y-39019999D02*
X170910001Y-39019999D01*
X168190000Y-38690000D02*
X168519999Y-39019999D01*
X172530000Y-39260000D02*
X172100000Y-39690000D01*
X172530000Y-38920000D02*
X172800000Y-38650000D01*
X172530000Y-39260000D02*
X172530000Y-38920000D01*
X171820000Y-38150000D02*
X171120000Y-38150000D01*
X169730000Y-37010000D02*
X169850000Y-36890000D01*
X169730000Y-38324999D02*
X169730000Y-37010000D01*
X169850000Y-36890000D02*
X168742696Y-35772696D01*
X171120000Y-38150000D02*
X169850000Y-36890000D01*
X165600000Y-47080000D02*
X165250000Y-47430000D01*
X165250000Y-48270000D02*
X164850000Y-48670000D01*
X165250000Y-47430000D02*
X165250000Y-48270000D01*
X168160000Y-42750000D02*
X168040000Y-42630000D01*
X168160000Y-46530000D02*
X168160000Y-42750000D01*
X171559999Y-47020001D02*
X171080000Y-47500000D01*
X171559999Y-44380001D02*
X171559999Y-47020001D01*
X174420000Y-41520000D02*
X171559999Y-44380001D01*
X172660000Y-48340000D02*
X172200000Y-47880000D01*
X173410000Y-48340000D02*
X172660000Y-48340000D01*
X169110000Y-44145000D02*
X170505000Y-42750000D01*
X169110000Y-46700000D02*
X169110000Y-44145000D01*
X222933557Y-66586445D02*
X209793555Y-66586445D01*
X225230001Y-63809999D02*
X225230001Y-64290001D01*
X217309982Y-55889980D02*
X225230001Y-63809999D01*
X209793555Y-66586445D02*
X209750000Y-66630000D01*
X225230001Y-64290001D02*
X222933557Y-66586445D01*
X209199980Y-55889980D02*
X217309982Y-55889980D01*
X205950000Y-52640000D02*
X209199980Y-55889980D01*
X205427501Y-69097501D02*
X203990000Y-67660000D01*
X205427501Y-70000000D02*
X205427501Y-69097501D01*
X207947832Y-66470000D02*
X210387832Y-64030000D01*
X207664990Y-66470000D02*
X207947832Y-66470000D01*
X224710000Y-64030000D02*
X224730000Y-64050000D01*
X224030000Y-64030000D02*
X224710000Y-64030000D01*
X224030000Y-64030000D02*
X224140000Y-64030000D01*
X211850001Y-57364999D02*
X211175002Y-56690000D01*
X211850001Y-63376184D02*
X211850001Y-57364999D01*
X211196185Y-64030000D02*
X211850001Y-63376184D01*
X210610000Y-64030000D02*
X211196185Y-64030000D01*
X210387832Y-64030000D02*
X210610000Y-64030000D01*
X210610000Y-64030000D02*
X224030000Y-64030000D01*
X211175002Y-56690000D02*
X204670000Y-56690000D01*
X204670000Y-56690000D02*
X204460000Y-56480000D01*
X204460000Y-56480000D02*
X204460000Y-53610000D01*
X225630011Y-64455690D02*
X220615700Y-69470001D01*
X225630011Y-56000009D02*
X225630011Y-64455690D01*
X213490001Y-43859999D02*
X225630011Y-56000009D01*
X212899999Y-43859999D02*
X213490001Y-43859999D01*
X209899999Y-46859999D02*
X212899999Y-43859999D01*
X209639999Y-46859999D02*
X209899999Y-46859999D01*
X205860000Y-50639998D02*
X209639999Y-46859999D01*
X205860000Y-52030000D02*
X205860000Y-50639998D01*
X204927500Y-70587500D02*
X205110000Y-70770000D01*
X204927500Y-69337502D02*
X204927500Y-70587500D01*
X203460000Y-67870002D02*
X204927500Y-69337502D01*
X203460000Y-66830000D02*
X203460000Y-67870002D01*
X210060000Y-72730000D02*
X210560000Y-72230000D01*
X207490000Y-72730000D02*
X210060000Y-72730000D01*
X220615700Y-69470001D02*
X211820000Y-69470000D01*
X201484064Y-66050568D02*
X203430568Y-66050568D01*
X212650910Y-57600209D02*
X212650910Y-63390910D01*
X203430568Y-66050568D02*
X208269090Y-70889090D01*
X201284065Y-65850569D02*
X201484064Y-66050568D01*
X211340691Y-56289990D02*
X212650910Y-57600209D01*
X204760000Y-52630000D02*
X208419990Y-56289990D01*
X208419990Y-56289990D02*
X211340691Y-56289990D01*
X208269090Y-70889090D02*
X209199090Y-70889090D01*
X216759090Y-62750910D02*
X218440000Y-61070000D01*
X213290910Y-62750910D02*
X216759090Y-62750910D01*
X195492841Y-60080001D02*
X196340001Y-60080001D01*
X195302842Y-60270000D02*
X195492841Y-60080001D01*
X195020000Y-60270000D02*
X195302842Y-60270000D01*
X196340001Y-60080001D02*
X197000002Y-59420000D01*
X198909251Y-59420000D02*
X198990000Y-59339251D01*
X197000002Y-59420000D02*
X198909251Y-59420000D01*
X198530000Y-57100000D02*
X195420000Y-57100000D01*
X199710000Y-55920000D02*
X198530000Y-57100000D01*
X198707158Y-59339251D02*
X198990000Y-59339251D01*
X197724249Y-59339251D02*
X198707158Y-59339251D01*
X197039998Y-58655000D02*
X197724249Y-59339251D01*
X196800000Y-58655000D02*
X197039998Y-58655000D01*
X217180000Y-63530000D02*
X217740000Y-62970000D01*
X215660000Y-63530000D02*
X217180000Y-63530000D01*
X215592500Y-53940000D02*
X216622500Y-54970000D01*
X214390000Y-53940000D02*
X215592500Y-53940000D01*
X238600909Y-71389091D02*
X244419999Y-65570001D01*
X184546589Y-71389091D02*
X238600909Y-71389091D01*
X171080000Y-57922502D02*
X184546589Y-71389091D01*
X171080000Y-57450000D02*
X171080000Y-57922502D01*
X243530000Y-43820000D02*
X243530000Y-44270000D01*
X245520000Y-41830000D02*
X243530000Y-43820000D01*
X232320000Y-77360000D02*
X232330000Y-77370000D01*
X196905153Y-77360000D02*
X232320000Y-77360000D01*
X236200000Y-73480000D02*
X237570000Y-72110000D01*
X236190000Y-73480000D02*
X236200000Y-73480000D01*
X247230000Y-42740000D02*
X247230000Y-44910000D01*
X246160000Y-41670000D02*
X247230000Y-42740000D01*
X235850000Y-75820000D02*
X247269999Y-64400001D01*
X183810000Y-75820000D02*
X235850000Y-75820000D01*
X236379999Y-76320001D02*
X247800000Y-64900000D01*
X181832843Y-76320001D02*
X236379999Y-76320001D01*
X180632842Y-75120000D02*
X181832843Y-76320001D01*
X180350000Y-75120000D02*
X180632842Y-75120000D01*
X239810000Y-37200000D02*
X225260000Y-37200000D01*
X240070000Y-36940000D02*
X239810000Y-37200000D01*
X241920000Y-44689998D02*
X241920000Y-45330000D01*
X245459997Y-41150001D02*
X241920000Y-44689998D01*
X249300001Y-41150001D02*
X245459997Y-41150001D01*
X249500000Y-41350000D02*
X249300001Y-41150001D01*
X250910001Y-44402001D02*
X250910001Y-42160001D01*
X250312001Y-45000001D02*
X250910001Y-44402001D01*
X248797999Y-45410001D02*
X249207999Y-45000001D01*
X250910001Y-42160001D02*
X250100000Y-41350000D01*
X249207999Y-45000001D02*
X250312001Y-45000001D01*
X246570001Y-45410001D02*
X248797999Y-45410001D01*
X246350000Y-45190000D02*
X246570001Y-45410001D01*
D22*
X250374999Y-38904999D02*
X250710000Y-39240000D01*
X236833202Y-38904999D02*
X250374999Y-38904999D01*
D20*
X233365790Y-42372411D02*
X236833202Y-38904999D01*
X224049862Y-42372411D02*
X233365790Y-42372411D01*
X249470000Y-32400000D02*
X249960000Y-31910000D01*
X249470000Y-33650000D02*
X249470000Y-32400000D01*
X248850000Y-30460000D02*
X248890000Y-30420000D01*
X248850000Y-33650000D02*
X248850000Y-30460000D01*
X249070000Y-26500000D02*
X248890000Y-26680000D01*
X249070000Y-24020000D02*
X249070000Y-26500000D01*
X246339999Y-31783151D02*
X246339999Y-28310001D01*
X246860000Y-27790000D02*
X246339999Y-28310001D01*
X249530000Y-27790000D02*
X246860000Y-27790000D01*
X254040001Y-25129999D02*
X254040001Y-20527999D01*
X254040001Y-20527999D02*
X253442001Y-19929999D01*
X252080000Y-27090000D02*
X254040001Y-25129999D01*
X246910000Y-25740000D02*
X246600000Y-25430000D01*
X246910000Y-26970000D02*
X246910000Y-25740000D01*
X252120000Y-36060000D02*
X252850000Y-35330000D01*
X250640000Y-36060000D02*
X252120000Y-36060000D01*
X251420000Y-28460000D02*
X251420000Y-24150000D01*
X253510000Y-30550000D02*
X251420000Y-28460000D01*
X246589998Y-24700000D02*
X247120000Y-24700000D01*
X243700001Y-27589997D02*
X246589998Y-24700000D01*
X243700001Y-31670001D02*
X243700001Y-27589997D01*
X243900000Y-31870000D02*
X243700001Y-31670001D01*
X244990000Y-35760000D02*
X244990000Y-35950000D01*
X240140000Y-30980000D02*
X244990000Y-35760000D01*
X237150000Y-29700000D02*
X237299989Y-29849989D01*
X237150000Y-27720000D02*
X237150000Y-29700000D01*
X243050000Y-37380000D02*
X243010000Y-37420000D01*
X243050000Y-36120000D02*
X243050000Y-37380000D01*
X248030000Y-39430000D02*
X248700000Y-40100000D01*
X248700000Y-40100000D02*
X251380000Y-40100000D01*
X252080000Y-40800000D02*
X252080000Y-41480000D01*
X251380000Y-40100000D02*
X252080000Y-40800000D01*
X251210000Y-56640000D02*
X250990000Y-56860000D01*
X252050010Y-56640000D02*
X251210000Y-56640000D01*
X197620000Y-24832081D02*
X197620000Y-23630000D01*
X199170000Y-26382081D02*
X197620000Y-24832081D01*
X199170000Y-30742002D02*
X199170000Y-26382081D01*
X194932002Y-34980000D02*
X199170000Y-30742002D01*
X179680000Y-34980000D02*
X194932002Y-34980000D01*
X193690001Y-22220000D02*
X193450000Y-21979999D01*
X193690001Y-24760001D02*
X193690001Y-22220000D01*
X194750000Y-25820000D02*
X193690001Y-24760001D01*
X194750000Y-25820000D02*
X198510000Y-29580000D01*
X196439999Y-22479999D02*
X196120000Y-22160000D01*
X198172001Y-22479999D02*
X196439999Y-22479999D01*
X198770001Y-23077999D02*
X198172001Y-22479999D01*
X198770001Y-24710001D02*
X198770001Y-23077999D01*
X199440000Y-25380000D02*
X198770001Y-24710001D01*
X213140000Y-44360000D02*
X212576446Y-44923554D01*
X212576446Y-44923554D02*
X212576446Y-47576446D01*
X213150000Y-36800000D02*
X213150000Y-42370000D01*
X207440000Y-53420000D02*
X214870000Y-45990000D01*
X214870000Y-45990000D02*
X214870000Y-45980000D01*
X207490000Y-52610000D02*
X210490000Y-49610000D01*
X210490000Y-49610000D02*
X210490000Y-49350000D01*
X209910000Y-37290000D02*
X209910000Y-42080000D01*
X209872892Y-49420000D02*
X209872892Y-47367108D01*
X209872892Y-47367108D02*
X209880000Y-47360000D01*
X206666446Y-52626446D02*
X209872892Y-49420000D01*
X215600000Y-30490000D02*
X215190000Y-30900000D01*
X215190000Y-30900000D02*
X215190000Y-36700000D01*
X175670000Y-33530000D02*
X176580000Y-32620000D01*
X176610000Y-22110000D02*
X175580000Y-21080000D01*
X176610000Y-22220000D02*
X176610000Y-22110000D01*
X176610000Y-32590000D02*
X176580000Y-32620000D01*
X176610000Y-30780000D02*
X176610000Y-32590000D01*
X175130000Y-28300000D02*
X175130000Y-33070000D01*
X172390000Y-35250000D02*
X172390000Y-35490000D01*
X173728554Y-33911446D02*
X172390000Y-35250000D01*
X170220000Y-35470000D02*
X169440000Y-34690000D01*
X170730000Y-35470000D02*
X170220000Y-35470000D01*
X171210000Y-23700000D02*
X171270000Y-23640000D01*
X177250000Y-38150000D02*
X180230000Y-38150000D01*
X171650000Y-32079998D02*
X171650000Y-32550000D01*
X171650000Y-29630001D02*
X171360000Y-29340001D01*
X171650000Y-32079998D02*
X171650000Y-29630001D01*
X171360000Y-29340000D02*
X170680000Y-28660000D01*
X171360000Y-29340001D02*
X171360000Y-29340000D01*
X170680000Y-25590000D02*
X168730000Y-23640000D01*
X170680000Y-28660000D02*
X170680000Y-25590000D01*
X177190000Y-38150000D02*
X173840000Y-34800000D01*
X177250000Y-38150000D02*
X177190000Y-38150000D01*
X172890000Y-33780000D02*
X172880000Y-33780000D01*
X172880000Y-33780000D02*
X171650000Y-32550000D01*
X184110000Y-57060000D02*
X184720000Y-57060000D01*
X183540000Y-52280000D02*
X183540000Y-56490000D01*
X184480000Y-51340000D02*
X183540000Y-52280000D01*
X183540000Y-56490000D02*
X184110000Y-57060000D01*
X184480000Y-51322002D02*
X184480000Y-51340000D01*
X192392002Y-43410000D02*
X184480000Y-51322002D01*
X216180000Y-43410000D02*
X192392002Y-43410000D01*
X216180000Y-43410000D02*
X218210000Y-43410000D01*
X212570000Y-42910000D02*
X218629999Y-42909999D01*
X192679990Y-43910000D02*
X211400000Y-43910000D01*
X184660000Y-51929990D02*
X192679990Y-43910000D01*
X184660000Y-56300000D02*
X184660000Y-51929990D01*
X185160000Y-55810000D02*
X185160000Y-51995688D01*
X192745688Y-44410000D02*
X204470000Y-44410000D01*
X185160000Y-51995688D02*
X192745688Y-44410000D01*
X209019999Y-42580001D02*
X210679999Y-42580001D01*
X208870000Y-42730000D02*
X209019999Y-42580001D01*
X211550000Y-41710000D02*
X212300000Y-41710000D01*
X210679999Y-42580001D02*
X211550000Y-41710000D01*
X218210000Y-41650000D02*
X218290000Y-41570000D01*
X214660000Y-41650000D02*
X218210000Y-41650000D01*
X204260000Y-39030000D02*
X208530000Y-39030000D01*
X202820000Y-40470000D02*
X204260000Y-39030000D01*
X211830000Y-39070000D02*
X212460000Y-39700000D01*
X211060000Y-39070000D02*
X211830000Y-39070000D01*
X217350000Y-39730000D02*
X217370000Y-39710000D01*
X214450000Y-39730000D02*
X217350000Y-39730000D01*
X182630000Y-45470000D02*
X182610000Y-45450000D01*
X182630000Y-48080000D02*
X182630000Y-45470000D01*
X180630000Y-48740000D02*
X180590000Y-48780000D01*
X184420000Y-48740000D02*
X180630000Y-48740000D01*
X178721861Y-50158139D02*
X177498139Y-50158139D01*
X177498139Y-50158139D02*
X177340000Y-50000000D01*
X176940000Y-50000000D02*
X176380000Y-49440000D01*
X177340000Y-50000000D02*
X176940000Y-50000000D01*
X183320000Y-45900000D02*
X183490000Y-45730000D01*
X183320000Y-47870000D02*
X183320000Y-45900000D01*
X185610001Y-41059999D02*
X186330000Y-40340000D01*
X163740000Y-41200000D02*
X169689998Y-41200000D01*
X169689998Y-41200000D02*
X170139999Y-40749999D01*
X170139999Y-40749999D02*
X170620001Y-40749999D01*
X170620001Y-40749999D02*
X170880001Y-41009999D01*
X170880001Y-41009999D02*
X174650001Y-41009999D01*
X174650001Y-41009999D02*
X175552290Y-41912288D01*
X181540822Y-41059999D02*
X185610001Y-41059999D01*
X175552290Y-41912288D02*
X175552290Y-45072290D01*
X175552290Y-45072290D02*
X175910000Y-45430000D01*
X175910000Y-45430000D02*
X176490837Y-45430000D01*
X180399557Y-41521280D02*
X181079541Y-41521280D01*
X176490837Y-45430000D02*
X180399557Y-41521280D01*
X181079541Y-41521280D02*
X181540822Y-41059999D01*
X182200000Y-56900000D02*
X182210000Y-56910000D01*
X182200000Y-53020000D02*
X182200000Y-56900000D01*
X185870000Y-59580000D02*
X195700000Y-59580000D01*
X195700000Y-59580000D02*
X196100000Y-59580000D01*
X198711445Y-60660000D02*
X200200000Y-60660000D01*
X197971445Y-59920000D02*
X198711445Y-60660000D01*
X198832081Y-63327081D02*
X198660000Y-63155000D01*
X211159102Y-63327081D02*
X198832081Y-63327081D01*
X187960000Y-54170000D02*
X187750000Y-53960000D01*
X187960000Y-55640000D02*
X187960000Y-54170000D01*
X188840000Y-56520000D02*
X187960000Y-55640000D01*
X193740000Y-56520000D02*
X188840000Y-56520000D01*
X199045751Y-58655000D02*
X198062842Y-58655000D01*
X199570752Y-59180001D02*
X199045751Y-58655000D01*
X200390001Y-59180001D02*
X199570752Y-59180001D01*
X200911444Y-58658558D02*
X200390001Y-59180001D01*
X198062842Y-58655000D02*
X197780000Y-58655000D01*
X211350001Y-58658558D02*
X200911444Y-58658558D01*
X188149999Y-53030001D02*
X187920000Y-53260000D01*
X195650001Y-53030001D02*
X188149999Y-53030001D01*
X195850000Y-53230000D02*
X195650001Y-53030001D01*
X194399693Y-57090000D02*
X193360000Y-57090000D01*
X196900001Y-53539999D02*
X196900001Y-55690001D01*
X195989993Y-52629991D02*
X196900001Y-53539999D01*
X187810007Y-52629991D02*
X195989993Y-52629991D01*
X187249999Y-53189999D02*
X187810007Y-52629991D01*
X195168555Y-56321138D02*
X194399693Y-57090000D01*
X196268864Y-56321138D02*
X195168555Y-56321138D01*
X196900001Y-55690001D02*
X196268864Y-56321138D01*
X187249999Y-55542841D02*
X187249999Y-53189999D01*
X188767158Y-57060000D02*
X187249999Y-55542841D01*
X189050000Y-57060000D02*
X188767158Y-57060000D01*
X214816522Y-59280000D02*
X216525000Y-59280000D01*
X214479999Y-59616523D02*
X214816522Y-59280000D01*
X185369999Y-61079999D02*
X185780000Y-61490000D01*
X185369999Y-59339999D02*
X185369999Y-61079999D01*
X185949998Y-58760000D02*
X185369999Y-59339999D01*
X195770000Y-58760000D02*
X185949998Y-58760000D01*
X200716930Y-65290570D02*
X199937500Y-66070000D01*
X200716930Y-64663070D02*
X201130000Y-64250000D01*
X200716930Y-65290570D02*
X200716930Y-64663070D01*
X204680001Y-64869999D02*
X205220000Y-65409998D01*
X204087306Y-64869999D02*
X204680001Y-64869999D01*
X204015844Y-64941461D02*
X204087306Y-64869999D01*
X207410728Y-64879274D02*
X207410728Y-64829856D01*
X207210729Y-65079273D02*
X206690001Y-65600001D01*
X207210729Y-65029855D02*
X207210729Y-65079273D01*
X207410728Y-64829856D02*
X207210729Y-65029855D01*
X205410003Y-65600001D02*
X204680001Y-64869999D01*
X206690001Y-65600001D02*
X205410003Y-65600001D01*
X184608603Y-62205000D02*
X182066103Y-64747500D01*
X211240000Y-62205000D02*
X184608603Y-62205000D01*
X211340000Y-62105000D02*
X211240000Y-62205000D01*
X182066103Y-64747500D02*
X181210000Y-64747500D01*
X182384302Y-65065698D02*
X181230000Y-66220000D01*
X184795000Y-62655000D02*
X182384302Y-65065698D01*
X211240000Y-62655000D02*
X184795000Y-62655000D01*
X211340000Y-62755000D02*
X211240000Y-62655000D01*
X175248603Y-58917500D02*
X174380000Y-58917500D01*
X176461103Y-57705000D02*
X175248603Y-58917500D01*
X210574546Y-57705000D02*
X176461103Y-57705000D01*
X210759546Y-57520000D02*
X210574546Y-57705000D01*
X211042388Y-57520000D02*
X210759546Y-57520000D01*
X175566802Y-59235698D02*
X174350000Y-60452500D01*
X176647500Y-58155000D02*
X175566802Y-59235698D01*
X210947305Y-58155000D02*
X176647500Y-58155000D01*
X211067159Y-58035146D02*
X210947305Y-58155000D01*
X211350001Y-58035146D02*
X211067159Y-58035146D01*
X195930190Y-55818389D02*
X194655551Y-54543750D01*
X189546250Y-54543750D02*
X189010000Y-55080000D01*
X194655551Y-54543750D02*
X189546250Y-54543750D01*
X195930190Y-55819503D02*
X195928556Y-55821137D01*
X195930190Y-55818389D02*
X195930190Y-55819503D01*
X189546250Y-54093750D02*
X189000000Y-53547500D01*
X194841949Y-54093750D02*
X189546250Y-54093750D01*
X195043750Y-54093750D02*
X196400000Y-55450000D01*
X194841949Y-54093750D02*
X195043750Y-54093750D01*
X197794998Y-61220000D02*
X194002500Y-61220000D01*
X197794998Y-61223173D02*
X197843660Y-61271835D01*
X197794998Y-61220000D02*
X197794998Y-61223173D01*
X198254998Y-61680000D02*
X200180000Y-61680000D01*
X197794998Y-61220000D02*
X198254998Y-61680000D01*
X194002500Y-61252500D02*
X193550000Y-61705000D01*
X194002500Y-61220000D02*
X194002500Y-61252500D01*
X198475000Y-61160000D02*
X199821643Y-61160000D01*
X198085000Y-60770000D02*
X198475000Y-61160000D01*
X194002500Y-60770000D02*
X198085000Y-60770000D01*
X193550000Y-60317500D02*
X194002500Y-60770000D01*
X174090000Y-39650000D02*
X176030000Y-41590000D01*
X172880000Y-39650000D02*
X174090000Y-39650000D01*
X176860000Y-44150000D02*
X176720000Y-44290000D01*
X176860000Y-42820000D02*
X176860000Y-44150000D01*
D21*
X166070000Y-88170000D02*
X166900000Y-89000000D01*
X166070000Y-86980000D02*
X166070000Y-88170000D01*
D20*
X190000000Y-20930000D02*
X189140000Y-20070000D01*
X190000000Y-21090000D02*
X190000000Y-20930000D01*
X190000000Y-23750000D02*
X189140000Y-24610000D01*
X190000000Y-23630000D02*
X190000000Y-23750000D01*
X190000000Y-24580000D02*
X189970000Y-24610000D01*
X190000000Y-23630000D02*
X190000000Y-24580000D01*
X247080000Y-91150000D02*
X247130000Y-91100000D01*
X245890000Y-91150000D02*
X247080000Y-91150000D01*
X243350000Y-90020000D02*
X243520000Y-89850000D01*
X243350000Y-91150000D02*
X243350000Y-90020000D01*
X244510000Y-90790000D02*
X244510000Y-90090000D01*
X244150000Y-91150000D02*
X244510000Y-90790000D01*
X243350000Y-91150000D02*
X244150000Y-91150000D01*
X240810000Y-91730000D02*
X241460000Y-92380000D01*
X240810000Y-91150000D02*
X240810000Y-91730000D01*
X228680000Y-100730000D02*
X228680000Y-100810000D01*
X229330000Y-100080000D02*
X228680000Y-100730000D01*
X231280000Y-100080000D02*
X229330000Y-100080000D01*
X223720000Y-99430000D02*
X223720000Y-98860000D01*
X223070000Y-100080000D02*
X223720000Y-99430000D01*
X221120000Y-100080000D02*
X223070000Y-100080000D01*
X212830000Y-91150000D02*
X212890000Y-91090000D01*
X211230000Y-91150000D02*
X212830000Y-91150000D01*
X211350000Y-91150000D02*
X212470000Y-92270000D01*
X211230000Y-91150000D02*
X211350000Y-91150000D01*
X209870000Y-91530000D02*
X209870000Y-92480000D01*
X209490000Y-91150000D02*
X209870000Y-91530000D01*
X208690000Y-91150000D02*
X209490000Y-91150000D01*
X206150000Y-92340000D02*
X206540000Y-92730000D01*
X206150000Y-91150000D02*
X206150000Y-92340000D01*
X206380000Y-100640000D02*
X206380000Y-101080000D01*
X205730000Y-99990000D02*
X206380000Y-100640000D01*
X203780000Y-99990000D02*
X205730000Y-99990000D01*
X211360000Y-99990000D02*
X211350000Y-100000000D01*
X213940000Y-99990000D02*
X211360000Y-99990000D01*
X211370000Y-100610000D02*
X211370000Y-101320000D01*
X211990000Y-99990000D02*
X211370000Y-100610000D01*
X213940000Y-99990000D02*
X211990000Y-99990000D01*
X198700000Y-100170000D02*
X198730000Y-100140000D01*
X196130000Y-100170000D02*
X198700000Y-100170000D01*
X198710000Y-100800000D02*
X198710000Y-101490000D01*
X198080000Y-100170000D02*
X198710000Y-100800000D01*
X196130000Y-100170000D02*
X198080000Y-100170000D01*
X188580000Y-100170000D02*
X188590000Y-100180000D01*
X185970000Y-100170000D02*
X188580000Y-100170000D01*
X188570000Y-100820000D02*
X188570000Y-101290000D01*
X187920000Y-100170000D02*
X188570000Y-100820000D01*
X185970000Y-100170000D02*
X187920000Y-100170000D01*
X193740000Y-91280000D02*
X194820000Y-92360000D01*
X193590000Y-91280000D02*
X193740000Y-91280000D01*
X195050000Y-91280000D02*
X195240000Y-91090000D01*
X193590000Y-91280000D02*
X195050000Y-91280000D01*
X192280000Y-91710000D02*
X192280000Y-92580000D01*
X191850000Y-91280000D02*
X192280000Y-91710000D01*
X191050000Y-91280000D02*
X191850000Y-91280000D01*
X188510000Y-90790000D02*
X187630000Y-89910000D01*
X188510000Y-91280000D02*
X188510000Y-90790000D01*
D21*
X162830000Y-110570000D02*
X164360000Y-110570000D01*
X174230000Y-109470000D02*
X175180000Y-108520000D01*
X174230000Y-110570000D02*
X174230000Y-109470000D01*
X174510000Y-110570000D02*
X175730000Y-111790000D01*
X174230000Y-110570000D02*
X174510000Y-110570000D01*
X245570000Y-48920000D02*
X245570000Y-50490000D01*
D20*
X242830000Y-21080000D02*
X243970000Y-22220000D01*
X242730000Y-21080000D02*
X242830000Y-21080000D01*
D21*
X245820000Y-99480000D02*
X245820000Y-98920000D01*
X246380000Y-100040000D02*
X245820000Y-99480000D01*
X248430000Y-100040000D02*
X246380000Y-100040000D01*
X240950000Y-100040000D02*
X240960000Y-100030000D01*
X238270000Y-100040000D02*
X240950000Y-100040000D01*
X240870000Y-100590000D02*
X240870000Y-101300000D01*
X240320000Y-100040000D02*
X240870000Y-100590000D01*
X238270000Y-100040000D02*
X240320000Y-100040000D01*
X198460000Y-54890000D02*
X198470000Y-54900000D01*
D20*
X249760000Y-43850000D02*
X249760000Y-43240000D01*
X249570000Y-55090000D02*
X249570000Y-55160000D01*
D21*
X248330000Y-43850000D02*
X248090000Y-43610000D01*
X249760000Y-43850000D02*
X248330000Y-43850000D01*
X172110000Y-36710000D02*
X170660000Y-36710000D01*
X173020000Y-37620000D02*
X172110000Y-36710000D01*
X166910000Y-37200000D02*
X166670000Y-37440000D01*
X168890000Y-37200000D02*
X166910000Y-37200000D01*
X181890000Y-40280000D02*
X182050000Y-40120000D01*
X179990000Y-40280000D02*
X181890000Y-40280000D01*
X240250000Y-43810000D02*
X238710000Y-45350000D01*
X241070000Y-43810000D02*
X240250000Y-43810000D01*
X249570000Y-53890000D02*
X250040000Y-53420000D01*
X249570000Y-55090000D02*
X249570000Y-53890000D01*
X194220000Y-80370000D02*
X195810000Y-81960000D01*
X193000000Y-80370000D02*
X194220000Y-80370000D01*
D20*
X250139999Y-36959999D02*
X250139999Y-33490001D01*
X250139999Y-33490001D02*
X250140000Y-33490000D01*
X251860000Y-38680000D02*
X250139999Y-36959999D01*
M02*
